{"glyphs":{"0":{"ha":456,"x_min":35,"x_max":425,"o":"m 35 243 q 45 406 35 324 q 64 567 54 488 q 69 583 64 578 q 80 595 75 589 q 83 601 80 597 q 85 606 85 605 q 152 688 106 655 q 251 722 198 722 q 301 714 281 722 q 336 692 321 707 q 363 659 351 678 q 391 614 376 639 q 408 559 401 590 q 418 495 415 528 q 423 431 422 463 q 425 372 425 399 q 414 277 422 327 q 391 181 407 228 q 347 95 374 134 q 275 30 319 56 q 237 9 258 19 q 195 0 216 0 q 117 24 148 0 q 68 84 87 47 q 43 163 50 121 q 35 243 35 206 m 137 189 q 142 164 138 179 q 151 134 145 149 q 167 109 157 119 q 191 98 176 98 q 212 103 202 98 q 229 114 222 109 q 286 179 264 141 q 317 260 307 217 q 331 347 328 302 q 334 431 334 391 q 334 449 334 437 q 333 474 334 461 q 332 499 332 487 q 332 515 332 511 q 326 555 331 530 q 311 604 320 581 q 286 646 301 628 q 248 663 270 663 q 220 656 236 663 q 189 637 203 648 q 165 612 175 627 q 155 585 155 598 q 161 567 155 574 q 167 547 167 560 l 167 532 q 162 508 165 528 q 155 467 159 488 q 147 425 151 445 q 142 401 144 406 q 136 332 137 368 q 136 264 136 297 q 136 250 136 260 q 136 227 136 239 q 137 203 137 214 q 137 189 137 193 z "},"1":{"ha":191,"x_min":31,"x_max":164,"o":"m 37 52 q 33 110 34 83 q 32 163 33 137 q 31 216 31 190 q 31 274 31 243 q 43 484 31 380 q 60 693 54 587 q 59 725 60 705 q 62 763 58 745 q 77 793 66 781 q 111 803 88 804 q 145 785 133 800 q 164 750 157 770 q 139 477 151 613 q 127 201 127 340 q 131 136 127 168 q 134 71 134 103 q 133 47 134 60 q 127 24 132 35 q 115 6 123 14 q 92 -1 106 -1 q 56 15 68 -1 q 37 52 43 31 z "},"2":{"ha":647,"x_min":24,"x_max":627,"o":"m 111 52 q 113 68 111 62 q 123 85 115 73 q 197 200 160 142 q 265 318 235 258 q 315 442 296 378 q 334 575 334 506 q 262 551 293 575 q 202 496 231 526 q 146 442 174 467 q 88 418 119 418 q 68 420 79 418 q 47 427 57 422 q 31 440 38 431 q 24 461 24 449 l 24 464 q 47 498 33 481 q 80 531 62 515 q 115 560 98 547 q 146 585 133 574 q 190 618 165 601 q 241 652 214 636 q 296 677 267 667 q 353 688 324 688 q 420 657 401 688 q 439 579 439 627 q 409 404 439 490 q 335 240 378 317 l 335 235 l 300 172 l 312 172 q 435 227 369 205 q 564 264 500 250 l 570 264 q 610 256 594 264 q 627 218 627 248 q 616 183 627 198 q 588 175 605 180 q 559 172 571 170 l 426 125 l 209 11 q 165 0 187 0 q 129 16 146 0 q 111 52 111 31 z "},"3":{"ha":541,"x_min":19,"x_max":509,"o":"m 220 52 q 222 71 220 64 q 237 85 224 79 q 244 87 239 87 q 256 90 250 88 q 267 92 262 91 q 273 92 271 92 q 291 100 281 94 q 311 113 301 106 q 330 127 321 121 q 342 137 338 134 q 395 212 381 171 q 410 302 410 252 q 410 321 410 309 q 409 347 410 334 q 404 370 408 359 q 392 384 400 380 q 379 385 389 385 q 366 385 369 385 q 307 372 335 385 q 253 344 279 359 q 199 315 227 328 q 138 302 171 302 q 104 317 117 302 q 92 351 92 331 q 118 410 92 373 q 176 487 144 446 q 240 568 209 528 q 283 636 271 608 l 273 636 q 216 623 241 636 q 167 595 190 610 q 121 568 144 581 q 75 555 99 555 q 38 564 57 555 q 19 595 19 572 q 39 634 19 614 q 92 671 60 654 q 165 703 125 688 q 243 728 205 718 q 315 745 282 739 q 365 751 347 751 q 415 699 415 751 l 415 681 q 359 572 392 620 q 294 469 327 524 l 308 469 q 342 472 327 469 q 377 475 358 475 q 463 440 431 475 q 507 355 494 406 q 508 328 507 349 q 509 301 509 307 q 471 146 509 210 q 358 30 433 81 q 275 0 320 0 q 237 16 254 0 q 220 52 220 31 z "},"4":{"ha":556,"x_min":14,"x_max":532,"o":"m 292 332 l 286 332 q 230 327 258 332 q 174 315 202 321 q 119 302 146 308 q 62 297 91 297 l 57 297 q 28 324 42 308 q 16 361 14 340 q 30 379 18 369 q 46 396 42 389 q 54 410 47 399 q 68 435 61 422 q 83 460 76 449 q 92 475 90 472 q 98 480 92 480 l 224 699 q 226 701 224 700 q 229 704 228 703 q 243 722 233 709 q 263 747 252 734 q 283 773 274 761 q 297 791 293 785 q 312 802 304 800 q 331 803 320 803 q 351 800 340 803 q 372 792 362 798 q 388 777 381 787 q 395 755 395 768 l 395 468 q 439 481 419 468 q 484 494 458 494 q 532 444 532 494 q 528 422 532 433 q 514 407 525 411 l 395 361 l 395 357 q 409 206 395 281 q 423 58 423 132 q 412 18 423 37 q 378 0 401 0 q 363 1 370 0 q 349 5 355 1 q 331 22 342 11 q 320 35 320 33 l 320 46 l 292 332 m 176 407 q 195 410 182 407 q 222 415 208 412 q 250 420 237 418 q 270 423 263 422 q 277 427 271 425 q 286 430 283 429 q 290 433 288 430 q 292 437 292 435 l 292 606 l 286 614 l 176 418 l 176 407 z "},"5":{"ha":579,"x_min":31,"x_max":553,"o":"m 156 47 q 162 72 156 61 q 177 92 168 83 q 196 109 186 100 q 214 125 206 117 q 232 146 220 132 q 257 177 244 161 q 281 206 270 193 q 294 224 292 220 q 320 260 305 239 q 340 302 335 282 q 335 303 339 302 q 330 304 331 304 q 277 288 305 304 q 231 258 250 271 l 225 258 q 193 233 208 245 q 164 212 179 222 q 140 194 149 201 q 115 180 125 183 q 81 178 106 178 q 56 186 65 178 q 41 206 46 194 q 33 233 35 218 q 31 259 31 247 q 35 311 31 285 q 37 361 39 336 l 71 572 q 82 606 80 590 q 87 635 84 623 q 101 656 91 648 q 137 663 111 663 q 168 655 157 663 q 191 631 178 647 l 199 631 q 250 637 225 631 q 300 642 275 644 l 483 675 q 492 677 484 677 q 502 677 499 677 q 539 665 525 677 q 553 627 553 652 q 518 585 553 591 l 353 551 l 340 551 q 258 538 297 544 q 180 521 220 533 q 174 518 178 519 q 170 515 170 517 l 140 343 l 140 321 q 239 374 189 353 q 349 401 289 395 q 383 398 365 401 q 418 387 401 395 q 445 366 434 378 q 456 332 456 353 q 447 279 456 305 q 424 229 438 254 q 392 180 410 203 q 358 137 374 157 q 336 113 351 130 q 304 77 321 96 q 271 41 286 58 q 248 16 255 23 q 227 6 241 12 q 203 0 213 0 q 170 15 184 0 q 156 47 156 30 z "},"6":{"ha":442,"x_min":31,"x_max":426,"o":"m 94 -79 q 102 -24 94 -50 q 111 30 111 3 q 106 47 111 39 q 92 62 100 54 q 77 77 84 69 q 65 92 69 84 q 39 158 46 123 q 31 228 31 193 l 31 236 q 75 450 57 368 q 105 581 94 533 q 123 651 117 629 q 133 682 130 673 q 145 711 138 696 q 160 739 152 727 q 180 760 168 751 q 212 768 193 768 q 241 753 229 768 q 254 719 254 738 q 255 716 260 732 q 238 662 250 700 q 210 570 227 624 q 179 458 194 517 q 152 338 164 399 q 137 227 140 278 q 138 199 137 220 q 138 172 138 179 q 144 153 141 164 q 156 137 148 142 q 166 155 159 142 q 182 183 174 168 q 197 211 190 198 q 209 231 205 224 q 237 270 218 247 q 279 314 256 293 q 326 351 301 335 q 370 366 350 366 q 397 359 387 366 q 414 339 408 351 q 423 312 420 327 q 426 283 426 297 q 410 195 426 239 q 367 115 395 152 q 302 52 339 79 q 220 12 264 24 q 205 -24 216 -3 q 195 -60 195 -45 q 199 -83 195 -72 q 202 -107 202 -95 q 187 -145 202 -130 q 149 -160 172 -160 q 121 -152 132 -160 q 104 -132 110 -144 q 96 -105 98 -119 q 94 -79 94 -91 m 286 179 q 264 141 266 153 q 269 127 262 129 q 288 130 275 125 q 309 144 300 136 q 337 186 332 164 q 336 218 342 208 q 316 222 330 229 q 286 179 302 216 z "},"7":{"ha":491,"x_min":8,"x_max":458,"o":"m 270 62 q 273 163 270 113 q 275 264 277 213 l 332 663 l 332 680 q 333 690 332 682 q 327 699 334 697 q 206 661 273 681 q 80 642 140 642 l 52 642 q 25 662 37 650 q 11 693 14 674 q 23 724 8 713 q 58 740 38 735 q 99 746 79 745 q 130 750 119 747 q 199 764 167 757 q 261 781 231 772 q 323 800 292 789 q 389 825 354 811 l 397 825 q 439 810 420 825 q 458 770 458 795 l 458 755 l 389 378 q 387 354 388 373 q 383 312 385 335 q 380 267 381 289 q 378 235 378 245 q 378 195 378 224 q 377 135 377 167 q 378 75 377 103 q 378 35 378 46 q 357 6 368 12 q 323 0 347 0 q 283 20 296 0 q 270 62 270 39 z "},"8":{"ha":448,"x_min":23,"x_max":414,"o":"m 130 142 q 144 245 130 199 q 178 343 159 292 l 178 361 q 136 395 157 377 q 95 435 115 414 q 58 479 75 457 q 30 526 41 502 q 26 541 27 529 q 23 556 24 553 l 23 559 q 45 634 23 597 q 100 701 66 671 q 173 749 134 731 q 247 768 212 768 q 311 745 282 762 q 355 703 339 728 q 374 648 372 678 q 361 585 377 617 q 349 551 358 575 q 330 498 340 526 q 311 446 320 471 q 297 412 301 422 q 292 401 293 400 q 292 392 292 403 l 292 384 q 334 333 312 358 q 373 281 355 308 q 402 226 391 255 q 414 163 414 197 q 399 102 414 132 q 362 51 385 73 q 309 14 339 28 q 250 0 279 0 q 196 12 218 0 q 159 44 174 24 q 137 90 144 64 q 130 142 130 115 m 213 148 q 216 105 213 125 q 247 85 220 85 q 275 94 260 85 q 302 117 290 103 q 319 146 313 130 q 321 178 326 163 q 310 203 319 187 q 291 237 301 220 q 270 268 281 254 q 252 286 259 282 q 235 261 243 279 q 223 221 228 243 q 216 179 218 199 q 213 148 213 159 m 119 570 q 133 540 119 559 q 164 501 146 521 q 198 467 182 481 q 221 453 214 453 l 224 453 q 267 549 247 492 q 286 652 286 605 l 286 663 q 273 667 283 665 q 258 670 262 670 q 217 667 233 670 q 189 658 201 665 q 165 639 176 651 q 137 606 153 627 q 125 590 132 600 q 119 570 119 581 z "},"9":{"ha":437,"x_min":14,"x_max":400,"o":"m 240 58 q 241 70 240 60 q 245 92 243 80 q 249 113 247 103 q 251 125 251 122 q 252 137 251 126 q 254 162 252 148 q 256 191 255 176 q 256 213 256 205 q 272 428 263 320 q 281 644 281 536 l 281 670 q 244 631 260 654 q 210 587 228 609 q 171 550 193 566 q 119 532 149 534 q 71 539 91 529 q 39 567 52 549 q 20 608 26 585 q 15 655 15 631 q 26 731 14 690 q 60 811 38 772 q 113 883 83 850 q 177 934 142 916 q 250 953 212 952 q 326 928 288 954 q 342 899 338 917 q 349 871 346 882 q 382 852 363 865 q 400 819 400 838 q 389 619 400 719 q 372 418 378 519 q 361 227 365 321 q 349 35 358 132 q 328 8 339 16 q 294 0 317 0 q 254 18 271 0 q 240 58 237 37 m 248 876 q 195 847 220 876 q 151 779 170 818 q 122 701 133 741 q 111 642 111 662 l 119 642 l 155 675 l 264 830 l 264 837 q 260 860 264 844 q 248 876 255 876 z "}," ":{"ha":556,"x_min":0,"x_max":0,"o":""},"X":{"ha":633,"x_min":24,"x_max":602,"o":"m 275 229 q 267 215 274 227 q 258 199 260 203 q 238 155 247 184 q 217 96 229 125 q 189 44 205 66 q 149 22 172 22 q 130 25 141 22 q 109 35 118 28 q 92 50 99 41 q 85 68 85 58 q 94 100 85 87 q 103 132 103 114 l 189 308 q 192 317 190 311 q 195 327 194 324 l 195 331 l 195 332 q 142 413 168 370 q 94 492 115 456 q 56 557 72 529 q 35 595 41 585 q 24 624 24 609 q 32 650 24 639 q 53 669 39 662 q 83 677 66 677 q 119 669 106 677 q 142 642 133 661 q 189 548 165 593 q 241 458 212 503 l 243 458 q 258 487 251 468 q 275 543 266 506 q 297 636 283 579 q 332 779 311 693 q 349 802 335 791 q 374 814 363 814 l 380 814 q 410 808 399 810 q 426 801 420 806 q 433 785 431 796 q 437 754 435 774 q 428 700 435 734 q 410 625 420 666 q 388 541 400 585 q 363 460 376 498 q 342 395 351 423 q 327 355 332 366 l 327 343 l 590 80 q 600 64 598 72 q 602 47 602 57 q 589 13 602 26 q 556 0 576 0 q 516 10 537 0 q 480 35 495 20 l 286 229 l 275 229 z "},"W":{"ha":701,"x_min":19,"x_max":669,"o":"m 330 464 l 324 469 q 315 404 316 437 q 312 338 313 372 q 311 301 312 327 q 309 246 311 275 q 307 191 308 217 q 307 155 307 164 q 289 126 302 138 q 258 114 275 114 q 241 116 251 114 q 220 121 231 118 q 201 130 210 125 q 191 142 193 136 l 106 442 l 43 688 q 38 697 42 689 q 30 715 34 705 q 22 735 26 726 q 19 750 19 745 q 37 781 19 769 q 71 792 56 792 q 134 750 121 792 l 209 480 q 218 495 216 483 q 220 510 220 507 q 222 524 220 511 q 229 566 224 536 q 245 650 235 597 q 273 785 255 703 q 298 804 283 799 q 332 808 313 808 q 360 803 350 808 q 374 779 370 798 l 467 391 q 472 376 469 384 q 477 361 475 368 q 487 440 483 406 q 495 508 491 475 q 503 578 499 541 q 514 665 507 616 q 530 780 521 713 q 553 939 540 846 q 577 972 557 966 q 621 979 597 979 q 627 977 623 979 q 633 974 632 975 q 644 971 636 972 q 655 968 652 970 q 665 947 661 956 q 669 928 669 939 q 659 916 666 941 q 642 831 652 890 q 621 687 632 773 q 598 493 609 601 q 578 260 587 385 q 564 0 570 134 q 551 1 560 0 q 531 5 541 3 q 513 12 521 8 q 502 23 505 16 l 330 464 z "},"Y":{"ha":575,"x_min":8,"x_max":541,"o":"m 307 -8 q 310 18 308 -1 q 315 58 312 37 q 321 97 319 79 q 326 123 324 115 q 342 245 332 184 q 353 366 353 305 l 353 387 l 331 397 q 304 415 326 400 q 256 449 282 430 q 203 488 229 468 q 164 519 178 507 q 138 541 156 525 q 100 574 119 556 q 62 610 80 593 q 38 633 45 627 q 18 659 27 644 q 8 688 8 673 q 26 721 8 711 q 64 731 43 731 q 92 728 77 731 q 118 713 107 724 q 233 600 170 656 q 363 502 297 543 l 369 519 l 426 886 q 443 905 429 901 q 469 909 457 909 q 523 892 505 909 q 541 836 541 875 l 541 833 q 539 826 541 831 q 535 814 537 821 q 532 801 533 807 q 530 793 530 795 q 519 730 526 777 q 505 619 513 684 q 487 477 496 555 q 468 322 477 400 q 449 172 458 244 q 431 43 439 99 q 433 12 433 30 q 429 -22 434 -5 q 412 -49 423 -38 q 380 -60 400 -60 q 334 -46 354 -60 q 307 -8 315 -33 z "},"Z":{"ha":1015,"x_min":31,"x_max":993,"o":"m 100 52 q 102 60 100 54 q 106 69 104 66 q 129 104 111 79 q 182 186 146 130 q 277 333 218 241 q 425 567 335 425 l 387 567 l 122 526 l 109 526 q 85 531 99 526 q 60 543 72 536 q 39 560 47 551 q 31 581 31 570 q 42 611 31 601 q 69 626 53 621 q 103 631 85 631 q 134 631 121 631 l 426 670 q 444 671 427 670 q 467 671 460 671 q 505 671 484 671 q 542 667 525 671 q 570 650 559 662 q 581 613 581 637 q 572 587 581 600 q 553 567 563 574 l 330 208 q 298 166 309 194 q 271 119 286 138 q 278 115 274 115 q 286 114 282 114 l 294 114 l 930 201 q 970 190 948 201 q 993 156 993 179 q 985 123 993 136 q 959 98 977 110 q 865 96 924 98 q 715 83 806 94 q 499 54 625 73 q 203 0 373 34 q 194 -1 199 -1 l 182 -1 q 158 1 172 -1 q 131 9 144 4 q 109 24 118 15 q 100 49 100 34 l 100 52 z "},"!":{"ha":164,"x_min":24,"x_max":134,"o":"m 24 46 q 35 72 24 60 q 54 92 45 84 l 76 92 q 115 82 99 92 q 130 47 130 72 q 125 31 130 39 q 111 14 119 22 q 91 3 102 7 q 71 0 80 -1 q 41 16 57 3 q 24 46 24 30 m 24 498 q 25 524 24 513 q 31 551 26 536 l 31 1015 q 37 1023 31 1019 q 51 1032 43 1028 q 66 1039 58 1036 q 76 1042 73 1042 q 111 1025 99 1042 q 129 991 122 1009 q 128 956 129 981 q 127 903 127 930 q 128 849 127 875 q 129 814 129 823 q 130 785 129 807 q 132 736 130 762 q 134 686 133 709 q 134 658 134 663 q 134 629 134 651 q 132 583 133 608 q 130 533 132 557 q 129 498 129 509 q 115 454 126 473 q 76 435 104 435 q 35 452 46 435 q 24 498 24 468 z "},"\"":{"ha":343,"x_min":58,"x_max":308,"o":"m 199 917 q 208 948 194 939 q 240 958 222 958 q 275 942 263 958 q 292 906 288 926 q 295 852 293 890 q 300 771 297 814 q 305 690 302 728 q 308 636 308 651 l 308 605 q 307 584 308 591 q 304 571 307 576 q 294 561 301 566 q 275 551 288 556 l 271 551 q 236 571 247 551 q 221 619 225 591 q 218 674 217 647 q 217 715 218 701 q 214 755 216 727 q 209 816 212 784 q 203 876 206 848 q 199 917 201 905 m 58 686 q 62 745 60 709 q 68 814 65 780 q 73 872 71 848 q 75 898 75 897 l 85 932 q 94 934 85 933 q 106 935 102 935 q 153 913 145 935 q 161 856 161 891 q 156 719 161 788 q 142 583 151 650 q 117 559 141 559 q 87 572 99 559 q 70 602 76 585 q 61 637 64 618 q 58 669 58 656 l 58 686 z "},"#":{"ha":598,"x_min":16,"x_max":574,"o":"m 201 269 q 198 287 199 274 q 195 313 197 300 q 191 339 193 327 q 189 355 189 351 q 189 369 189 361 q 189 385 189 377 q 186 399 189 393 q 178 407 183 406 q 144 393 161 399 q 109 388 127 388 q 81 392 98 388 q 57 407 64 396 q 71 451 54 438 q 109 471 88 464 q 149 486 130 477 q 167 514 167 494 q 165 554 167 536 q 161 595 164 572 l 160 595 q 157 597 159 595 q 135 591 145 597 q 115 578 125 586 q 94 566 104 571 q 71 560 84 560 q 34 572 52 560 q 16 608 16 585 q 27 625 16 614 q 41 636 38 635 l 144 694 l 156 705 q 159 736 157 722 q 160 762 160 749 q 161 784 160 776 l 161 883 q 177 901 165 898 q 205 905 189 905 q 226 897 218 905 q 240 878 233 888 q 241 858 240 872 q 243 828 243 844 q 245 798 244 812 q 245 779 245 784 q 244 766 244 772 q 245 756 244 761 q 251 750 247 751 q 269 756 255 751 q 286 762 283 761 q 292 768 292 762 q 299 850 298 804 q 298 928 300 897 q 314 947 304 943 q 339 951 324 951 q 375 934 363 951 q 389 893 387 917 q 391 845 392 869 q 389 804 389 821 q 424 809 407 804 q 458 814 441 814 q 471 806 467 814 q 475 791 475 798 q 465 770 475 780 q 441 751 454 760 q 415 735 429 742 q 395 727 401 728 q 389 711 388 722 q 389 694 389 701 q 389 685 389 693 q 390 667 389 677 q 391 650 391 658 q 395 643 392 643 l 400 643 q 420 652 406 646 q 450 667 434 659 q 479 683 465 675 q 499 694 492 690 q 528 709 513 701 q 559 716 544 716 q 572 713 570 716 q 574 700 574 709 q 573 698 574 699 q 572 694 572 697 l 572 689 q 564 677 570 685 q 553 662 559 670 q 541 646 547 654 q 533 636 534 639 q 526 629 530 633 q 522 624 522 625 l 400 544 q 395 538 395 540 q 395 528 395 536 q 404 431 395 479 q 412 335 412 384 l 412 293 q 398 276 410 278 q 376 274 387 274 q 350 277 359 274 q 334 298 340 281 q 318 387 326 343 q 304 476 311 431 l 298 476 q 275 469 288 476 q 263 450 263 461 q 269 381 263 416 q 275 311 275 346 q 266 274 275 290 q 233 258 256 258 q 216 261 218 258 q 201 269 213 264 m 245 627 q 245 610 245 623 q 247 585 245 598 q 250 562 248 571 q 256 555 252 552 l 298 579 l 298 670 q 289 677 298 677 q 286 675 289 677 q 266 665 282 673 q 245 654 250 656 l 245 627 z "},"$":{"ha":464,"x_min":14,"x_max":439,"o":"m 243 30 q 239 49 241 35 q 232 77 236 62 q 225 106 228 92 q 221 125 222 119 l 221 132 q 216 165 220 141 q 209 215 213 189 q 201 265 205 241 q 197 297 198 289 q 182 302 193 301 q 161 305 172 304 q 142 309 151 307 q 134 316 134 311 q 115 336 118 326 q 121 354 113 346 q 149 366 130 362 q 191 368 167 370 q 192 407 191 382 q 192 458 193 431 q 189 509 191 484 q 180 551 186 534 q 138 553 165 548 q 83 567 110 557 q 35 591 56 576 q 14 627 14 606 q 34 707 14 667 q 77 779 54 747 q 98 804 83 785 q 129 842 113 822 q 159 880 145 861 q 180 905 174 898 q 182 920 180 909 q 184 942 183 930 q 185 964 184 954 q 186 979 186 975 l 186 997 q 191 1034 187 1008 q 197 1091 194 1061 q 204 1148 201 1122 q 209 1185 208 1175 q 224 1223 213 1203 q 254 1242 235 1242 q 283 1232 271 1242 q 301 1208 294 1222 l 301 1176 q 293 1081 301 1128 q 285 986 285 1034 q 325 994 307 986 q 366 1002 343 1002 q 402 990 388 1002 q 416 958 416 978 q 412 935 416 941 q 401 927 408 929 q 384 925 393 925 q 363 922 374 925 q 342 916 357 921 q 314 902 328 910 q 289 884 300 894 q 278 864 278 875 l 278 642 l 283 636 q 324 633 300 636 q 372 623 349 631 q 414 602 396 616 q 438 567 433 589 q 439 550 439 564 q 439 532 439 536 q 425 474 439 502 q 388 420 410 446 q 341 372 366 395 q 296 332 316 350 l 296 292 l 336 41 q 332 27 336 34 q 321 14 328 20 q 308 4 315 8 q 297 0 301 0 q 267 5 281 0 q 243 30 254 11 m 283 480 q 286 467 285 476 q 289 458 288 458 l 296 458 q 313 473 297 458 q 336 498 328 488 q 350 516 342 506 q 358 538 358 526 l 358 544 q 345 545 354 544 q 326 546 336 545 q 307 548 316 547 q 296 551 298 549 l 292 551 q 283 544 286 551 l 283 513 l 283 480 m 118 658 q 123 646 118 650 q 136 642 129 643 q 151 642 142 642 q 164 642 159 642 q 174 641 167 642 q 180 647 180 640 l 180 758 q 162 746 172 758 q 142 718 152 734 q 125 684 132 701 q 118 658 118 667 z "},"'":{"ha":175,"x_min":31,"x_max":140,"o":"m 31 685 q 33 719 31 694 q 37 770 35 743 q 41 822 39 798 q 42 857 42 846 q 85 891 52 891 q 127 874 115 891 q 140 830 140 857 q 139 798 140 822 q 136 744 138 774 q 130 680 133 713 q 121 620 126 647 q 107 575 115 593 q 90 559 99 557 q 60 573 71 562 q 42 600 49 585 q 33 631 35 614 q 31 663 31 648 l 31 685 z "},"(":{"ha":349,"x_min":20,"x_max":321,"o":"m 23 270 q 23 276 20 254 q 32 344 26 298 q 48 451 38 389 q 71 576 58 513 q 99 696 84 639 q 132 791 114 753 q 177 881 149 838 q 236 963 205 924 q 251 979 243 972 q 273 986 259 986 q 307 972 292 986 q 321 936 321 958 q 313 899 321 918 q 292 862 304 880 q 267 827 279 844 q 247 796 254 810 q 200 677 224 747 q 157 534 176 608 q 128 394 138 461 q 125 285 118 327 q 137 182 125 232 q 195 98 149 133 q 214 84 201 94 q 241 65 227 75 q 268 47 255 56 q 286 35 281 38 q 287 28 286 33 q 288 23 288 24 q 275 4 288 8 q 250 0 262 0 q 158 26 199 0 q 87 91 117 52 q 41 178 58 130 q 23 270 24 225 z "},")":{"ha":366,"x_min":23,"x_max":339,"o":"m 23 35 q 37 61 23 46 q 58 85 52 76 q 110 157 85 125 q 156 229 134 189 q 171 269 164 247 q 189 308 178 292 q 220 446 209 380 q 231 586 231 513 q 218 750 231 667 q 183 911 206 833 q 168 943 179 928 q 146 972 157 958 q 127 1000 136 986 q 119 1029 119 1013 q 133 1058 119 1044 q 163 1072 146 1072 q 210 1055 189 1072 q 250 1013 232 1038 q 279 962 267 989 q 297 917 292 936 q 315 844 308 883 q 328 763 323 804 q 336 681 334 722 q 339 604 338 640 q 329 446 339 524 q 292 292 319 369 q 286 276 292 289 q 273 247 279 263 q 258 214 266 231 q 247 189 251 198 q 220 142 239 174 q 177 78 201 110 q 127 22 153 46 q 81 -1 102 -1 q 64 1 75 -1 q 45 7 54 3 q 29 18 35 11 q 23 35 23 24 z "},"+":{"ha":593,"x_min":19,"x_max":575,"o":"m 243 141 q 244 221 245 180 q 232 301 243 262 l 227 301 q 147 287 187 301 q 65 273 107 273 q 19 320 19 273 q 24 342 19 332 q 24 363 28 351 q 43 367 30 365 q 60 369 57 369 l 106 369 q 141 376 119 372 q 183 386 163 381 q 218 395 203 391 q 232 399 232 399 l 254 644 q 264 671 256 667 q 292 675 273 675 q 302 675 294 675 q 312 674 309 674 q 331 651 323 666 l 331 602 q 328 511 331 556 q 326 420 326 467 l 331 420 l 525 456 q 545 452 536 453 q 560 447 553 450 q 571 436 567 444 q 575 414 575 429 l 575 410 q 549 393 563 397 q 522 385 536 388 q 494 377 507 381 q 467 363 480 373 l 331 331 q 324 323 324 328 q 324 313 324 319 q 330 242 324 278 q 336 170 336 206 q 319 128 336 144 q 277 113 301 113 l 273 113 l 243 141 m 197 404 l 197 399 l 186 399 l 186 404 l 197 404 z "},",":{"ha":180,"x_min":24,"x_max":148,"o":"m 24 -14 q 29 14 26 -8 q 37 63 33 37 q 45 112 41 90 q 49 140 49 134 q 52 161 50 149 q 57 182 53 172 q 69 197 61 191 q 91 203 77 203 q 132 192 117 203 q 148 153 148 180 q 148 142 148 149 q 146 134 148 136 q 142 106 145 126 q 134 65 138 87 q 127 24 130 43 q 123 -3 125 4 q 112 -34 114 -15 q 107 -70 110 -53 q 96 -100 104 -87 q 65 -113 88 -113 q 45 -105 53 -113 q 33 -87 38 -98 q 26 -64 28 -76 q 24 -42 24 -52 l 24 -14 z "},"-":{"ha":555,"x_min":73,"x_max":529,"o":"m 73 343 q 90 376 73 366 q 125 391 106 387 l 465 425 q 509 416 488 425 q 529 381 529 408 q 520 366 529 374 q 500 351 511 358 q 477 340 490 345 q 460 338 465 335 l 125 301 q 90 313 107 301 q 73 343 73 324 z "},".":{"ha":175,"x_min":30,"x_max":142,"o":"m 30 52 q 44 87 30 71 q 77 103 58 103 q 115 91 100 103 q 142 64 129 79 l 142 60 q 127 18 142 37 q 85 0 111 0 q 49 16 68 0 q 30 52 30 33 z "},"/":{"ha":361,"x_min":27,"x_max":354,"o":"m 27 -39 q 45 83 34 26 q 68 206 56 141 l 68 217 l 262 1219 q 277 1251 266 1242 q 311 1260 288 1260 l 313 1260 q 347 1238 339 1246 q 354 1202 354 1229 q 350 1168 354 1185 q 343 1134 346 1150 q 338 1115 342 1130 q 331 1082 335 1100 q 323 1050 327 1065 q 319 1031 320 1035 l 319 1025 l 165 258 q 139 104 153 180 q 114 -50 125 27 q 97 -74 110 -66 q 69 -81 84 -81 q 41 -71 54 -81 q 27 -43 27 -61 l 27 -39 z "},":":{"ha":183,"x_min":30,"x_max":155,"o":"m 30 209 q 41 246 30 228 q 72 264 53 264 q 98 259 84 264 q 125 244 113 254 q 144 222 137 235 q 149 194 151 209 q 129 164 146 175 q 96 153 111 153 q 51 168 72 153 q 30 209 30 182 m 35 486 q 57 525 33 513 q 103 537 81 537 q 116 531 109 537 q 131 516 123 525 q 144 498 138 507 q 149 486 149 490 q 137 454 155 467 q 103 441 119 441 q 61 452 84 441 q 35 486 38 463 z "},";":{"ha":183,"x_min":-26,"x_max":153,"o":"m -26 -258 q -25 -250 -26 -255 q -24 -243 -24 -244 l 35 24 l 35 113 q 45 123 35 114 q 60 134 54 132 q 64 135 61 134 q 69 136 68 136 q 119 115 103 136 q 136 64 136 94 q 129 -8 136 30 q 123 -40 126 -20 q 116 -78 119 -60 q 110 -110 113 -96 q 107 -123 107 -123 l 100 -134 l 65 -289 q 51 -311 62 -302 q 24 -317 39 -320 q -26 -258 -26 -312 m 47 327 q 51 344 47 334 q 60 363 54 354 q 75 380 66 373 q 92 387 83 387 q 113 380 102 387 q 132 363 123 373 q 147 343 141 354 q 153 324 153 332 l 153 307 q 139 291 151 301 q 123 278 127 281 l 118 278 q 71 289 94 278 q 47 327 47 300 z "},"<":{"ha":614,"x_min":18,"x_max":579,"o":"m 258 161 q 239 161 254 161 q 208 159 225 160 q 176 157 190 157 q 157 156 161 156 l 117 156 q 83 158 100 156 q 51 166 65 160 q 27 184 37 172 q 18 218 18 197 q 29 249 18 237 q 53 275 41 260 q 68 296 57 281 q 93 327 80 311 q 117 357 106 343 q 133 378 129 372 q 147 401 137 392 q 163 423 157 410 l 305 647 q 318 675 313 659 q 329 704 323 690 q 345 726 335 718 q 373 735 354 735 q 421 713 403 735 q 442 665 439 692 q 441 656 444 662 q 437 647 439 650 l 266 378 q 245 348 259 363 q 218 317 232 332 q 195 285 205 301 q 184 254 184 269 q 357 249 273 254 q 529 235 441 244 q 542 222 533 227 q 559 212 551 217 q 573 201 567 208 q 579 180 579 194 q 524 126 579 126 q 493 133 505 126 q 465 142 481 140 q 362 157 414 153 q 258 161 311 161 z "},"A":{"ha":690,"x_min":34,"x_max":677,"o":"m 34 85 q 45 247 34 167 q 64 407 56 327 q 65 425 64 411 q 68 456 66 439 q 73 486 71 472 q 75 505 75 500 l 75 510 l 132 933 q 140 981 129 960 q 183 1002 152 1002 q 239 994 217 1006 q 277 960 262 981 q 301 916 292 940 q 321 871 311 891 q 338 826 328 852 q 363 761 349 800 q 397 665 377 722 q 442 526 416 608 l 448 521 q 484 538 457 526 q 539 564 510 551 q 594 590 568 578 q 631 606 620 602 q 638 611 632 609 q 647 614 644 613 l 650 614 q 670 604 663 614 q 677 585 677 594 q 670 559 677 570 q 654 539 663 548 q 635 522 646 530 q 620 505 625 514 l 486 437 q 480 426 480 430 q 492 392 480 415 q 510 355 503 369 q 524 326 514 347 q 544 281 533 304 q 565 237 555 258 q 579 208 575 216 l 579 203 q 530 155 579 155 q 499 158 515 155 q 475 178 483 161 l 384 372 l 372 372 q 262 294 320 332 q 142 229 203 256 q 131 130 133 180 q 132 30 129 80 q 110 7 121 15 q 80 0 99 0 q 52 9 61 0 q 38 31 42 18 q 34 58 34 43 q 34 85 34 73 m 155 349 q 234 392 195 365 q 308 442 273 419 q 318 448 312 445 q 330 454 324 450 q 343 464 335 458 l 343 475 l 218 830 l 213 836 q 203 789 209 827 q 189 691 197 751 q 173 552 182 631 q 155 384 164 473 l 155 349 z "},"B":{"ha":699,"x_min":30,"x_max":675,"o":"m 119 275 q 113 395 117 332 q 103 515 110 457 q 85 516 98 515 q 61 521 73 517 q 39 531 49 525 q 30 547 30 537 q 37 577 30 562 q 56 607 45 593 q 78 633 66 621 q 98 652 90 644 l 98 859 q 115 885 98 876 q 148 894 133 894 q 197 876 186 894 q 209 836 208 859 q 210 793 210 814 q 224 768 209 773 q 270 793 248 780 q 313 818 292 807 q 356 836 334 829 q 404 842 378 842 q 431 840 416 842 q 457 831 445 837 q 477 814 469 825 q 486 788 486 804 q 477 733 486 758 q 457 684 469 708 q 431 637 445 661 q 407 590 418 614 q 427 588 412 590 q 458 585 442 586 q 490 581 475 583 q 510 579 505 579 q 561 566 532 575 q 615 540 590 556 q 658 501 640 524 q 675 450 675 479 q 664 388 675 419 q 636 332 652 357 q 620 309 631 324 q 598 279 609 294 q 578 253 587 264 q 568 240 570 241 l 309 16 q 286 2 296 5 q 263 -1 277 -1 q 235 1 254 -1 q 198 7 217 3 q 165 18 179 11 q 149 35 151 24 l 119 264 l 119 275 m 252 119 l 254 119 q 274 123 260 119 q 292 132 288 127 q 310 146 297 136 q 338 170 323 157 q 366 193 353 182 q 385 208 378 203 q 440 254 408 227 q 500 311 472 281 q 549 374 529 342 q 568 438 568 407 q 555 470 568 458 q 522 488 541 481 q 481 497 502 495 q 445 499 460 499 q 392 490 416 499 q 346 465 368 480 q 304 432 324 450 q 264 396 285 414 q 253 388 260 392 q 239 378 245 384 q 227 368 232 373 q 224 355 222 362 l 252 119 m 355 734 q 346 728 353 732 q 332 719 339 724 q 319 709 326 713 q 309 704 312 705 q 295 693 309 704 q 264 669 281 682 q 233 644 247 655 q 218 631 218 632 l 218 526 l 224 526 q 232 536 224 526 q 252 558 240 545 q 274 585 263 571 q 292 606 285 598 q 307 628 296 613 q 321 647 319 643 q 332 667 326 655 q 345 691 339 680 q 356 711 351 703 q 361 720 361 720 l 361 734 l 355 734 z "},"C":{"ha":585,"x_min":31,"x_max":559,"o":"m 31 208 q 57 416 47 343 q 71 525 66 490 q 76 572 76 566 q 102 663 88 614 q 138 754 115 712 q 195 825 160 796 q 286 853 231 853 q 330 850 311 853 q 368 838 350 846 q 402 819 385 830 q 438 791 419 807 q 454 776 452 779 q 456 760 456 773 q 444 726 456 742 q 408 709 431 709 q 377 718 389 709 q 353 739 365 727 q 329 759 342 750 q 296 768 316 768 q 258 756 274 768 q 230 727 241 745 q 212 688 218 709 q 203 647 206 666 l 140 213 q 139 200 140 210 q 138 184 138 190 q 138 161 138 175 q 141 132 138 146 q 151 108 144 118 q 171 98 157 98 q 186 103 179 98 q 298 204 251 146 q 387 327 345 262 q 394 340 388 330 q 406 361 400 350 q 418 385 412 373 q 426 401 423 396 q 438 438 434 419 q 448 473 442 457 q 467 500 454 490 q 505 510 479 510 q 541 494 524 510 q 559 456 559 477 l 559 453 q 471 273 525 355 q 353 109 418 190 q 259 30 312 60 q 141 0 206 0 l 134 0 q 52 68 73 23 q 31 175 31 114 l 31 208 z "},"D":{"ha":709,"x_min":24,"x_max":680,"o":"m 191 43 q 200 65 191 56 q 209 85 209 75 q 203 92 209 88 q 197 98 198 96 q 182 144 183 118 q 180 193 180 170 q 182 439 180 317 q 183 686 183 562 q 157 680 170 686 q 132 667 145 674 q 103 653 118 659 q 71 647 88 647 l 49 647 q 35 654 46 651 q 24 663 24 658 l 24 704 q 36 715 31 708 q 43 728 41 723 l 180 796 l 186 803 q 190 864 183 841 q 237 887 197 887 q 261 883 248 887 q 286 872 274 879 q 303 854 297 865 q 307 830 309 844 q 441 820 374 827 q 560 787 507 812 q 646 713 613 762 q 680 579 680 665 q 650 425 680 502 q 564 292 620 347 l 307 35 q 275 8 288 16 q 237 0 262 0 q 204 12 217 0 q 191 43 191 23 m 307 165 l 301 165 l 312 172 q 322 181 313 174 q 342 199 331 189 q 363 218 353 209 q 381 235 374 228 q 447 304 412 267 q 510 382 481 340 q 557 469 538 423 q 575 564 575 514 q 557 645 575 612 q 511 699 540 678 q 442 730 481 720 q 358 739 403 739 q 334 737 354 739 q 307 728 315 735 l 307 165 z "},"E":{"ha":572,"x_min":31,"x_max":547,"o":"m 106 30 q 85 132 92 84 q 76 235 79 180 q 76 288 75 266 q 71 338 77 311 q 64 346 69 343 q 55 353 60 349 q 46 363 50 357 q 42 382 42 369 q 47 401 42 393 q 56 417 52 410 q 66 433 61 425 q 71 454 71 442 l 71 475 q 68 521 71 488 q 62 590 65 553 q 58 659 60 627 q 54 704 56 692 q 42 745 53 727 q 31 785 31 762 q 49 846 31 829 q 111 864 66 864 q 127 856 121 864 q 141 848 133 848 l 146 848 q 159 851 151 849 q 170 853 167 853 q 347 929 283 902 q 444 968 411 956 q 488 982 476 981 q 507 979 499 983 q 530 969 524 977 q 536 947 536 962 q 532 920 536 933 q 513 899 528 906 l 335 814 l 330 808 l 180 745 q 171 731 172 742 q 170 713 170 720 q 172 674 170 703 q 178 615 175 646 q 184 561 180 585 q 189 537 187 537 l 190 537 q 191 538 190 537 q 239 576 206 549 q 305 629 271 602 q 365 677 339 656 q 392 699 391 699 q 419 684 407 699 q 431 652 431 669 q 425 616 431 636 q 403 585 418 595 l 191 396 q 191 389 191 396 q 191 374 191 382 q 190 357 190 366 q 190 343 190 349 q 197 246 190 294 q 203 149 203 198 l 209 149 q 221 160 210 149 q 237 178 232 171 q 250 195 240 182 q 285 240 260 209 q 350 323 309 271 q 454 453 391 374 q 470 469 460 458 q 483 480 480 480 q 500 484 487 484 q 518 480 513 483 q 536 465 525 477 q 547 442 547 453 q 530 399 547 426 q 490 345 513 373 q 444 290 467 316 q 408 247 420 263 q 363 174 389 217 q 305 93 336 132 q 237 26 274 54 q 157 -1 199 -1 q 128 5 137 -1 q 106 30 119 12 z "},"F":{"ha":579,"x_min":35,"x_max":563,"o":"m 46 338 q 50 358 46 350 q 58 374 53 366 q 66 389 62 381 q 69 407 69 396 q 64 488 69 448 q 52 568 58 528 q 41 649 46 609 q 35 730 35 689 q 45 769 35 758 q 85 780 56 780 q 124 768 109 780 q 155 739 140 757 l 161 739 q 197 760 171 745 q 252 791 222 774 q 307 821 281 807 q 345 842 334 836 q 389 863 368 854 q 437 871 411 871 q 457 867 450 871 q 464 845 464 863 l 464 842 q 445 798 458 815 q 413 769 431 781 q 375 748 395 757 q 338 728 355 739 q 269 682 297 700 q 222 654 241 665 q 191 635 202 643 q 172 620 179 628 q 172 604 172 616 q 171 590 171 593 q 172 509 171 549 q 189 430 174 468 l 505 579 q 519 584 514 583 q 533 585 524 585 q 551 581 538 585 q 563 570 563 576 q 542 514 563 538 q 491 469 521 490 q 429 434 461 449 q 372 407 396 419 q 359 403 366 404 q 350 396 353 401 l 208 321 q 200 314 201 317 q 199 304 199 311 q 200 297 199 301 q 201 292 201 293 l 229 69 q 214 18 233 37 q 165 -1 194 -1 q 152 1 160 -1 q 136 6 144 3 q 121 16 127 9 q 114 30 115 22 l 80 297 q 75 307 80 302 q 63 315 69 311 q 52 324 57 319 q 46 338 46 330 z "},"G":{"ha":680,"x_min":24,"x_max":650,"o":"m 507 -118 q 478 55 487 -37 q 467 227 469 146 q 446 205 454 220 q 432 176 438 191 q 419 144 426 160 q 403 118 412 129 q 335 54 372 83 q 248 24 298 24 q 168 42 208 24 q 96 89 127 60 q 44 156 64 118 q 24 236 24 194 q 43 355 24 294 q 90 467 62 415 q 106 494 95 476 q 131 532 118 513 q 155 566 144 551 q 170 586 165 582 l 317 742 q 393 787 347 773 q 477 804 438 802 q 511 798 498 807 q 525 769 525 789 q 512 744 525 753 q 481 730 499 735 q 445 720 464 724 q 415 708 426 715 q 285 577 343 650 q 180 426 227 505 q 149 335 165 378 q 133 240 133 292 q 134 222 133 236 q 134 203 134 208 q 176 144 148 171 q 241 117 203 117 q 281 129 260 117 q 312 159 301 141 q 331 186 317 165 q 359 229 345 206 q 386 273 373 252 q 403 301 399 293 q 414 322 407 309 q 428 347 422 335 q 439 370 434 359 q 444 381 444 380 l 444 387 q 406 378 425 381 q 366 374 387 374 q 340 376 354 374 q 313 384 326 378 q 291 399 300 389 q 282 425 282 408 q 283 441 282 431 q 289 456 285 450 q 318 470 300 465 q 357 477 336 475 q 399 481 378 479 q 438 490 420 483 q 473 504 453 495 q 516 522 494 513 q 562 537 538 530 q 604 547 585 544 q 615 544 608 547 q 631 537 623 541 q 644 528 639 533 q 650 519 650 524 q 633 478 650 490 q 591 450 617 467 q 588 342 595 396 q 581 233 581 288 q 583 100 581 168 q 597 -31 586 33 q 601 -45 598 -34 q 607 -69 604 -57 q 613 -92 610 -81 q 616 -106 616 -103 l 616 -109 q 602 -146 616 -127 q 568 -164 587 -164 q 530 -151 548 -164 q 507 -118 511 -137 z "},"H":{"ha":498,"x_min":30,"x_max":458,"o":"m 178 349 l 174 349 q 176 239 174 293 q 178 129 178 186 q 177 97 178 113 q 172 68 176 81 q 158 48 168 56 q 127 41 148 41 q 75 80 90 41 q 66 205 68 144 q 58 332 65 267 q 43 369 56 351 q 30 403 30 387 q 39 423 30 415 q 47 446 47 431 q 41 656 47 552 q 35 864 35 760 l 35 887 q 54 903 45 901 q 80 906 64 906 q 130 882 119 906 q 142 825 141 859 l 155 464 q 159 451 156 460 q 170 442 163 442 q 205 447 179 442 q 259 458 231 452 q 311 471 288 464 q 338 486 334 479 q 338 519 338 495 q 339 553 339 544 q 338 666 339 610 q 332 779 336 722 q 328 824 332 788 q 320 902 324 860 q 313 980 316 944 q 309 1025 309 1016 q 308 1034 308 1027 q 308 1044 308 1042 q 321 1070 308 1062 q 349 1078 334 1078 q 397 1058 381 1078 q 419 1008 412 1038 q 423 958 420 993 q 430 882 426 922 q 437 805 434 841 q 442 755 441 769 l 442 734 q 444 707 442 727 q 448 681 446 688 l 448 125 q 456 87 454 102 q 458 52 458 72 q 450 17 458 35 q 419 -1 441 -1 q 385 8 400 -1 q 357 33 369 18 q 339 66 346 47 q 332 103 332 84 l 332 382 l 178 349 z "},"I":{"ha":209,"x_min":31,"x_max":175,"o":"m 31 768 q 51 787 42 783 q 76 792 60 792 q 117 780 98 792 q 140 745 137 768 q 146 668 145 707 q 146 591 146 629 q 144 513 145 552 q 146 437 144 475 q 163 245 152 345 q 175 54 175 146 q 164 14 175 27 q 122 0 153 0 q 83 18 96 0 q 63 60 69 35 q 56 109 57 84 q 54 149 54 134 q 52 195 54 160 q 48 276 50 229 q 43 375 46 323 q 38 474 41 427 q 33 555 35 521 q 31 601 31 590 l 31 685 l 31 768 z "},"J":{"ha":438,"x_min":14,"x_max":399,"o":"m 14 346 q 23 380 14 363 q 54 396 33 396 q 75 388 66 396 q 89 368 83 380 q 100 345 95 357 q 113 327 106 334 q 146 292 122 319 q 194 235 170 264 q 239 180 218 205 q 262 149 259 155 q 270 140 264 146 q 278 132 275 134 l 283 137 q 284 151 283 138 q 285 178 285 163 q 285 208 285 193 q 285 233 285 224 q 281 465 285 350 q 278 696 278 579 l 278 887 q 295 915 282 906 q 326 924 308 924 q 363 916 345 924 q 387 887 381 907 q 391 553 384 718 q 399 221 399 389 q 399 163 399 201 q 393 90 399 126 q 370 26 387 53 q 320 -1 353 -1 q 313 -1 317 -1 q 307 0 308 0 q 282 14 300 3 q 262 30 264 24 l 38 281 q 18 313 22 298 q 14 346 14 327 z "},"K":{"ha":803,"x_min":35,"x_max":796,"o":"m 103 194 q 75 216 88 201 q 62 245 62 231 q 74 278 62 264 q 85 311 85 292 q 78 373 85 342 q 75 437 71 404 l 35 819 l 35 822 q 49 856 35 838 q 80 871 62 873 q 92 869 84 871 q 109 863 99 867 q 125 856 118 860 q 137 848 133 852 q 146 831 140 845 q 155 814 153 818 q 165 726 165 774 q 167 636 164 678 q 170 589 168 621 q 176 526 172 557 q 183 470 179 494 q 191 446 187 446 l 194 448 q 315 591 263 517 q 401 755 368 665 q 404 766 401 758 q 410 783 407 774 q 414 801 412 792 q 418 814 416 810 q 419 822 418 814 q 423 839 420 830 q 429 856 426 848 q 437 864 433 864 l 499 864 q 515 857 509 864 q 525 841 521 850 q 530 823 529 831 q 532 808 532 814 q 530 802 532 807 q 526 796 528 798 l 526 785 q 503 716 515 747 q 477 655 491 685 q 445 595 463 625 q 407 532 427 566 q 385 508 400 521 q 366 480 370 495 l 241 332 l 224 297 l 229 297 q 341 319 288 312 q 448 328 395 326 q 555 331 500 331 q 670 332 609 331 q 680 333 671 332 q 696 335 688 334 q 711 337 704 336 q 722 338 719 338 l 734 338 q 767 332 749 338 q 791 308 785 327 q 786 276 796 293 q 762 252 776 259 q 748 250 758 251 q 727 246 738 248 q 707 242 716 244 q 693 240 697 240 l 675 240 q 604 239 647 239 q 522 237 562 239 q 425 235 476 236 l 224 194 l 224 186 q 233 127 224 156 q 241 69 241 99 q 228 21 241 42 q 183 0 214 0 q 148 18 167 0 q 125 52 129 35 l 103 194 l 103 194 z "},"L":{"ha":606,"x_min":38,"x_max":598,"o":"m 43 210 q 47 418 43 315 q 50 627 50 521 q 44 749 50 688 q 38 871 38 810 q 50 903 38 890 q 80 917 61 917 q 129 903 113 917 q 152 869 145 890 q 159 823 159 849 q 159 773 159 798 q 159 746 159 768 q 161 699 160 724 q 163 652 163 674 q 164 625 164 631 l 164 581 q 161 406 164 492 q 159 229 159 319 l 159 172 q 161 154 159 165 q 164 142 163 142 l 175 142 l 496 270 q 515 280 507 279 q 534 281 524 281 q 552 280 541 281 q 573 276 563 279 q 591 267 583 273 q 598 248 598 260 q 564 194 598 217 q 475 151 521 171 q 381 119 429 132 l 374 114 q 253 62 309 96 q 136 0 197 28 l 123 0 q 69 24 87 0 q 46 82 52 49 q 42 151 41 115 q 43 210 43 187 z "},"M":{"ha":793,"x_min":34,"x_max":762,"o":"m 46 41 q 39 341 43 191 q 34 642 34 491 q 34 680 34 652 q 35 739 34 708 q 35 798 35 770 q 35 836 35 825 q 52 870 41 857 q 85 883 62 883 q 126 869 109 883 q 155 836 144 854 l 350 458 q 359 442 351 456 q 372 423 368 429 q 376 420 373 422 q 378 418 378 419 l 384 430 l 499 836 q 517 878 511 854 q 531 925 524 902 q 550 968 538 948 q 585 1002 562 989 l 595 1002 q 650 981 632 1002 q 674 930 667 960 q 680 866 681 899 q 681 808 680 833 q 683 772 681 799 q 688 708 685 745 q 693 630 690 671 q 698 552 696 589 q 702 488 700 515 q 704 453 704 461 l 704 448 q 709 407 705 435 q 718 347 713 378 q 727 286 723 315 q 734 247 731 258 q 739 227 735 240 q 747 197 742 213 q 755 168 751 182 q 762 149 760 155 q 747 101 757 118 q 703 84 736 84 q 690 85 699 84 q 681 85 682 85 q 665 99 677 88 q 652 114 654 110 l 631 189 l 590 498 l 590 510 q 589 562 589 534 q 588 618 589 590 q 585 675 587 647 q 574 728 582 704 l 567 720 l 469 327 q 467 295 468 312 q 460 262 465 278 q 444 236 454 247 q 412 224 433 225 q 395 227 404 222 q 376 237 385 231 q 359 253 366 244 q 350 270 351 262 l 178 544 l 149 601 l 149 484 q 153 322 149 401 q 156 160 156 243 q 156 136 156 153 q 155 100 156 119 q 155 64 155 81 q 155 41 155 47 q 139 12 149 24 q 110 0 129 0 q 70 9 84 0 q 46 41 56 18 z "},"N":{"ha":604,"x_min":31,"x_max":575,"o":"m 31 170 q 35 336 31 252 q 42 503 38 419 q 48 669 46 586 q 47 836 50 753 q 62 858 52 850 q 88 865 73 865 q 132 855 117 865 q 153 827 146 845 q 161 788 160 810 q 164 745 163 766 q 203 687 180 715 q 243 631 225 659 q 245 625 243 629 q 248 620 247 620 q 269 588 256 608 q 294 550 282 568 q 315 518 307 532 q 324 505 324 505 l 330 498 l 408 384 q 418 378 414 378 l 420 378 q 392 672 403 522 q 381 968 381 822 l 381 1036 q 418 1054 392 1054 q 456 1042 444 1054 q 472 1011 468 1029 q 476 972 476 993 q 477 933 476 951 q 479 928 477 932 q 482 913 480 925 q 486 878 484 902 q 492 812 488 854 q 498 707 495 770 q 507 551 502 643 l 507 526 l 553 224 q 565 191 555 213 q 575 156 575 168 q 559 110 575 127 q 513 92 543 92 q 502 96 509 92 q 488 103 495 99 q 475 112 481 107 q 467 119 469 117 l 248 430 q 245 435 247 430 q 243 442 244 439 q 221 473 235 454 q 195 509 208 491 q 174 541 183 528 q 164 556 164 555 l 157 562 q 146 302 151 433 q 146 41 142 171 q 130 12 144 24 q 100 0 115 0 q 58 14 73 0 q 31 52 42 28 l 31 170 z "},"O":{"ha":448,"x_min":28,"x_max":414,"o":"m 30 240 q 30 283 31 248 q 29 371 28 319 q 32 486 30 423 q 41 612 34 548 q 63 734 49 675 q 100 837 77 793 q 140 888 109 873 q 228 905 171 902 q 290 886 264 905 q 334 839 316 867 q 366 779 353 811 q 391 720 380 746 l 391 713 q 405 633 400 686 q 412 520 410 579 q 414 407 414 461 q 414 324 414 353 q 403 227 414 283 q 368 121 392 171 q 307 35 345 71 q 216 0 269 0 q 136 23 171 0 q 78 82 102 46 q 42 160 54 118 q 30 240 30 202 m 161 149 q 177 119 164 134 q 208 103 190 103 l 218 103 q 293 222 275 155 q 311 363 311 289 q 309 418 311 381 q 304 500 308 454 q 296 595 301 545 q 282 690 290 646 q 263 766 274 734 q 237 811 252 799 q 234 806 236 810 q 232 800 232 802 q 180 704 203 765 q 146 559 157 643 q 136 372 134 476 q 161 149 138 269 z "},"P":{"ha":713,"x_min":24,"x_max":753,"o":"m 191 270 q 191 324 193 297 q 186 378 189 351 q 182 400 184 385 q 180 418 180 415 q 178 424 180 419 q 175 430 175 429 l 178 433 q 180 437 182 437 l 180 699 l 175 699 q 137 658 159 680 q 85 636 115 636 q 44 651 64 636 q 24 690 24 666 l 24 693 q 26 697 24 694 q 28 703 27 700 q 31 709 30 707 l 183 842 l 183 917 q 199 938 183 930 q 227 945 216 945 q 259 937 244 945 q 289 928 274 928 q 313 936 302 928 q 335 951 324 944 q 435 998 387 982 q 543 1015 483 1015 q 604 1010 568 1015 q 673 993 640 1005 q 730 959 707 981 q 753 903 753 937 q 728 787 753 842 q 661 688 704 731 q 554 591 604 633 q 444 505 505 548 q 441 501 442 503 q 438 498 439 499 l 307 407 q 300 387 300 401 q 300 369 300 373 q 304 291 300 330 q 315 213 309 252 q 325 134 320 174 q 330 56 330 95 q 319 17 330 34 q 283 0 309 0 q 243 16 264 0 q 220 52 222 31 l 191 270 m 300 532 l 547 720 q 580 752 563 732 q 611 794 597 772 q 635 841 625 817 q 644 887 644 865 q 633 908 644 901 q 606 919 621 916 q 576 922 591 922 q 551 922 560 922 q 439 895 490 922 q 342 836 388 867 q 331 828 339 833 q 315 817 323 823 q 300 806 307 811 q 294 796 294 800 l 294 538 l 300 532 z "},"Q":{"ha":704,"x_min":35,"x_max":792,"o":"m 437 109 q 411 138 423 123 q 384 165 399 153 l 381 167 q 360 144 376 167 q 319 94 345 122 q 261 44 294 66 q 186 22 228 22 q 117 45 145 22 q 70 102 88 68 q 43 176 52 137 q 35 248 35 216 q 39 288 35 269 q 41 326 42 307 q 55 388 45 343 q 77 484 65 433 q 99 579 88 534 q 114 642 110 624 q 122 669 115 650 q 136 710 129 688 q 151 751 144 732 q 160 779 157 770 q 170 789 167 784 q 177 799 174 795 q 185 806 180 803 q 199 808 190 808 q 242 799 220 808 q 270 766 264 789 q 270 755 273 755 q 275 745 267 754 q 315 753 294 751 q 354 755 335 755 q 412 733 391 755 q 443 679 433 711 q 456 612 453 647 q 458 552 458 578 q 457 522 458 540 q 454 486 456 505 q 452 448 453 467 q 453 418 452 430 l 425 286 q 435 273 423 286 q 453 251 446 259 q 460 243 454 250 q 473 231 467 237 q 484 219 479 225 q 491 212 490 213 q 496 206 494 210 q 499 199 498 202 l 779 -92 q 784 -102 780 -94 q 791 -114 788 -110 l 791 -115 q 792 -118 791 -117 q 777 -157 792 -141 q 742 -172 762 -172 q 718 -170 731 -172 q 699 -161 705 -168 l 437 109 m 149 270 q 149 210 142 239 q 167 155 156 182 q 174 137 170 149 q 186 125 179 125 q 215 138 198 125 q 248 169 232 151 q 275 207 264 187 q 286 240 286 227 q 275 269 286 258 q 263 297 263 279 q 271 326 263 317 q 289 336 278 334 q 311 340 300 339 q 332 349 323 342 q 345 378 339 354 q 356 431 351 403 q 363 486 361 460 q 366 524 366 513 q 366 557 366 538 q 365 596 366 576 q 360 635 363 616 q 350 670 357 654 l 342 670 q 292 655 315 670 q 253 618 270 640 q 222 572 236 597 q 199 526 209 547 q 191 507 197 519 q 189 486 186 495 l 149 270 z "},"R":{"ha":1042,"x_min":34,"x_max":1031,"o":"m 103 315 q 90 343 95 332 q 85 369 85 354 q 89 391 85 381 q 92 414 92 401 q 90 469 92 444 q 85 526 88 495 q 76 533 84 530 q 58 541 68 536 q 41 555 49 545 q 34 582 34 564 q 41 610 34 598 q 57 631 49 621 q 73 653 65 642 q 80 681 80 665 q 79 706 80 688 q 77 745 77 724 q 75 783 76 765 q 75 808 75 802 l 75 811 l 75 814 q 83 834 80 826 q 91 846 87 842 q 102 852 95 850 q 119 854 109 854 q 161 844 148 854 q 180 819 175 833 q 187 792 186 804 q 194 779 189 780 l 292 864 l 297 864 q 397 912 345 895 q 509 929 450 929 q 551 925 526 929 q 599 911 576 921 q 637 884 621 901 q 652 844 652 868 q 646 788 652 817 q 627 732 639 760 q 600 679 616 704 q 567 636 585 654 q 480 560 560 621 q 241 378 400 499 l 892 338 q 930 336 906 336 q 976 331 954 335 q 1015 315 998 327 q 1031 281 1031 304 q 1027 261 1031 269 q 1019 249 1024 254 q 1008 240 1015 244 q 997 229 1002 236 l 974 229 l 951 229 q 895 236 924 232 q 827 245 865 240 q 736 256 788 251 q 613 266 685 262 q 446 273 541 270 q 224 275 350 275 q 220 271 222 275 q 218 264 218 267 q 227 163 218 213 q 236 65 236 114 q 234 44 236 56 q 227 22 232 33 q 213 5 221 12 q 193 -1 205 -1 q 174 2 184 -1 q 153 12 163 5 q 134 27 142 19 q 125 46 126 35 l 103 315 m 194 614 q 195 551 194 581 q 199 486 197 521 l 203 486 q 210 488 205 486 q 237 505 216 491 q 304 550 259 519 q 430 636 349 581 q 465 669 446 646 q 500 719 484 692 q 528 772 517 746 q 538 817 538 799 q 526 830 538 830 q 503 830 513 830 q 457 823 483 830 q 395 796 431 817 q 310 738 359 776 q 194 636 260 700 l 194 614 z "},"S":{"ha":745,"x_min":22,"x_max":716,"o":"m 235 49 q 283 94 256 79 q 337 118 309 109 q 393 136 365 127 q 448 165 420 145 q 490 190 463 174 q 543 226 517 206 q 589 264 570 245 q 609 297 609 283 q 608 298 609 298 q 605 300 605 298 l 602 302 q 581 309 595 305 q 563 315 566 313 q 281 351 388 335 q 117 384 175 366 q 41 425 60 401 q 22 483 22 448 q 27 513 22 496 q 40 545 33 529 q 56 575 47 562 q 71 597 64 589 q 127 646 92 624 q 203 684 163 667 q 286 712 244 700 q 361 734 327 724 q 437 752 399 736 q 514 773 476 768 q 545 758 533 773 q 557 727 557 743 q 549 692 557 704 q 526 675 540 681 q 494 665 511 669 q 458 658 476 662 q 429 650 448 655 q 391 640 410 646 q 357 631 372 635 q 339 625 342 627 q 260 592 297 608 q 195 560 222 576 q 151 526 167 544 q 137 486 136 507 l 137 484 q 198 456 151 465 q 310 439 245 446 q 446 426 374 433 q 576 406 517 419 q 675 369 636 392 q 716 307 715 346 q 710 271 716 292 q 693 240 704 251 q 612 161 659 202 q 511 86 566 121 q 399 28 457 52 q 286 0 342 4 q 251 14 267 0 q 235 49 235 28 z "},"T":{"ha":609,"x_min":14,"x_max":697,"o":"m 296 595 q 292 623 294 606 q 288 656 290 640 q 285 682 286 671 q 283 693 283 693 l 273 693 l 118 647 q 96 636 111 636 q 72 636 80 636 q 33 653 53 636 q 14 690 14 670 q 24 720 14 705 q 49 739 34 734 l 267 808 q 283 839 271 823 q 313 854 294 854 q 345 845 332 854 q 374 830 358 836 q 415 838 387 831 q 475 852 444 845 q 536 867 507 860 q 575 876 564 873 q 600 883 591 879 q 625 887 608 887 q 673 873 648 887 q 697 833 697 860 q 685 802 697 815 q 655 785 673 789 l 397 720 l 397 708 q 405 625 397 666 q 410 544 412 585 l 456 125 l 456 95 q 455 62 456 79 q 450 31 454 45 q 434 9 445 18 q 401 0 423 0 q 367 14 385 0 q 347 46 349 27 l 296 585 l 296 595 z "},"U":{"ha":572,"x_min":53,"x_max":564,"o":"m 403 191 q 367 127 388 163 q 318 60 346 92 q 258 7 290 28 q 190 -15 227 -15 q 117 12 144 -15 q 75 79 90 39 q 57 163 61 119 q 53 243 53 208 l 53 278 q 56 311 54 289 q 62 360 58 332 q 68 418 65 388 q 74 477 71 449 q 79 526 77 505 q 83 559 81 548 q 79 587 77 572 q 89 612 81 601 q 109 631 96 624 q 136 639 121 639 q 150 636 140 639 q 171 628 160 633 q 190 616 182 623 q 198 605 198 610 l 198 553 q 174 320 179 407 q 170 185 168 233 q 178 119 171 137 q 191 95 184 102 q 223 92 208 88 q 260 117 239 95 q 313 184 282 138 q 387 305 343 229 q 393 320 389 309 q 397 335 396 331 q 397 515 395 425 q 403 696 399 606 q 420 718 408 709 q 446 726 433 726 q 463 722 452 726 q 484 710 473 718 q 503 694 495 703 q 511 678 511 686 l 511 278 q 526 155 521 217 q 541 33 532 94 q 545 5 541 26 q 552 -41 548 -16 q 559 -85 556 -65 q 564 -111 563 -106 l 564 -127 q 511 -180 564 -176 q 473 -161 488 -183 q 448 -102 457 -138 q 432 -22 438 -66 q 422 65 426 23 q 414 142 418 107 q 403 191 410 176 z "},"V":{"ha":708,"x_min":15,"x_max":675,"o":"m 57 647 q 28 682 42 658 q 15 726 15 707 q 31 757 15 746 q 65 768 47 768 q 102 760 87 768 q 131 732 117 751 q 163 681 145 713 q 210 599 182 648 q 282 481 239 549 q 389 321 326 412 q 404 295 393 311 q 418 275 415 279 l 423 286 l 498 567 l 503 579 l 556 768 q 567 811 552 792 q 605 830 582 830 q 652 814 628 830 q 675 773 675 799 l 675 768 l 521 189 q 518 172 521 186 q 513 140 515 157 q 507 106 510 123 q 503 80 505 90 q 501 54 502 68 q 496 28 500 39 q 481 8 491 16 q 453 0 472 0 q 404 18 420 0 q 380 60 388 35 q 366 113 372 85 q 349 160 361 141 l 57 647 z "},"[":{"ha":559,"x_min":30,"x_max":533,"o":"m 64 -57 q 69 53 64 -1 q 75 163 75 107 q 71 263 75 213 q 64 363 66 313 q 61 492 61 429 q 58 621 61 556 q 51 760 54 688 q 41 895 47 833 q 34 940 38 918 q 30 985 30 962 l 30 994 q 42 1009 31 998 q 58 1023 53 1020 q 106 1035 77 1032 q 155 1046 136 1038 q 248 1087 202 1066 q 338 1131 294 1108 q 357 1142 342 1142 q 382 1142 372 1142 q 419 1108 419 1142 q 411 1084 419 1095 q 391 1065 403 1073 q 367 1050 380 1057 q 345 1040 354 1044 l 149 954 l 144 948 l 144 929 l 144 902 q 174 448 159 674 q 183 -8 190 221 q 184 -21 182 -12 q 189 -33 186 -30 l 198 -33 l 208 -33 l 442 72 q 459 74 450 69 q 477 79 468 79 q 517 68 500 79 q 533 34 533 58 q 532 14 533 26 q 521 -3 530 1 l 155 -152 q 146 -153 151 -153 l 136 -153 q 78 -125 92 -153 q 64 -57 64 -96 z "},"\\":{"ha":764,"x_min":14,"x_max":747,"o":"m 14 1192 l 14 1194 q 33 1230 14 1217 q 72 1242 53 1242 q 109 1232 95 1242 q 134 1203 123 1222 l 713 125 q 740 90 732 104 q 747 49 747 75 q 736 12 747 24 q 697 -1 724 -1 q 661 6 681 -1 q 633 30 642 14 l 14 1192 z "},"]":{"ha":570,"x_min":16,"x_max":544,"o":"m 187 -77 q 180 -56 186 -72 q 171 -37 174 -41 l 171 -34 q 190 -8 171 -18 q 234 7 209 1 q 282 14 259 12 q 313 15 305 15 q 337 15 319 15 q 376 14 355 15 q 414 13 396 14 q 437 12 431 12 l 437 23 q 427 119 435 57 q 406 288 419 180 q 372 559 392 396 q 326 958 351 722 q 326 969 326 960 q 327 988 327 978 q 326 1007 327 998 q 326 1020 326 1016 q 325 1035 326 1025 q 323 1054 324 1044 q 321 1070 323 1063 q 320 1077 320 1077 l 313 1082 l 136 1065 q 128 1061 134 1063 q 119 1059 122 1059 q 91 1061 109 1059 q 57 1069 73 1063 q 28 1085 41 1076 q 16 1111 16 1095 q 39 1152 16 1142 q 85 1162 61 1161 q 117 1164 92 1162 q 172 1168 142 1166 q 225 1173 201 1171 q 256 1175 250 1175 q 309 1181 282 1176 q 359 1185 336 1185 q 409 1178 385 1185 q 441 1141 433 1171 q 440 1133 441 1139 q 439 1118 439 1126 q 437 1103 438 1109 q 435 1095 435 1096 l 435 1065 q 437 1010 435 1039 q 444 934 439 981 q 457 815 449 887 q 477 633 465 743 q 505 366 490 522 q 543 -8 521 209 q 543 -15 543 -9 q 544 -23 544 -20 q 534 -57 544 -42 q 506 -72 525 -72 q 457 -68 480 -72 q 408 -65 434 -65 q 345 -68 377 -65 q 281 -77 312 -71 q 272 -79 278 -77 q 259 -83 266 -81 q 247 -87 252 -85 q 240 -88 241 -88 q 230 -87 237 -88 q 214 -85 222 -87 q 199 -82 206 -84 q 187 -77 191 -80 z "},"^":{"ha":480,"x_min":38,"x_max":429,"o":"m 156 1114 q 161 1125 157 1116 q 168 1143 164 1134 q 176 1162 172 1153 q 182 1175 180 1171 q 201 1187 187 1185 q 229 1190 216 1190 q 248 1187 240 1190 q 264 1177 256 1185 q 280 1154 269 1171 q 305 1118 292 1137 q 330 1083 319 1100 q 346 1061 342 1066 q 351 1055 347 1059 q 355 1048 355 1050 q 369 1029 359 1043 q 389 998 378 1015 q 410 967 400 982 q 423 947 419 952 q 428 937 427 940 q 429 926 429 933 q 416 906 429 911 q 384 901 404 901 q 352 908 366 901 q 331 926 338 916 l 240 1061 l 235 1057 q 227 1042 231 1051 q 212 1013 222 1032 q 184 964 202 994 q 136 884 167 933 q 121 878 133 882 q 106 873 110 873 q 85 877 98 873 q 61 886 72 880 q 44 899 50 891 q 43 916 38 906 l 156 1114 z "},"_":{"ha":808,"x_min":23,"x_max":787,"o":"m 23 54 q 28 75 23 61 q 41 92 34 90 l 726 225 q 739 224 728 225 q 751 224 749 224 q 763 209 757 214 q 774 197 769 203 q 783 182 780 191 q 787 157 787 174 q 770 129 787 141 q 739 114 754 117 l 109 0 l 107 0 q 60 11 75 0 q 23 46 45 22 l 23 54 z "},"a":{"ha":541,"x_min":24,"x_max":502,"o":"m 347 378 q 319 326 335 357 q 286 261 304 296 q 248 192 269 227 q 204 129 227 157 q 157 81 182 100 q 107 57 133 61 q 83 59 96 57 q 56 66 69 61 q 33 79 42 71 q 24 103 24 88 q 45 355 26 241 q 104 554 64 468 q 209 697 145 640 q 363 779 273 754 q 374 779 366 779 q 384 780 381 780 q 443 743 425 781 q 470 621 461 704 q 482 406 479 537 q 496 92 486 275 q 501 66 500 77 q 502 41 502 56 q 490 10 502 20 q 458 0 477 0 q 403 22 419 0 q 381 80 387 43 q 379 102 381 81 q 374 149 377 122 q 368 202 370 175 q 363 247 365 229 l 363 252 q 360 286 361 266 q 357 326 359 307 q 353 372 354 349 l 347 378 m 317 647 q 245 574 281 620 q 195 484 210 528 q 180 429 189 464 q 166 359 172 393 q 156 295 160 324 q 152 258 152 266 q 155 260 153 258 q 159 264 157 263 q 277 440 243 346 q 317 647 312 534 z "},"b":{"ha":521,"x_min":35,"x_max":517,"o":"m 35 453 l 35 456 q 43 478 35 467 q 58 498 50 490 l 58 567 q 55 787 58 680 q 41 1008 52 894 q 53 1034 41 1025 q 79 1043 65 1043 q 136 1025 117 1050 q 164 959 156 1001 q 172 865 172 917 q 170 764 172 812 q 168 677 168 715 q 178 625 168 639 q 196 631 195 632 q 196 630 197 631 q 199 633 195 629 q 224 652 202 636 q 294 682 254 675 q 369 688 334 688 q 484 637 452 675 q 513 542 517 598 q 474 417 509 486 q 388 276 439 349 q 274 132 336 203 q 153 -1 212 61 q 125 3 141 -1 q 96 15 110 7 q 73 35 83 23 q 64 64 64 47 l 64 418 l 35 453 m 178 349 q 178 330 178 345 q 180 298 179 315 q 182 266 182 281 q 183 247 183 251 q 183 233 183 243 q 184 211 183 222 q 184 189 184 199 q 184 175 184 179 q 227 213 199 178 q 282 295 254 248 q 335 389 311 342 q 372 464 359 437 q 382 496 377 477 q 390 535 388 515 q 387 571 392 555 q 368 597 382 587 q 315 585 343 597 q 261 553 288 572 q 214 512 235 534 q 183 469 193 490 q 181 446 182 463 q 180 410 180 429 q 178 373 179 391 q 178 349 178 355 z "},"c":{"ha":480,"x_min":22,"x_max":456,"o":"m 31 163 q 32 259 22 203 q 64 371 42 315 q 120 477 87 427 q 191 557 153 528 q 267 591 228 587 q 340 556 305 594 q 342 549 340 555 q 345 527 343 544 q 347 479 346 510 q 347 396 347 449 q 351 387 349 393 q 353 378 353 381 q 337 351 349 363 q 308 338 326 338 q 271 345 285 338 q 250 381 256 353 q 251 398 252 385 q 246 427 250 411 q 240 460 243 444 q 237 486 237 476 q 234 484 236 486 q 231 480 232 481 q 188 390 208 439 q 158 290 168 340 q 151 189 148 239 q 180 98 155 138 q 216 113 199 98 q 243 142 232 129 q 288 198 266 170 q 330 258 311 227 q 342 282 338 271 q 352 300 346 293 q 368 311 358 307 q 396 315 377 315 q 437 304 418 315 q 456 271 456 294 q 428 193 456 240 q 360 103 400 146 q 275 29 320 60 q 197 -1 231 -1 q 134 12 164 -1 q 81 46 103 24 q 45 98 58 68 q 31 163 31 127 z "},"d":{"ha":559,"x_min":16,"x_max":553,"o":"m 372 214 q 353 184 370 214 q 308 119 336 155 q 241 54 279 84 q 159 24 202 24 q 59 61 99 24 q 19 161 19 98 q 28 239 16 194 q 62 332 39 283 q 116 425 84 380 q 184 504 148 471 q 261 553 221 537 q 342 559 301 570 l 342 578 q 340 650 342 613 q 336 736 338 688 q 332 847 334 784 q 330 998 330 910 q 344 1018 334 1013 q 366 1023 354 1023 q 416 1002 397 1023 q 438 952 434 982 q 436 858 435 906 q 441 749 437 810 q 454 610 445 688 q 476 428 463 533 q 509 186 490 323 q 553 -129 528 50 l 553 -175 q 547 -187 553 -183 q 532 -193 541 -191 q 515 -196 524 -195 q 502 -197 506 -197 q 458 -185 481 -197 q 431 -153 435 -174 l 381 209 q 378 214 381 213 q 372 214 374 214 m 133 184 q 132 170 133 180 q 132 149 132 160 q 136 130 133 138 q 146 122 138 122 q 216 148 180 121 q 282 215 252 175 q 332 301 312 255 q 353 384 351 347 q 336 440 355 420 q 269 449 316 460 q 172 331 210 397 q 133 184 133 264 z "},"e":{"ha":604,"x_min":22,"x_max":598,"o":"m 598 385 q 592 347 595 361 q 581 323 589 334 q 557 300 572 312 q 517 268 543 289 q 453 213 491 247 q 361 125 415 179 q 316 83 339 104 q 268 44 293 61 q 216 16 243 27 q 159 5 189 5 q 73 45 100 5 q 46 136 46 84 q 48 193 46 170 q 58 252 50 216 q 33 276 43 266 q 22 304 22 286 q 29 326 22 320 q 47 333 37 331 q 66 338 57 335 q 80 349 76 340 q 90 378 83 357 q 106 424 98 400 q 121 469 114 448 q 132 498 129 490 q 153 545 141 521 q 180 587 164 568 q 216 618 195 606 q 266 631 237 631 q 306 616 282 631 q 351 580 330 601 q 388 536 373 559 q 403 496 403 513 q 393 459 403 476 q 370 428 384 442 q 339 401 355 414 q 309 378 323 389 q 304 376 308 378 q 297 372 300 373 q 291 366 296 370 q 281 355 286 361 q 271 345 275 350 q 264 338 266 339 q 249 325 260 334 q 224 306 237 316 q 199 287 210 296 q 183 275 187 278 l 178 264 q 173 241 175 259 q 168 199 171 222 q 163 153 165 176 q 161 114 161 129 q 163 111 161 113 q 167 109 165 109 q 187 118 178 109 q 208 132 197 127 l 425 332 l 480 418 q 507 439 487 427 q 547 451 526 450 q 583 438 567 452 q 598 385 598 425 m 300 491 q 305 507 307 496 q 298 526 304 518 q 282 536 292 534 q 264 526 273 538 q 250 505 260 521 q 230 471 240 488 q 213 442 220 454 q 210 433 206 430 l 300 491 z "},"h":{"ha":526,"x_min":35,"x_max":506,"o":"m 52 663 q 45 826 54 745 q 35 987 35 907 q 50 1019 35 1013 q 84 1025 65 1025 q 129 1010 111 1025 q 149 968 146 996 q 163 676 161 821 q 183 384 165 532 q 267 511 224 461 q 351 578 311 562 q 424 572 391 594 q 477 484 457 549 q 502 304 498 418 q 488 23 506 191 q 465 22 479 23 q 439 23 452 22 q 416 28 426 24 q 406 43 407 33 q 418 214 416 145 q 414 328 419 283 q 399 397 408 373 q 378 431 389 420 q 357 443 368 442 q 342 442 347 444 q 286 389 312 431 q 240 292 259 347 q 212 174 221 236 q 208 64 203 113 q 205 42 206 53 q 200 22 203 31 q 189 6 197 12 q 167 0 182 0 q 121 10 138 0 q 96 37 104 20 q 85 75 87 53 q 85 119 83 96 l 52 663 z "},"i":{"ha":235,"x_min":19,"x_max":216,"o":"m 95 52 q 72 283 81 187 q 56 445 62 380 q 44 549 49 510 q 37 607 39 587 q 33 633 34 627 q 31 642 31 640 l 31 647 q 44 672 31 662 q 71 682 57 682 q 115 675 91 682 q 146 647 138 669 q 163 513 159 581 q 172 378 168 445 q 181 243 175 311 q 203 109 187 175 q 205 98 203 106 q 210 80 208 90 q 213 62 212 71 q 214 52 214 54 l 214 49 q 216 46 214 47 q 201 14 216 30 q 170 0 186 -3 q 150 5 165 1 q 129 11 134 8 q 118 17 125 12 q 105 27 111 22 q 95 39 99 33 q 95 52 91 46 m 19 1040 q 35 1057 19 1050 q 58 1065 50 1065 q 104 1053 79 1065 q 129 1019 129 1042 q 123 987 129 996 q 94 979 117 979 q 44 996 69 979 q 19 1040 19 1012 z "},"k":{"ha":541,"x_min":43,"x_max":532,"o":"m 50 -50 q 49 -27 50 -43 q 47 7 47 -11 q 45 41 46 26 q 45 64 45 57 q 44 179 43 102 q 45 349 45 256 q 47 540 46 442 q 49 718 49 637 q 48 852 49 799 q 45 906 47 905 q 54 934 45 920 q 79 945 64 948 q 104 942 90 945 q 130 932 118 939 q 151 915 142 925 q 160 890 160 905 l 160 494 l 165 494 l 321 671 q 340 700 331 684 q 358 731 349 716 q 380 758 368 746 q 411 774 392 770 q 460 755 439 768 q 480 712 480 743 q 478 703 480 709 q 475 694 476 697 q 458 673 471 689 q 416 622 445 658 q 337 527 387 586 q 210 374 288 468 l 222 368 l 486 340 q 517 321 503 338 q 532 289 532 304 q 512 250 532 262 q 469 236 492 239 q 460 242 468 241 q 423 245 453 243 q 333 254 393 248 q 165 277 273 260 l 171 -46 q 161 -87 171 -73 q 119 -102 152 -102 q 77 -86 95 -102 q 50 -50 58 -71 z "},"l":{"ha":208,"x_min":31,"x_max":170,"o":"m 42 95 q 45 206 42 152 q 47 317 47 260 q 45 621 43 472 q 31 925 46 769 q 43 960 31 951 q 80 968 56 968 q 134 950 111 968 q 157 899 156 932 q 162 517 155 707 q 170 134 170 328 l 170 30 q 146 8 161 19 q 117 0 132 -3 q 60 32 77 7 q 42 95 42 57 z "},"m":{"ha":788,"x_min":35,"x_max":757,"o":"m 52 442 q 45 513 49 477 q 35 585 42 549 q 55 623 35 614 q 98 631 75 631 l 125 631 q 153 608 145 621 q 164 578 161 594 q 166 544 167 562 q 167 510 165 526 q 168 487 168 503 q 169 453 168 471 q 172 420 170 435 q 178 401 174 406 l 297 625 q 321 650 305 640 q 355 658 336 661 q 400 646 385 655 q 421 623 415 637 q 428 589 427 609 q 430 544 429 568 q 431 513 430 536 q 435 467 433 491 q 439 420 437 442 q 442 391 441 399 l 448 391 q 458 427 450 400 q 475 484 465 454 q 492 541 484 514 q 505 579 500 568 q 510 591 506 582 q 518 610 514 600 q 526 629 522 620 q 532 642 530 637 q 551 657 541 656 q 574 658 562 658 q 626 641 608 658 q 653 598 644 624 q 666 542 662 572 q 675 486 670 511 q 677 484 677 486 q 675 480 677 481 l 750 85 q 756 76 755 80 q 757 65 757 72 q 743 36 757 50 q 713 22 728 22 q 667 37 693 22 q 636 75 640 52 l 574 396 l 567 407 q 555 368 564 400 q 534 288 547 336 q 507 180 522 240 q 475 58 491 121 q 459 40 472 46 q 437 34 446 34 q 391 41 408 34 q 363 61 373 47 q 350 94 354 75 q 343 137 346 113 q 340 176 343 142 q 334 252 338 209 q 327 338 331 294 q 321 407 323 381 q 321 415 321 412 q 321 420 321 418 q 320 425 321 422 q 315 437 319 429 l 275 343 l 213 114 l 199 30 q 192 16 198 22 q 178 6 186 9 q 161 1 170 3 q 148 0 153 0 q 97 22 118 0 q 75 69 76 43 q 72 106 73 79 q 68 172 71 134 q 63 252 65 210 q 58 332 61 294 q 54 399 56 370 q 52 437 52 427 l 52 442 l 52 442 z "},"n":{"ha":562,"x_min":31,"x_max":533,"o":"m 418 46 q 386 121 399 73 q 361 223 373 170 q 340 328 350 277 q 321 409 331 378 q 298 444 311 439 q 270 407 286 448 l 152 43 q 136 17 145 24 q 104 9 126 9 q 81 13 94 9 q 58 23 69 16 q 40 39 47 30 q 31 61 33 49 q 39 121 35 77 q 43 221 42 164 q 45 341 45 278 q 45 459 46 404 q 43 554 45 514 q 41 606 42 594 q 41 634 41 620 q 45 661 42 648 q 58 680 49 673 q 85 688 66 688 q 134 666 111 688 q 156 620 156 644 q 153 550 156 585 q 149 480 149 515 q 149 444 149 458 q 155 407 149 429 q 168 445 159 418 q 189 502 178 472 q 210 558 201 532 q 224 595 220 585 q 252 648 233 623 q 302 675 271 673 q 340 665 323 677 q 369 633 357 652 q 389 592 381 613 q 401 556 397 571 l 475 218 l 532 64 q 533 56 533 62 q 533 47 533 50 q 526 16 533 31 q 499 0 518 0 q 452 13 476 0 q 418 46 427 26 z "},"o":{"ha":458,"x_min":35,"x_max":430,"o":"m 35 208 l 85 556 q 101 582 88 574 q 130 590 114 590 q 178 573 160 590 q 208 532 195 556 l 209 532 q 238 538 225 532 q 270 544 251 544 q 344 517 313 544 q 393 451 374 490 q 421 368 412 412 q 430 289 430 323 q 409 198 430 248 q 353 103 388 148 q 275 28 319 58 q 187 -1 232 -1 q 117 18 146 -1 q 70 66 88 37 q 43 132 52 95 q 35 203 35 168 l 35 208 m 149 199 q 155 168 152 186 q 163 136 157 151 q 178 115 168 122 q 208 114 189 107 q 245 151 225 130 q 284 194 266 171 q 315 243 302 217 q 327 297 327 269 q 320 382 332 343 q 286 437 308 420 q 235 441 263 454 q 178 372 206 429 q 155 290 161 336 q 149 203 149 243 l 149 199 z "},"p":{"ha":572,"x_min":7,"x_max":545,"o":"m 75 244 q 28 267 49 254 q 7 312 7 281 q 11 323 7 320 q 18 331 15 326 q 28 346 20 335 q 46 370 37 357 q 64 394 56 382 q 75 410 72 406 q 73 452 75 427 q 74 500 71 477 q 90 538 77 522 q 130 553 102 553 q 157 542 146 553 q 184 530 168 530 l 190 530 q 304 607 245 574 q 437 640 363 640 q 515 612 484 640 q 545 534 545 585 q 517 406 545 472 q 446 276 488 339 q 353 157 403 213 q 263 61 304 102 q 251 50 259 56 q 236 37 243 43 q 218 20 228 30 l 208 -292 q 207 -317 208 -304 q 201 -342 206 -331 q 188 -361 197 -354 q 163 -369 179 -369 q 141 -366 155 -369 q 115 -355 127 -362 q 94 -339 103 -349 q 85 -317 85 -330 l 75 244 m 201 159 l 206 159 q 215 167 208 159 q 233 186 222 175 q 253 208 243 197 q 269 227 263 220 q 343 301 309 256 q 398 391 377 346 q 424 473 419 437 q 412 524 429 510 q 353 521 395 538 q 241 439 312 503 q 212 408 225 426 q 195 369 198 391 l 201 159 z "},"r":{"ha":484,"x_min":41,"x_max":480,"o":"m 92 58 q 83 189 90 107 q 70 359 77 271 q 54 526 62 448 q 41 648 46 605 q 57 671 41 666 q 88 677 73 677 q 128 666 107 677 q 155 636 149 655 q 156 616 155 631 q 158 587 157 602 q 160 558 159 572 q 161 538 161 544 q 161 526 161 530 q 161 519 161 522 q 163 511 161 515 q 167 498 164 507 q 173 505 170 500 q 178 510 176 509 q 220 565 199 541 q 262 610 240 589 q 310 654 283 631 q 372 709 336 678 q 384 720 380 716 q 391 725 388 723 q 399 728 395 727 q 410 728 403 728 q 456 713 433 728 q 480 670 480 697 q 473 650 480 661 q 457 631 467 640 q 437 616 448 623 q 419 606 427 609 q 345 535 384 575 q 271 449 305 495 q 216 353 237 403 q 194 252 194 302 q 201 161 194 206 q 208 71 208 117 l 208 23 q 189 5 197 12 q 165 -1 180 -1 q 121 18 142 -1 q 92 58 99 38 z "},"s":{"ha":559,"x_min":19,"x_max":530,"o":"m 236 52 q 237 64 236 58 q 243 75 237 69 q 279 117 259 95 q 319 162 300 140 q 354 209 338 184 q 381 258 370 233 l 381 266 l 203 229 l 183 229 q 136 232 164 229 q 82 243 109 235 q 37 269 56 252 q 19 312 19 285 q 52 381 20 343 q 125 456 83 419 q 210 524 167 492 q 278 572 252 555 q 346 599 307 589 q 418 609 385 609 q 465 599 445 609 q 486 559 486 589 q 484 536 486 547 q 467 521 481 525 q 385 515 423 525 q 313 484 347 505 q 250 436 279 464 q 191 378 220 408 q 171 352 183 369 q 159 332 159 335 l 159 331 q 229 338 194 331 q 298 352 263 345 q 367 366 332 359 q 438 373 401 373 q 468 371 452 373 q 498 362 484 369 q 522 344 513 355 q 530 315 530 332 q 517 265 530 289 q 479 208 505 241 q 416 127 454 175 q 324 5 377 80 q 311 0 321 1 q 294 -1 301 -1 q 256 15 275 -1 q 236 52 236 31 z "},"t":{"ha":598,"x_min":22,"x_max":586,"o":"m 161 396 q 127 387 142 396 q 92 377 113 377 q 78 378 90 377 q 64 378 66 378 q 52 389 58 385 q 38 398 45 393 q 26 410 31 403 q 22 429 22 416 q 38 462 22 449 q 76 484 54 475 q 120 502 98 494 q 156 521 142 510 l 156 581 q 146 782 156 681 q 137 982 137 883 q 151 1017 137 1009 q 187 1025 164 1025 q 227 1010 214 1025 q 245 972 240 994 q 251 924 251 949 q 252 882 251 899 q 255 819 252 864 q 260 724 258 774 q 266 629 263 674 q 270 567 269 585 q 291 574 275 568 q 324 587 307 581 q 357 598 342 593 q 380 606 373 604 q 453 640 415 621 q 530 658 491 658 q 572 640 557 658 q 586 597 586 621 q 572 571 586 579 q 544 556 559 563 l 297 464 q 289 459 293 461 q 281 453 285 457 l 281 410 q 283 311 281 362 q 292 213 285 260 q 307 133 298 172 q 315 53 315 94 q 307 20 315 41 q 281 0 298 0 q 221 22 244 0 q 195 80 198 43 q 181 235 189 151 q 167 396 174 319 l 161 396 z "},"u":{"ha":475,"x_min":19,"x_max":431,"o":"m 300 129 q 281 85 290 109 q 259 42 271 61 q 229 10 247 23 q 184 -3 212 -3 q 106 21 137 -3 q 55 81 75 45 q 27 159 35 117 q 19 237 19 201 l 30 566 q 35 585 28 575 q 51 604 41 595 q 74 618 61 613 q 98 624 87 624 q 151 604 129 624 q 172 553 172 585 l 172 540 q 146 476 157 515 q 130 391 136 437 q 122 298 123 346 q 125 212 121 251 q 141 144 130 172 q 170 111 152 117 q 191 118 176 111 q 221 144 205 125 q 255 197 237 163 q 286 289 273 232 q 307 427 300 346 q 311 623 313 509 q 326 639 316 637 q 347 640 336 640 q 368 640 359 640 q 385 629 376 639 q 400 609 392 623 q 408 594 408 595 l 431 -7 q 420 -41 431 -27 q 389 -54 410 -54 q 373 -53 382 -54 q 354 -47 363 -52 q 337 -37 345 -43 q 328 -23 330 -31 l 305 113 l 300 129 z "},"v":{"ha":526,"x_min":22,"x_max":499,"o":"m 172 194 l 23 556 q 22 559 22 557 l 22 564 q 29 585 22 576 q 47 601 37 594 q 58 602 50 601 q 69 602 66 602 q 106 594 95 602 q 137 572 118 586 q 151 530 142 552 q 173 475 160 509 q 206 392 186 442 q 258 264 227 342 l 264 258 q 272 275 269 264 q 284 313 275 286 q 309 392 293 340 q 355 532 326 444 q 370 572 366 549 q 380 616 374 595 q 397 650 385 636 q 433 663 408 663 q 477 645 456 663 q 499 601 499 627 q 491 574 499 589 q 475 551 483 560 l 309 0 l 301 0 q 286 1 296 0 q 264 6 275 3 q 245 14 254 9 q 236 23 237 18 l 172 189 l 172 194 z "},"g":{"ha":564,"x_min":23,"x_max":563,"o":"m 98 -473 q 98 -439 92 -458 q 123 -415 104 -420 q 189 -433 155 -429 q 257 -434 222 -437 q 326 -423 292 -431 q 391 -404 359 -415 q 434 -337 422 -378 q 444 -224 446 -296 q 425 -47 441 -153 q 385 214 410 60 q 386 227 385 218 q 385 242 387 235 q 380 254 384 250 q 372 254 377 258 q 330 180 354 220 q 276 105 307 140 q 208 47 245 71 q 125 24 171 24 q 54 48 84 24 q 23 117 23 72 q 37 202 23 151 q 76 311 52 254 q 133 426 100 369 q 201 529 165 483 q 273 604 236 575 q 343 633 309 633 q 379 629 357 633 q 422 614 401 624 q 459 593 444 605 q 475 564 475 581 l 475 454 l 563 -186 q 561 -290 563 -240 q 543 -381 559 -339 q 494 -456 528 -423 q 396 -509 460 -488 q 362 -515 388 -513 q 303 -519 336 -518 q 233 -519 270 -521 q 165 -513 195 -518 q 115 -499 134 -509 q 98 -473 96 -490 m 309 513 q 273 465 296 498 q 228 393 251 433 q 182 311 205 354 q 146 232 160 269 q 130 170 133 195 q 141 138 126 144 q 202 188 170 153 q 264 265 235 222 q 315 353 293 308 q 347 435 338 399 q 348 494 355 472 q 309 513 340 517 z "},"j":{"ha":273,"x_min":-157,"x_max":250,"o":"m -157 -224 q -149 -168 -157 -184 q -129 -150 -141 -151 q -101 -160 -117 -149 q -67 -184 -85 -171 q -31 -211 -49 -198 q 5 -227 -12 -224 q 68 -200 43 -227 q 106 -136 92 -174 q 125 -58 121 -99 q 130 9 130 -18 q 130 18 130 12 q 128 45 130 24 q 123 105 126 65 q 115 213 121 145 q 100 383 109 281 q 77 632 91 486 q 87 666 77 652 q 119 680 98 680 q 164 672 146 680 q 197 639 182 665 q 198 603 197 623 q 202 553 199 583 q 210 477 205 522 q 220 366 214 431 q 234 208 227 300 q 250 -5 241 117 q 242 -98 250 -50 q 216 -188 235 -145 q 164 -264 197 -231 q 83 -312 132 -297 q 66 -313 75 -309 q 50 -317 58 -317 q -8 -312 23 -317 q -69 -296 -39 -307 q -123 -267 -99 -285 q -157 -224 -146 -248 m 14 987 q 31 1017 14 1009 q 64 1024 47 1024 q 113 1009 90 1024 q 136 963 136 994 q 117 938 136 945 q 85 930 99 930 q 64 935 76 930 q 40 948 52 940 q 21 966 28 956 q 14 987 14 977 z "},"q":{"ha":536,"x_min":30,"x_max":499,"o":"m 361 212 q 317 134 339 168 q 276 75 296 99 q 241 37 256 50 q 218 27 227 24 q 191 16 203 18 q 163 15 178 15 q 102 31 127 15 q 61 73 77 47 q 37 129 45 98 q 30 191 30 160 q 51 312 30 251 q 109 426 72 373 q 194 520 145 479 q 297 583 243 562 q 345 595 312 589 q 411 602 377 602 q 471 591 445 601 q 499 553 496 581 q 494 522 499 538 q 486 491 490 505 q 484 288 488 389 q 480 85 480 187 q 490 -141 480 -28 q 499 -368 499 -254 q 496 -389 499 -377 q 486 -412 492 -401 q 471 -427 480 -422 q 448 -430 461 -433 q 391 -389 410 -433 q 367 -279 373 -346 q 362 -131 361 -212 q 367 22 363 -50 q 372 149 370 95 q 366 217 373 203 l 361 212 m 149 258 q 133 153 126 176 q 164 144 140 129 q 223 205 189 160 q 290 307 258 251 q 344 419 321 362 q 366 515 366 476 q 292 471 326 499 q 233 408 259 442 q 186 334 206 373 q 149 258 165 296 z "},"w":{"ha":688,"x_min":30,"x_max":655,"o":"m 191 65 q 144 224 183 96 q 34 595 104 353 q 32 607 34 598 q 30 618 30 616 q 54 638 33 635 q 87 640 76 642 q 131 621 117 636 q 155 578 145 606 l 233 319 l 239 312 q 258 374 255 339 q 265 443 260 410 q 283 503 270 476 q 335 541 297 530 q 353 538 343 541 q 371 528 362 534 q 387 515 380 522 q 396 499 393 507 l 469 264 l 484 244 q 498 323 490 269 q 516 436 507 377 q 532 546 525 495 q 541 616 538 597 q 542 625 541 618 q 543 635 543 632 q 572 653 553 647 q 606 656 591 659 q 621 650 612 655 q 637 638 629 646 q 650 623 646 631 q 655 608 655 614 l 578 52 q 568 39 576 43 q 550 31 560 34 q 530 26 540 27 q 514 26 519 26 q 458 66 481 38 q 416 127 434 94 q 383 197 397 161 q 353 262 369 233 l 347 263 q 332 221 338 254 q 321 152 326 189 q 315 86 317 115 q 312 54 312 57 q 287 24 309 35 q 247 16 264 14 q 214 35 228 19 q 191 65 199 50 z "},"x":{"ha":585,"x_min":24,"x_max":570,"o":"m 81 -132 q 89 -94 80 -122 q 112 -28 98 -66 q 142 56 126 11 q 174 142 159 100 q 201 216 190 183 q 216 267 213 250 q 215 275 216 270 q 214 282 214 281 q 165 322 190 297 q 115 375 140 347 q 68 431 91 403 q 24 481 45 460 l 24 487 q 40 521 24 509 q 76 533 56 533 q 134 511 107 533 q 181 462 160 488 q 219 413 202 435 q 248 391 236 391 l 254 391 q 260 412 255 397 q 274 456 264 426 q 300 534 283 486 q 340 659 316 583 q 358 675 343 671 q 384 678 373 678 q 421 665 404 678 q 438 628 438 651 l 438 620 l 343 294 l 564 104 l 570 88 l 570 85 q 553 52 570 62 q 517 41 536 41 q 467 62 496 41 q 408 110 438 84 q 353 157 378 136 q 316 179 328 179 l 311 179 q 279 130 292 161 q 258 62 267 99 q 239 -15 248 24 q 216 -87 229 -54 q 186 -145 203 -121 q 141 -176 168 -170 q 102 -164 123 -176 q 81 -132 81 -152 z "},"y":{"ha":464,"x_min":24,"x_max":430,"o":"m 302 -373 q 299 -304 300 -345 q 298 -218 298 -263 q 299 -127 298 -174 q 302 -43 300 -81 l 302 5 q 286 25 296 15 q 253 66 277 35 q 186 157 229 96 q 69 326 142 217 q 33 375 41 355 q 27 407 24 395 q 41 425 30 419 q 64 430 53 430 q 113 418 91 430 q 152 387 134 406 q 184 345 170 368 q 212 302 198 323 q 232 271 220 290 q 256 234 244 252 q 277 202 269 216 q 286 189 286 189 l 302 171 l 302 313 q 300 446 302 381 q 297 576 297 510 q 311 608 297 595 q 343 618 324 620 q 378 610 366 616 q 401 589 389 605 q 412 553 412 574 q 412 514 411 533 q 421 257 418 385 q 425 0 425 129 q 423 -50 423 -12 q 424 -134 423 -87 q 425 -233 425 -182 q 427 -328 426 -285 q 428 -398 427 -370 q 430 -425 429 -426 q 416 -454 430 -445 q 381 -464 401 -464 q 341 -456 354 -464 q 321 -436 328 -449 q 312 -407 315 -423 q 302 -373 309 -391 z "},"z":{"ha":1020,"x_min":30,"x_max":1005,"o":"m 170 54 q 170 62 170 57 q 172 69 171 68 l 366 437 q 376 463 370 446 q 388 497 382 480 q 397 528 393 514 q 401 544 401 541 l 401 559 q 304 538 357 559 q 199 502 251 517 q 103 494 148 487 q 30 559 58 502 q 49 585 30 575 q 80 595 68 595 q 97 593 83 595 q 114 590 111 590 q 193 606 153 594 q 271 631 232 618 q 348 652 309 643 q 425 658 387 661 q 460 657 441 658 q 497 652 480 656 q 526 635 514 647 q 538 601 538 623 q 532 562 538 582 q 515 526 526 541 l 355 155 l 355 142 l 453 189 l 458 189 l 901 327 l 922 327 q 947 325 933 327 q 974 318 962 323 q 994 304 986 313 q 1002 279 1002 294 q 981 248 1005 262 q 911 222 956 235 q 805 195 867 209 q 671 159 743 180 q 520 109 600 138 q 361 35 441 79 q 340 31 357 37 q 304 18 324 26 q 267 5 285 11 q 240 -1 248 -1 q 194 14 218 -1 q 170 54 170 30 z "},"{":{"ha":530,"x_min":16,"x_max":507,"o":"m 212 60 q 222 168 216 114 q 229 277 228 222 q 225 387 231 332 q 199 494 220 441 q 170 479 184 488 q 142 463 156 471 q 113 448 127 454 q 81 442 98 442 q 37 457 58 442 q 16 499 16 472 q 31 524 16 511 q 64 548 45 536 q 100 571 83 560 q 125 590 118 582 q 140 632 138 608 q 142 675 142 656 q 128 787 132 727 q 132 908 125 848 q 159 1026 140 968 q 211 1129 178 1084 q 292 1205 244 1175 q 406 1242 340 1236 q 432 1242 415 1242 q 465 1238 449 1242 q 492 1225 480 1234 q 503 1198 503 1215 q 498 1171 507 1180 q 473 1158 490 1162 q 432 1149 456 1153 q 384 1139 408 1146 q 336 1117 359 1131 q 297 1077 313 1103 q 245 962 258 1021 q 235 840 233 902 q 243 715 236 779 q 251 590 251 652 q 300 541 282 581 q 326 444 317 500 q 335 322 334 388 q 335 195 336 256 q 331 84 334 134 q 330 8 328 34 q 354 18 342 8 q 378 41 366 28 q 404 64 391 54 q 431 75 416 75 l 435 75 q 456 56 453 60 q 458 33 458 52 q 446 -18 458 8 q 414 -64 434 -43 q 370 -100 395 -85 q 320 -114 345 -114 q 265 -96 286 -114 q 232 -53 244 -79 q 216 3 220 -27 q 212 60 212 34 z "},"|":{"ha":224,"x_min":30,"x_max":195,"o":"m 30 1234 q 40 1267 30 1261 q 73 1272 50 1272 q 118 1259 104 1272 q 142 1219 132 1246 q 163 868 157 1043 q 172 515 168 693 q 173 300 175 410 q 189 85 171 191 q 195 71 195 79 q 195 57 195 64 q 176 15 195 30 q 134 0 157 0 q 107 7 119 0 q 85 27 95 15 q 71 54 76 39 q 64 80 65 68 q 64 100 64 84 q 64 132 64 115 q 64 164 64 149 q 64 183 64 179 q 60 519 61 353 q 53 853 58 685 q 39 1044 49 949 q 30 1234 30 1139 z "},"}":{"ha":401,"x_min":20,"x_max":369,"o":"m 24 -103 q 41 -77 24 -87 q 81 -61 58 -68 q 125 -49 103 -54 q 159 -35 148 -43 q 230 41 198 -4 q 262 137 262 85 q 248 178 262 161 q 212 206 233 194 q 165 231 190 218 q 117 259 140 243 q 79 299 95 275 q 60 361 62 323 q 65 389 60 374 q 77 415 71 403 q 90 437 84 427 q 95 450 95 446 l 95 453 l 90 458 q 78 481 80 468 q 76 515 76 495 q 100 614 80 566 q 141 713 121 663 q 175 814 161 762 q 180 921 189 865 q 179 945 180 928 q 168 981 178 963 q 135 1012 157 998 q 71 1025 113 1025 q 50 1040 62 1029 q 30 1065 38 1051 q 21 1093 22 1078 q 34 1116 20 1107 q 79 1128 47 1126 q 170 1122 111 1130 q 225 1104 195 1122 q 277 1050 255 1086 q 303 958 298 1015 q 283 825 308 902 q 262 722 273 773 q 227 625 251 670 q 203 584 216 605 q 191 538 191 563 l 191 533 q 221 537 206 541 q 248 522 236 533 q 266 494 259 510 q 273 464 273 479 q 254 435 270 445 q 219 414 237 425 q 185 390 201 404 q 170 350 170 376 q 179 323 170 334 q 202 306 189 313 q 230 292 216 298 q 254 281 244 286 q 295 258 274 270 q 332 229 316 247 q 359 187 349 212 q 369 129 369 163 q 345 35 369 84 q 283 -58 321 -15 q 198 -128 245 -100 q 103 -156 151 -156 q 79 -153 92 -156 q 53 -142 65 -149 q 33 -126 41 -136 q 24 -103 24 -117 z "},"~":{"ha":553,"x_min":53,"x_max":446,"o":"m 53 681 q 54 692 53 688 q 56 704 54 697 q 75 761 65 732 q 100 814 85 789 q 132 859 114 840 q 175 886 151 878 q 193 884 184 886 q 209 871 201 882 l 286 773 q 304 757 297 766 q 326 747 312 747 q 343 762 335 747 q 355 784 351 777 q 370 811 363 796 q 383 840 376 826 q 399 862 391 853 q 422 871 408 871 q 441 859 437 871 q 446 827 446 846 q 437 767 446 799 q 412 709 427 735 q 377 667 396 684 q 338 650 358 650 q 292 661 313 648 q 250 691 270 673 q 212 730 231 709 q 175 765 193 750 q 150 746 161 765 q 128 705 138 727 q 108 664 118 682 q 88 646 98 646 q 66 655 79 646 q 53 681 53 665 z "},"f":{"ha":397,"x_min":12,"x_max":491,"o":"m 90 293 q 43 298 60 288 q 19 323 26 308 q 13 355 12 339 q 19 374 14 370 q 37 385 23 376 q 54 397 52 395 q 58 399 56 397 q 61 403 60 401 l 61 427 q 52 577 61 503 q 43 726 43 651 q 45 827 43 774 q 63 925 47 880 q 113 998 79 970 q 210 1027 146 1027 q 236 1027 221 1027 q 264 1023 251 1027 q 286 1011 277 1020 q 296 986 296 1002 q 284 954 296 962 q 255 945 273 947 q 218 939 237 943 q 186 918 199 936 q 179 904 183 916 q 175 888 175 892 q 170 863 172 879 q 165 830 167 846 q 161 801 163 814 q 159 787 159 788 q 159 777 159 785 q 158 755 159 768 q 157 730 157 743 q 157 709 157 718 q 157 656 157 681 q 159 608 157 632 q 163 560 160 585 q 170 506 165 536 l 180 506 l 363 614 q 397 628 382 618 q 431 637 412 637 q 471 628 450 637 q 491 598 491 618 q 484 576 491 583 q 473 557 477 570 q 453 549 468 556 q 433 540 438 543 q 398 519 422 533 q 349 489 374 505 q 301 460 323 473 q 273 442 279 446 q 250 426 263 435 q 223 406 236 416 q 201 389 210 396 q 191 381 191 381 l 191 368 l 227 252 q 226 243 225 248 q 232 236 227 239 l 296 42 q 286 1 302 18 q 247 -15 269 -15 q 199 -2 222 -15 q 170 37 176 11 l 95 282 l 90 293 l 90 293 z "},"@":{"ha":1034,"x_min":30,"x_max":1015,"o":"m 30 258 q 52 376 30 308 q 110 519 73 445 q 197 665 146 593 q 302 793 247 736 q 418 886 358 850 q 534 921 477 921 q 606 895 578 921 q 650 825 633 868 q 675 730 667 783 q 686 626 684 678 q 688 528 689 574 q 688 453 688 481 q 682 387 688 422 q 662 321 677 351 q 622 271 647 290 q 559 251 597 251 q 483 281 507 251 q 442 355 458 312 q 437 373 437 368 q 430 391 437 378 q 427 387 429 389 q 425 384 425 385 q 398 336 412 361 q 366 289 384 311 q 323 254 347 267 q 270 240 300 240 q 220 261 241 240 q 199 309 199 282 q 216 389 199 350 q 257 464 232 429 q 311 531 282 499 q 366 590 340 563 q 416 625 385 609 q 469 642 446 642 q 518 624 499 642 q 556 585 537 606 q 557 567 556 581 q 557 551 557 553 q 551 474 557 511 q 544 397 544 437 q 547 372 544 388 q 562 349 551 355 q 584 379 576 361 q 594 418 591 397 q 597 460 597 439 q 597 496 597 480 q 602 591 600 541 q 600 685 605 642 q 577 761 595 728 q 521 803 559 793 q 437 773 481 803 q 353 700 393 743 q 279 609 312 656 q 229 526 245 562 q 214 491 225 517 q 191 436 203 465 q 169 380 179 407 q 155 343 159 354 q 148 320 151 330 q 144 302 145 311 q 142 284 142 293 q 142 263 142 275 q 162 181 142 214 q 214 126 182 148 q 286 95 245 104 q 369 85 327 85 l 396 85 q 424 91 406 87 q 460 98 442 95 q 493 104 479 102 q 510 109 507 107 l 836 264 q 864 286 850 271 q 892 314 878 300 q 921 339 906 328 q 952 350 936 350 q 992 340 970 350 q 1015 309 1015 331 q 1007 286 1015 297 q 988 263 1000 274 q 965 243 977 252 q 945 229 954 235 q 924 214 937 224 q 896 195 910 205 q 871 179 882 186 q 859 172 860 172 q 820 152 848 165 q 760 123 792 138 q 699 94 728 107 q 658 75 670 80 q 627 61 642 71 q 595 46 613 52 q 479 14 534 27 q 358 0 423 0 q 245 16 302 0 q 139 65 187 33 q 60 146 91 98 q 30 258 30 194 m 316 420 q 307 389 307 399 q 313 378 307 378 q 330 387 319 378 q 355 410 342 395 q 402 471 396 452 q 396 488 408 490 q 360 469 384 487 q 316 420 336 450 z "},"?":{"ha":496,"x_min":15,"x_max":469,"o":"m 232 60 q 248 96 232 79 q 286 114 264 114 q 336 100 312 114 q 361 54 361 85 q 343 16 361 26 q 302 5 326 5 q 254 18 277 5 q 232 60 232 31 m 141 384 q 167 452 149 420 q 205 513 184 484 q 250 571 227 543 q 292 631 273 600 q 302 648 294 635 q 317 676 309 661 q 333 707 326 692 q 343 728 340 722 q 349 747 350 743 q 347 765 347 751 q 249 744 293 765 q 160 693 205 723 q 123 663 140 680 q 81 647 107 647 q 38 663 61 647 q 15 703 15 678 q 17 713 15 711 q 27 720 19 715 q 104 778 66 751 q 182 824 142 804 q 267 855 222 844 q 362 867 311 867 q 437 846 406 867 q 469 779 469 826 q 458 715 469 747 q 431 651 448 682 q 395 591 415 620 q 359 538 376 563 q 331 502 349 522 q 297 459 313 481 q 269 414 281 437 q 256 374 256 392 q 266 358 256 363 q 275 342 275 353 q 260 307 275 317 q 224 297 245 297 q 165 322 189 297 q 141 381 141 347 l 141 384 z "},">":{"ha":585,"x_min":20,"x_max":562,"o":"m 144 148 q 150 167 144 157 q 165 184 156 176 q 183 199 174 193 q 201 210 193 206 l 418 514 q 423 529 423 522 l 423 533 l 52 675 q 44 682 49 675 q 35 696 39 688 q 26 711 30 704 q 22 722 22 719 q 29 739 20 731 q 50 751 38 746 q 73 758 61 755 q 90 760 85 760 q 199 707 142 728 q 313 665 255 685 q 429 627 370 646 q 544 582 487 608 q 557 562 553 570 q 562 544 562 555 q 543 498 562 517 q 510 457 525 479 q 450 368 477 411 q 393 284 422 326 q 332 202 365 243 q 256 119 298 161 q 241 107 254 115 q 222 96 228 99 q 198 96 212 94 q 172 106 184 99 q 152 123 160 113 q 144 148 144 134 z "},"=":{"ha":570,"x_min":20,"x_max":544,"o":"m 85 231 q 151 278 114 260 q 230 309 189 296 q 314 335 271 323 q 396 366 357 347 q 441 379 426 376 q 480 382 457 382 q 519 376 498 382 q 544 349 541 369 q 536 328 543 343 q 528 309 530 312 q 515 300 525 307 q 499 290 505 293 q 413 267 456 283 q 328 231 370 250 q 242 196 285 212 q 156 176 199 180 q 109 191 133 176 q 85 231 85 205 m 23 393 q 35 429 20 419 q 69 445 50 439 q 131 465 99 456 q 208 485 163 475 q 317 509 254 495 q 475 544 381 524 l 481 544 q 494 541 487 544 q 509 534 502 538 q 522 524 517 529 q 528 513 528 518 q 518 479 528 495 q 494 457 509 464 q 300 401 396 422 q 107 347 205 380 q 83 350 98 347 q 56 358 69 353 q 34 372 43 363 q 23 393 24 381 z "},"*":{"ha":593,"x_min":19,"x_max":575,"o":"m 80 252 q 98 266 90 259 q 117 279 107 273 q 65 273 90 273 q 19 320 19 273 q 24 342 19 332 q 24 363 28 351 q 43 367 30 365 q 60 369 57 369 l 106 369 q 139 376 119 372 q 178 385 159 381 q 125 427 155 408 q 76 473 96 446 q 85 538 50 509 q 106 549 96 545 q 125 563 117 552 q 139 550 129 560 q 152 537 149 540 q 156 531 152 536 q 165 520 160 526 q 174 509 170 514 q 179 503 178 503 q 205 478 189 492 q 236 452 221 464 l 254 644 q 264 671 256 667 q 292 675 273 675 q 302 675 294 675 q 312 674 309 674 q 331 651 323 666 l 331 602 q 329 525 331 563 q 326 448 327 487 l 486 552 q 513 559 505 563 q 533 540 522 555 q 539 531 536 537 q 544 524 543 525 q 537 496 547 507 q 518 480 533 492 q 499 465 503 468 q 486 456 492 460 q 473 448 480 452 l 525 456 q 545 452 536 453 q 560 447 553 450 q 571 436 567 444 q 575 414 575 429 l 575 410 q 549 393 563 397 q 522 385 536 388 q 494 377 507 381 q 467 363 480 373 l 372 340 l 503 222 q 517 189 511 203 q 500 156 522 174 q 498 155 499 156 q 469 163 481 156 q 445 180 456 171 q 422 199 434 190 q 395 213 410 208 l 326 266 q 333 217 330 241 q 336 170 336 193 q 319 128 336 144 q 277 113 301 113 l 273 113 l 243 141 q 244 205 244 172 q 239 271 244 239 q 200 233 220 252 q 160 197 180 214 q 117 185 140 182 q 79 209 94 189 l 75 213 l 80 252 l 80 252 z "},"&":{"ha":472,"x_min":43,"x_max":423,"o":"m 419 298 q 420 280 423 292 q 410 256 416 269 q 397 235 404 244 q 382 224 389 225 q 307 221 347 213 q 173 268 229 235 q 79 363 117 301 q 67 382 75 368 q 58 400 60 397 q 58 475 43 439 q 114 524 73 510 q 130 528 119 526 q 155 532 141 530 q 180 536 168 534 q 201 541 193 538 q 146 591 178 570 q 77 647 114 612 q 73 654 75 650 q 69 659 71 658 q 84 707 47 696 q 123 729 96 718 q 182 749 149 741 q 250 762 214 758 q 317 760 286 765 q 372 740 349 755 q 404 694 396 724 q 406 668 416 680 q 381 651 395 656 q 347 645 363 644 q 311 647 330 646 q 274 648 293 648 q 233 642 255 648 l 225 637 q 271 606 245 621 q 319 574 296 590 q 363 544 343 559 q 393 514 382 529 q 398 488 401 502 q 380 471 395 475 q 335 460 355 463 q 294 456 315 457 q 254 452 274 454 q 209 442 233 450 q 193 412 186 431 q 221 373 199 393 q 271 336 243 353 q 321 313 300 319 q 363 313 334 309 q 376 315 365 313 q 389 317 388 316 q 408 313 403 317 q 419 298 412 308 m 216 -23 q 206 42 210 4 q 195 107 202 80 q 210 137 198 125 q 239 153 221 149 q 290 141 273 159 q 312 95 308 123 q 319 57 315 83 q 325 5 324 31 q 319 -40 326 -20 q 296 -60 313 -60 q 260 -60 274 -60 q 237 -57 247 -60 q 223 -46 228 -54 q 216 -23 218 -38 m 161 905 q 160 924 160 917 q 160 937 160 930 q 161 950 160 943 q 160 971 161 958 q 174 1002 161 989 q 203 1017 186 1015 q 254 1006 239 1023 q 277 962 270 989 q 281 922 278 948 q 283 870 283 897 q 275 824 282 844 q 250 804 267 804 q 212 815 227 804 q 186 841 197 826 q 171 873 176 856 q 161 905 165 890 z "},"`":{"ha":339,"x_min":117,"x_max":321,"o":"m 317 825 q 279 804 302 800 q 231 825 255 808 q 184 865 206 842 q 151 899 161 887 q 136 914 144 906 q 123 932 127 922 q 117 951 118 941 q 125 971 117 960 q 159 997 140 991 q 199 987 178 1002 q 241 943 220 959 q 281 911 263 926 q 311 876 300 895 q 317 825 321 857 z "},"":{"ha":339,"x_min":114,"x_max":307,"o":"m 118 853 q 124 909 114 888 q 151 945 134 929 q 189 979 168 962 q 228 1028 209 997 q 266 1039 248 1044 q 298 1010 283 1034 q 306 988 307 998 q 300 968 305 978 q 287 949 294 958 q 274 933 279 941 q 243 896 263 920 q 199 854 222 872 q 154 831 176 836 q 118 853 132 827 z "},"":{"ha":553,"x_min":53,"x_max":446,"o":"m 53 681 q 54 692 53 688 q 56 704 54 697 q 75 761 65 732 q 100 814 85 789 q 132 859 114 840 q 175 886 151 878 q 193 884 184 886 q 209 871 201 882 l 286 773 q 304 757 297 766 q 326 747 312 747 q 343 762 335 747 q 355 784 351 777 q 370 811 363 796 q 383 840 376 826 q 399 862 391 853 q 422 871 408 871 q 441 859 437 871 q 446 827 446 846 q 437 767 446 799 q 412 709 427 735 q 377 667 396 684 q 338 650 358 650 q 292 661 313 648 q 250 691 270 673 q 212 730 231 709 q 175 765 193 750 q 150 746 161 765 q 128 705 138 727 q 108 664 118 682 q 88 646 98 646 q 66 655 79 646 q 53 681 53 665 z "},"":{"ha":480,"x_min":38,"x_max":429,"o":"m 156 1114 q 161 1125 157 1116 q 168 1143 164 1134 q 176 1162 172 1153 q 182 1175 180 1171 q 201 1187 187 1185 q 229 1190 216 1190 q 248 1187 240 1190 q 264 1177 256 1185 q 280 1154 269 1171 q 305 1118 292 1137 q 330 1083 319 1100 q 346 1061 342 1066 q 351 1055 347 1059 q 355 1048 355 1050 q 369 1029 359 1043 q 389 998 378 1015 q 410 967 400 982 q 423 947 419 952 q 428 937 427 940 q 429 926 429 933 q 416 906 429 911 q 384 901 404 901 q 352 908 366 901 q 331 926 338 916 l 240 1061 l 235 1057 q 227 1042 231 1051 q 212 1013 222 1032 q 184 964 202 994 q 136 884 167 933 q 121 878 133 882 q 106 873 110 873 q 85 877 98 873 q 61 886 72 880 q 44 899 50 891 q 43 916 38 906 l 156 1114 z "},"":{"ha":480,"x_min":73,"x_max":433,"o":"m 77 1027 q 79 1038 73 1032 q 94 1046 84 1043 q 116 1052 104 1050 q 136 1054 127 1054 q 149 1052 138 1054 q 163 1047 160 1050 q 208 996 191 1016 q 233 964 224 977 q 246 947 243 952 q 254 937 250 941 l 259 935 l 343 1020 q 392 1036 357 1036 q 422 1034 411 1036 q 433 1020 433 1031 q 432 1014 433 1016 q 427 1006 431 1012 q 416 994 425 1002 q 397 975 407 985 q 378 955 387 964 q 365 943 369 945 q 361 938 365 941 q 357 935 358 935 q 342 920 353 930 q 319 897 331 909 q 296 875 307 886 q 281 860 285 864 q 267 853 274 854 q 250 852 260 852 q 224 853 237 852 q 205 861 210 854 q 193 882 202 867 q 182 901 184 897 l 77 1027 z "},"":{"ha":378,"x_min":56,"x_max":334,"o":"m 187 827 q 93 857 121 833 q 60 909 65 882 q 65 961 56 936 q 83 994 75 986 q 134 920 96 941 q 212 904 171 899 q 286 936 252 909 q 328 1006 320 963 q 331 942 334 975 q 313 882 328 909 q 267 840 297 856 q 187 827 236 823 z "},"":{"ha":429,"x_min":19,"x_max":396,"o":"m 23 879 q 29 935 19 914 q 56 971 39 955 q 94 1005 73 987 q 133 1054 114 1023 q 171 1065 153 1070 q 203 1036 189 1059 q 211 1014 212 1024 q 205 994 210 1004 q 192 975 199 983 q 179 959 184 967 q 148 922 168 945 q 104 880 127 898 q 59 857 81 861 q 23 879 37 853 m 208 853 q 214 909 203 888 q 241 945 224 929 q 278 979 258 962 q 317 1028 298 997 q 355 1039 338 1044 q 388 1010 373 1034 q 395 988 396 998 q 389 968 395 978 q 376 949 384 958 q 363 933 369 941 q 332 896 353 920 q 289 854 312 872 q 243 831 266 836 q 208 853 221 827 z "},"":{"ha":556,"x_min":114,"x_max":441,"o":"m 114 -39 q 132 83 121 26 q 155 206 142 141 l 155 217 l 349 1219 q 363 1251 353 1242 q 397 1260 374 1260 l 400 1260 q 433 1238 426 1246 q 441 1202 441 1229 q 437 1168 441 1185 q 430 1134 433 1150 q 425 1115 429 1130 q 418 1082 422 1100 q 410 1050 414 1065 q 406 1031 407 1035 l 406 1025 l 252 258 q 226 104 240 180 q 201 -50 212 27 q 184 -74 197 -66 q 156 -81 171 -81 q 127 -71 141 -81 q 114 -43 114 -61 l 114 -39 z "},"":{"ha":632,"x_min":12,"x_max":613,"o":"m 90 293 q 43 298 60 288 q 19 323 26 308 q 13 355 12 339 q 19 374 14 370 q 37 385 23 376 q 54 397 52 395 q 58 399 56 397 q 61 403 60 401 l 61 427 q 52 577 61 503 q 43 726 43 651 q 45 827 43 774 q 63 925 47 880 q 113 998 79 970 q 210 1027 146 1027 q 236 1027 221 1027 q 264 1023 251 1027 q 286 1011 277 1020 q 296 986 296 1002 q 284 954 296 962 q 255 945 273 947 q 218 939 237 943 q 186 918 199 936 q 179 904 183 916 q 175 888 175 892 q 170 863 172 879 q 165 830 167 846 q 161 801 163 814 q 159 787 159 788 q 159 777 159 785 q 158 755 159 768 q 157 730 157 743 q 157 709 157 718 q 157 656 157 681 q 159 608 157 632 q 163 560 160 585 q 170 506 165 536 l 180 506 l 363 614 q 397 628 382 618 q 431 637 412 637 q 471 628 450 637 q 491 598 491 618 q 484 576 491 583 q 473 557 477 570 q 453 549 468 556 q 433 540 438 543 q 398 519 422 533 q 349 489 374 505 q 301 460 323 473 q 273 442 279 446 q 250 426 263 435 q 223 406 236 416 q 201 389 210 396 q 191 381 191 381 l 191 368 l 227 252 q 226 243 225 248 q 232 236 227 239 l 296 42 q 286 1 302 18 q 247 -15 269 -15 q 199 -2 222 -15 q 170 37 176 11 l 95 282 l 90 293 l 90 293 m 492 52 q 469 283 479 187 q 453 445 460 380 q 441 549 446 510 q 434 607 437 587 q 430 633 431 627 q 429 642 429 640 l 429 647 q 441 672 429 662 q 468 682 454 682 q 512 675 488 682 q 544 647 536 669 q 561 513 556 581 q 569 378 566 445 q 578 243 572 311 q 601 109 585 175 q 603 98 601 106 q 607 80 605 90 q 610 62 609 71 q 612 52 612 54 l 612 49 q 613 46 612 47 q 598 14 613 30 q 567 0 583 -3 q 547 5 563 1 q 526 11 532 8 q 515 17 522 12 q 503 27 509 22 q 492 39 496 33 q 492 52 488 46 m 416 1040 q 432 1057 416 1050 q 456 1065 448 1065 q 501 1053 476 1065 q 526 1019 526 1042 q 520 987 526 996 q 491 979 514 979 q 441 996 467 979 q 416 1040 416 1012 z "},"":{"ha":605,"x_min":12,"x_max":567,"o":"m 90 293 q 43 298 60 288 q 19 323 26 308 q 13 355 12 339 q 19 374 14 370 q 37 385 23 376 q 54 397 52 395 q 58 399 56 397 q 61 403 60 401 l 61 427 q 52 577 61 503 q 43 726 43 651 q 45 827 43 774 q 63 925 47 880 q 113 998 79 970 q 210 1027 146 1027 q 236 1027 221 1027 q 264 1023 251 1027 q 286 1011 277 1020 q 296 986 296 1002 q 284 954 296 962 q 255 945 273 947 q 218 939 237 943 q 186 918 199 936 q 179 904 183 916 q 175 888 175 892 q 170 863 172 879 q 165 830 167 846 q 161 801 163 814 q 159 787 159 788 q 159 777 159 785 q 158 755 159 768 q 157 730 157 743 q 157 709 157 718 q 157 656 157 681 q 159 608 157 632 q 163 560 160 585 q 170 506 165 536 l 180 506 l 363 614 q 397 628 382 618 q 431 637 412 637 q 471 628 450 637 q 491 598 491 618 q 484 576 491 583 q 473 557 477 570 q 453 549 468 556 q 433 540 438 543 q 398 519 422 533 q 349 489 374 505 q 301 460 323 473 q 273 442 279 446 q 250 426 263 435 q 223 406 236 416 q 201 389 210 396 q 191 381 191 381 l 191 368 l 227 252 q 226 243 225 248 q 232 236 227 239 l 296 42 q 286 1 302 18 q 247 -15 269 -15 q 199 -2 222 -15 q 170 37 176 11 l 95 282 l 90 293 l 90 293 m 439 95 q 442 206 439 152 q 445 317 445 260 q 442 621 441 472 q 429 925 444 769 q 441 960 429 951 q 477 968 453 968 q 531 950 509 968 q 555 899 553 932 q 559 517 552 707 q 567 134 567 328 l 567 30 q 544 8 559 19 q 514 0 529 -3 q 457 32 475 7 q 439 95 439 57 z "},"":{"ha":606,"x_min":-65,"x_max":598,"o":"m 43 210 q 47 418 43 315 q 50 627 50 521 q 44 749 50 688 q 38 871 38 810 q 50 903 38 890 q 80 917 61 917 q 129 903 113 917 q 152 869 145 890 q 159 823 159 849 q 159 773 159 798 q 159 746 159 768 q 161 699 160 724 q 163 652 163 674 q 164 625 164 631 l 164 581 q 161 406 164 492 q 159 229 159 319 l 159 172 q 161 154 159 165 q 164 142 163 142 l 175 142 l 496 270 q 515 280 507 279 q 534 281 524 281 q 552 280 541 281 q 573 276 563 279 q 591 267 583 273 q 598 248 598 260 q 564 194 598 217 q 475 151 521 171 q 381 119 429 132 l 374 114 q 253 62 309 96 q 136 0 197 28 l 123 0 q 69 24 87 0 q 46 82 52 49 q 42 151 41 115 q 43 210 43 187 m -65 389 q -49 422 -65 412 q -14 437 -33 433 l 327 471 q 370 463 350 471 q 391 427 391 454 q 382 412 391 420 q 362 397 373 404 q 339 386 351 391 q 321 384 327 381 l -14 347 q -48 359 -31 347 q -65 389 -65 370 z "},"":{"ha":1015,"x_min":31,"x_max":993,"o":"m 100 52 q 102 60 100 54 q 106 69 104 66 q 129 104 111 79 q 182 186 146 130 q 277 333 218 241 q 425 567 335 425 l 387 567 l 122 526 l 109 526 q 85 531 99 526 q 60 543 72 536 q 39 560 47 551 q 31 581 31 570 q 42 611 31 601 q 69 626 53 621 q 103 631 85 631 q 134 631 121 631 l 426 670 q 444 671 427 670 q 467 671 460 671 q 505 671 484 671 q 542 667 525 671 q 570 650 559 662 q 581 613 581 637 q 572 587 581 600 q 553 567 563 574 l 330 208 q 298 166 309 194 q 271 119 286 138 q 278 115 274 115 q 286 114 282 114 l 294 114 l 930 201 q 970 190 948 201 q 993 156 993 179 q 985 123 993 136 q 959 98 977 110 q 865 96 924 98 q 715 83 806 94 q 499 54 625 73 q 203 0 373 34 q 194 -1 199 -1 l 182 -1 q 158 1 172 -1 q 131 9 144 4 q 109 24 118 15 q 100 49 100 34 l 100 52 m 335 1027 q 336 1038 331 1032 q 352 1046 342 1043 q 374 1052 362 1050 q 393 1054 385 1054 q 407 1052 396 1054 q 420 1047 418 1050 q 465 996 449 1016 q 491 964 481 977 q 504 947 500 952 q 511 937 507 941 l 517 935 l 601 1020 q 650 1036 614 1036 q 680 1034 669 1036 q 690 1020 690 1031 q 690 1014 690 1016 q 685 1006 689 1012 q 673 994 682 1002 q 654 975 665 985 q 635 955 644 964 q 623 943 627 945 q 619 938 623 941 q 614 935 616 935 q 600 920 610 930 q 576 897 589 909 q 553 875 564 886 q 538 860 543 864 q 525 853 532 854 q 507 852 518 852 q 481 853 495 852 q 463 861 468 854 q 451 882 460 867 q 439 901 442 897 l 335 1027 z "},"":{"ha":1020,"x_min":30,"x_max":1005,"o":"m 170 54 q 170 62 170 57 q 172 69 171 68 l 366 437 q 376 463 370 446 q 388 497 382 480 q 397 528 393 514 q 401 544 401 541 l 401 559 q 304 538 357 559 q 199 502 251 517 q 103 494 148 487 q 30 559 58 502 q 49 585 30 575 q 80 595 68 595 q 97 593 83 595 q 114 590 111 590 q 193 606 153 594 q 271 631 232 618 q 348 652 309 643 q 425 658 387 661 q 460 657 441 658 q 497 652 480 656 q 526 635 514 647 q 538 601 538 623 q 532 562 538 582 q 515 526 526 541 l 355 155 l 355 142 l 453 189 l 458 189 l 901 327 l 922 327 q 947 325 933 327 q 974 318 962 323 q 994 304 986 313 q 1002 279 1002 294 q 981 248 1005 262 q 911 222 956 235 q 805 195 867 209 q 671 159 743 180 q 520 109 600 138 q 361 35 441 79 q 340 31 357 37 q 304 18 324 26 q 267 5 285 11 q 240 -1 248 -1 q 194 14 218 -1 q 170 54 170 30 m 338 1027 q 339 1038 334 1032 q 355 1046 345 1043 q 376 1052 365 1050 q 396 1054 388 1054 q 410 1052 399 1054 q 423 1047 420 1050 q 468 996 452 1016 q 494 964 484 977 q 507 947 503 952 q 514 937 510 941 l 519 935 l 604 1020 q 652 1036 617 1036 q 682 1034 671 1036 q 693 1020 693 1031 q 692 1014 693 1016 q 688 1006 692 1012 q 676 994 685 1002 q 657 975 667 985 q 638 955 647 964 q 625 943 629 945 q 622 938 625 941 q 617 935 618 935 q 602 920 613 930 q 579 897 591 909 q 556 875 567 886 q 541 860 545 864 q 528 853 534 854 q 510 852 521 852 q 484 853 498 852 q 465 861 471 854 q 454 882 463 867 q 442 901 445 897 l 338 1027 z "},"":{"ha":175,"x_min":31,"x_max":140,"o":"m 31 685 q 33 719 31 694 q 37 770 35 743 q 41 822 39 798 q 42 857 42 846 q 85 891 52 891 q 127 874 115 891 q 140 830 140 857 q 139 798 140 822 q 136 744 138 774 q 130 680 133 713 q 121 620 126 647 q 107 575 115 593 q 90 559 99 557 q 60 573 71 562 q 42 600 49 585 q 33 631 35 614 q 31 663 31 648 l 31 685 z "},"":{"ha":175,"x_min":31,"x_max":140,"o":"m 31 685 q 33 719 31 694 q 37 770 35 743 q 41 822 39 798 q 42 857 42 846 q 85 891 52 891 q 127 874 115 891 q 140 830 140 857 q 139 798 140 822 q 136 744 138 774 q 130 680 133 713 q 121 620 126 647 q 107 575 115 593 q 90 559 99 557 q 60 573 71 562 q 42 600 49 585 q 33 631 35 614 q 31 663 31 648 l 31 685 z "},"":{"ha":343,"x_min":58,"x_max":308,"o":"m 199 917 q 208 948 194 939 q 240 958 222 958 q 275 942 263 958 q 292 906 288 926 q 295 852 293 890 q 300 771 297 814 q 305 690 302 728 q 308 636 308 651 l 308 605 q 307 584 308 591 q 304 571 307 576 q 294 561 301 566 q 275 551 288 556 l 271 551 q 236 571 247 551 q 221 619 225 591 q 218 674 217 647 q 217 715 218 701 q 214 755 216 727 q 209 816 212 784 q 203 876 206 848 q 199 917 201 905 m 58 686 q 62 745 60 709 q 68 814 65 780 q 73 872 71 848 q 75 898 75 897 l 85 932 q 94 934 85 933 q 106 935 102 935 q 153 913 145 935 q 161 856 161 891 q 156 719 161 788 q 142 583 151 650 q 117 559 141 559 q 87 572 99 559 q 70 602 76 585 q 61 637 64 618 q 58 669 58 656 l 58 686 z "},"":{"ha":343,"x_min":58,"x_max":308,"o":"m 199 917 q 208 948 194 939 q 240 958 222 958 q 275 942 263 958 q 292 906 288 926 q 295 852 293 890 q 300 771 297 814 q 305 690 302 728 q 308 636 308 651 l 308 605 q 307 584 308 591 q 304 571 307 576 q 294 561 301 566 q 275 551 288 556 l 271 551 q 236 571 247 551 q 221 619 225 591 q 218 674 217 647 q 217 715 218 701 q 214 755 216 727 q 209 816 212 784 q 203 876 206 848 q 199 917 201 905 m 58 686 q 62 745 60 709 q 68 814 65 780 q 73 872 71 848 q 75 898 75 897 l 85 932 q 94 934 85 933 q 106 935 102 935 q 153 913 145 935 q 161 856 161 891 q 156 719 161 788 q 142 583 151 650 q 117 559 141 559 q 87 572 99 559 q 70 602 76 585 q 61 637 64 618 q 58 669 58 656 l 58 686 z "},"":{"ha":343,"x_min":47,"x_max":297,"o":"m 189 335 q 197 366 183 357 q 229 376 212 376 q 264 360 252 376 q 281 324 277 345 q 284 270 282 308 q 289 189 286 232 q 294 108 292 146 q 297 54 297 69 l 297 23 q 296 2 297 9 q 293 -11 296 -5 q 283 -21 290 -16 q 264 -31 277 -26 l 260 -31 q 225 -11 236 -31 q 210 37 214 9 q 207 92 206 65 q 206 133 208 119 q 203 174 205 145 q 198 234 201 202 q 193 294 195 266 q 189 335 190 323 m 47 104 q 52 163 49 127 q 57 232 54 198 q 62 290 60 266 q 64 316 64 315 l 75 350 q 83 352 75 351 q 95 353 91 353 q 142 331 134 353 q 151 274 151 309 q 145 137 151 206 q 132 1 140 68 q 106 -23 130 -23 q 77 -10 88 -23 q 59 20 65 3 q 50 56 53 37 q 47 87 47 75 l 47 104 z "},"":{"ha":175,"x_min":23,"x_max":132,"o":"m 23 114 q 25 148 23 123 q 29 199 27 172 q 33 251 31 227 q 34 286 34 275 q 77 320 43 320 q 119 303 107 320 q 132 259 132 286 q 131 227 132 251 q 127 173 130 203 q 121 109 125 142 q 113 49 118 76 q 99 4 107 22 q 81 -12 91 -14 q 52 2 62 -9 q 34 28 41 14 q 25 60 27 43 q 23 92 23 77 l 23 114 z "},"":{"ha":726,"x_min":7,"x_max":727,"o":"m 9 456 q 22 492 7 481 q 56 507 37 502 q 124 530 88 519 q 214 552 160 540 q 216 563 216 559 q 217 570 217 567 l 217 572 q 243 663 229 614 q 279 754 256 712 q 336 825 301 796 q 427 853 372 853 q 471 850 452 853 q 509 838 491 846 q 543 819 526 830 q 579 791 560 807 q 595 776 593 779 q 597 760 597 773 q 585 726 597 742 q 549 709 572 709 q 518 718 530 709 q 494 739 506 727 q 470 759 483 750 q 437 768 457 768 q 399 756 415 768 q 371 727 382 745 q 353 688 359 709 q 345 647 347 666 l 334 578 q 393 591 361 585 q 461 606 425 598 l 468 606 q 481 604 473 606 q 496 596 488 601 q 509 586 503 591 q 514 575 514 581 q 505 542 514 557 q 480 519 495 526 q 399 493 439 505 q 319 471 358 481 l 308 400 q 382 429 345 411 q 428 441 412 438 q 467 445 444 445 q 506 438 484 445 q 530 411 528 431 q 523 390 529 406 q 514 372 517 374 q 501 362 511 369 q 486 353 491 355 q 387 324 435 345 q 290 282 339 304 l 281 213 q 280 200 281 210 q 279 184 279 190 q 279 161 279 175 q 282 132 279 146 q 292 108 285 118 q 312 98 298 98 q 319 100 316 98 q 327 103 321 102 q 471 161 411 126 q 572 229 532 197 q 636 285 613 262 q 671 308 659 308 q 708 292 690 308 q 726 254 726 275 l 726 251 q 694 204 727 244 q 601 119 661 164 q 460 37 541 73 q 282 0 378 0 l 275 0 q 193 68 214 23 q 172 175 172 114 l 172 208 l 176 244 q 159 241 168 241 q 142 239 151 240 q 96 253 119 239 q 72 293 72 267 q 126 334 96 317 q 191 363 156 351 q 196 406 194 387 q 201 441 198 425 q 147 427 174 434 q 94 410 121 419 q 70 412 84 410 q 43 420 56 415 q 20 435 30 426 q 9 456 11 444 z "},"":{"ha":707,"x_min":-68,"x_max":699,"o":"m -68 457 q -52 490 -68 480 q -16 505 -35 500 l 49 511 q 50 568 49 540 q 50 627 50 597 q 44 749 50 688 q 38 871 38 810 q 71 928 38 909 q 154 951 103 947 q 265 947 205 955 q 381 924 326 939 q 479 890 437 909 q 537 854 522 872 q 532 822 552 836 q 441 803 511 808 q 334 806 388 795 q 239 829 281 817 q 170 846 197 841 q 144 831 144 852 q 147 795 144 826 q 154 728 151 764 q 161 661 157 692 q 164 625 164 631 l 164 581 l 164 522 l 324 538 q 368 530 347 538 q 388 495 388 522 q 379 480 388 488 q 359 465 370 472 q 336 454 349 458 q 319 452 324 449 l 161 434 q 161 376 164 410 q 158 304 159 343 q 160 224 157 266 q 175 142 163 183 q 319 205 258 190 q 425 216 380 221 q 500 191 469 210 q 554 151 532 172 q 593 114 576 130 q 628 98 610 98 q 647 93 635 98 q 671 80 659 88 q 690 62 682 72 q 699 39 699 52 q 665 -15 699 8 q 626 -12 651 -20 q 571 11 601 -4 q 509 43 541 26 q 445 75 476 61 q 387 94 414 88 q 343 90 361 99 q 286 71 311 81 q 237 50 260 61 q 190 26 214 39 q 136 0 165 14 l 123 0 q 69 24 87 0 q 46 82 52 49 q 42 151 41 115 q 43 210 43 187 q 44 316 43 263 q 46 422 45 369 l -16 415 q -51 427 -34 415 q -68 457 -68 438 z "},"":{"ha":605,"x_min":5,"x_max":585,"o":"m 60 396 q 72 432 57 422 q 106 448 87 442 q 170 468 137 458 q 250 488 202 477 l 250 533 l 232 549 q 212 574 228 553 q 176 622 195 595 q 138 675 156 648 q 110 716 119 701 q 91 745 103 724 q 64 788 79 765 q 39 832 50 811 q 23 861 27 853 q 11 892 16 875 q 11 922 5 909 q 37 949 18 945 q 76 947 57 954 q 102 937 90 944 q 123 914 115 929 q 199 772 155 845 q 294 640 243 699 l 305 655 l 468 987 q 490 1001 475 1002 q 517 997 505 1000 q 563 906 585 977 l 563 903 q 547 878 563 903 q 508 816 532 853 q 458 735 484 779 q 408 654 431 692 q 368 592 384 617 q 353 566 353 567 q 339 509 342 555 q 511 547 411 524 l 518 547 q 531 544 524 547 q 546 536 538 541 q 559 526 553 532 q 564 515 564 521 q 555 482 564 498 q 530 460 545 467 q 437 429 483 442 q 343 404 391 416 q 345 372 345 388 q 347 338 346 355 q 391 351 370 345 q 433 369 412 358 q 478 382 463 378 q 517 385 494 385 q 556 378 534 385 q 581 351 578 372 q 573 330 579 346 q 564 312 567 315 q 551 302 562 309 q 536 293 541 296 q 445 267 490 286 q 357 229 400 248 q 361 133 359 184 q 359 37 362 81 q 345 -37 355 -7 q 316 -66 335 -66 q 277 -41 292 -60 q 260 4 262 -22 l 252 190 q 222 183 237 186 q 193 179 208 180 q 146 193 170 179 q 122 233 122 208 q 182 277 149 260 q 251 307 214 294 l 251 381 q 197 367 224 374 q 144 350 171 359 q 120 353 134 350 q 93 361 106 355 q 71 375 80 366 q 60 396 61 384 z "},"":{"ha":547,"x_min":30,"x_max":510,"o":"m 170 621 q 136 612 151 621 q 100 602 121 602 q 86 603 98 602 q 72 604 75 604 q 60 614 66 610 q 46 623 53 618 q 35 635 39 628 q 30 654 30 642 q 46 687 30 674 q 84 709 62 700 q 128 727 106 719 q 164 746 151 735 l 164 806 q 161 889 164 856 q 155 953 159 922 q 148 1017 151 983 q 145 1099 145 1050 q 159 1134 145 1126 q 195 1142 172 1142 q 235 1126 222 1142 q 254 1088 248 1111 q 259 1041 259 1066 q 260 998 259 1016 q 263 953 260 981 q 269 895 266 925 q 274 838 271 865 q 278 792 277 810 q 299 800 283 793 q 332 812 315 806 q 366 823 350 818 q 388 831 381 829 q 410 841 406 838 q 418 844 415 844 q 428 843 422 844 q 454 842 434 842 q 496 824 481 842 q 510 781 510 806 q 496 755 510 764 q 468 741 483 747 l 305 689 q 297 684 301 686 q 289 678 293 682 l 289 635 q 291 536 289 587 q 300 438 293 486 q 304 393 301 425 q 311 322 308 362 q 318 238 315 282 q 324 154 321 194 q 329 83 327 114 q 331 38 331 52 q 323 5 331 26 q 297 -15 315 -15 q 237 7 260 -15 q 212 65 214 28 q 206 132 209 88 q 200 228 203 175 q 193 339 197 281 q 186 452 190 397 q 180 551 183 506 q 175 621 178 595 l 170 621 z "},"":{"ha":547,"x_min":30,"x_max":532,"o":"m 53 457 q 69 490 53 480 q 104 505 85 500 l 182 528 q 178 581 179 557 q 175 621 176 605 l 170 621 q 136 612 151 621 q 100 602 121 602 q 86 603 98 602 q 72 604 75 604 q 60 614 66 610 q 46 623 53 618 q 35 635 39 628 q 30 654 30 642 q 46 687 30 674 q 84 709 62 700 q 128 727 106 719 q 164 746 151 735 l 164 806 q 161 889 164 856 q 155 953 159 922 q 148 1017 151 983 q 145 1099 145 1050 q 159 1134 145 1126 q 195 1142 172 1142 q 235 1126 222 1142 q 254 1088 248 1111 q 259 1041 259 1066 q 260 998 259 1016 q 263 953 260 981 q 269 895 266 925 q 274 838 271 865 q 278 792 277 810 q 299 800 283 793 q 332 812 315 806 q 366 823 350 818 q 388 831 381 829 q 410 841 406 838 q 418 844 415 844 q 428 843 422 844 q 454 842 434 842 q 496 824 481 842 q 510 781 510 806 q 496 755 510 764 q 468 741 483 747 l 305 689 q 297 684 301 686 q 289 678 293 682 l 289 635 q 289 597 289 616 q 290 560 289 579 l 468 613 q 511 605 491 613 q 532 570 532 597 q 523 555 532 563 q 503 540 514 547 q 480 528 492 533 q 463 526 468 524 l 296 475 l 300 438 q 304 393 301 425 q 311 322 308 362 q 318 238 315 282 q 324 154 321 194 q 329 83 327 114 q 331 38 331 52 q 323 5 331 26 q 297 -15 315 -15 q 237 7 260 -15 q 212 65 214 28 q 206 130 209 88 q 200 222 203 171 q 193 331 197 274 q 187 441 190 388 l 104 415 q 70 427 87 415 q 53 457 53 438 z "},"":{"ha":525,"x_min":30,"x_max":492,"o":"m 30 52 q 44 87 30 71 q 77 103 58 103 q 115 91 100 103 q 142 64 129 79 l 142 60 q 127 18 142 37 q 85 0 111 0 q 49 16 68 0 q 30 52 30 33 m 205 52 q 219 87 205 71 q 252 103 233 103 q 290 91 275 103 q 317 64 304 79 l 317 60 q 302 18 317 37 q 260 0 286 0 q 224 16 243 0 q 205 52 205 33 m 380 52 q 394 87 380 71 q 427 103 408 103 q 465 91 450 103 q 492 64 479 79 l 492 60 q 477 18 492 37 q 435 0 461 0 q 399 16 418 0 q 380 52 380 33 z "},"":{"ha":397,"x_min":-20,"x_max":491,"o":"m 90 293 q 43 298 60 288 q 19 323 26 308 q 13 355 12 339 q 19 374 14 370 q 37 385 23 376 q 54 397 52 395 q 58 399 56 397 q 61 403 60 401 l 61 427 q 52 577 61 503 q 43 726 43 651 q 45 827 43 774 q 63 925 47 880 q 113 998 79 970 q 210 1027 146 1027 q 236 1027 221 1027 q 264 1023 251 1027 q 286 1011 277 1020 q 296 986 296 1002 q 284 954 296 962 q 255 945 273 947 q 218 939 237 943 q 186 918 199 936 q 179 904 183 916 q 175 888 175 892 q 170 863 172 879 q 165 830 167 846 q 161 801 163 814 q 159 787 159 788 q 159 777 159 785 q 158 755 159 768 q 157 730 157 743 q 157 709 157 718 q 157 656 157 681 q 159 608 157 632 q 163 560 160 585 q 170 506 165 536 l 180 506 l 363 614 q 397 628 382 618 q 431 637 412 637 q 471 628 450 637 q 491 598 491 618 q 484 576 491 583 q 473 557 477 570 q 453 549 468 556 q 433 540 438 543 q 398 519 422 533 q 349 489 374 505 q 301 460 323 473 q 273 442 279 446 q 250 426 263 435 q 223 406 236 416 q 201 389 210 396 q 191 381 191 381 l 191 368 l 269 -243 q 258 -283 275 -267 q 220 -300 241 -300 q 50 -287 102 -300 q -12 -256 -3 -274 q 2 -220 -20 -239 q 56 -189 24 -201 q 115 -176 87 -178 q 144 -191 142 -175 l 95 282 l 90 293 l 90 293 z "},"":{"ha":614,"x_min":18,"x_max":579,"o":"m 258 161 q 239 161 254 161 q 208 159 225 160 q 176 157 190 157 q 157 156 161 156 l 117 156 q 83 158 100 156 q 51 166 65 160 q 27 184 37 172 q 18 218 18 197 q 29 249 18 237 q 53 275 41 260 q 68 296 57 281 q 93 327 80 311 q 117 357 106 343 q 133 378 129 372 q 147 401 137 392 q 163 423 157 410 l 305 647 q 318 675 313 659 q 329 704 323 690 q 345 726 335 718 q 373 735 354 735 q 421 713 403 735 q 442 665 439 692 q 441 656 444 662 q 437 647 439 650 l 266 378 q 245 348 259 363 q 218 317 232 332 q 195 285 205 301 q 184 254 184 269 q 357 249 273 254 q 529 235 441 244 q 542 222 533 227 q 559 212 551 217 q 573 201 567 208 q 579 180 579 194 q 524 126 579 126 q 493 133 505 126 q 465 142 481 140 q 362 157 414 153 q 258 161 311 161 z "},"":{"ha":1139,"x_min":103,"x_max":1028,"o":"m 304 302 q 288 309 301 304 q 258 321 274 315 q 228 334 241 328 q 212 340 214 339 q 195 349 209 342 q 175 358 180 355 q 144 374 160 365 q 119 395 129 384 q 106 422 109 407 q 113 457 103 438 q 136 479 121 475 q 168 494 151 484 q 192 505 175 496 q 227 522 209 513 q 262 539 245 530 q 285 552 278 548 q 308 566 296 563 q 331 579 320 570 l 556 720 q 581 740 570 728 q 602 761 591 751 q 626 774 613 770 q 655 770 639 779 q 690 730 682 757 q 688 677 699 703 q 683 670 688 674 q 675 663 678 666 l 406 495 q 374 476 393 484 q 336 459 355 468 q 301 440 317 450 q 278 416 285 430 q 431 338 358 378 q 581 251 505 297 q 587 234 581 241 q 598 219 593 227 q 606 202 604 212 q 602 180 608 193 q 572 151 591 157 q 529 156 552 145 q 505 175 513 164 q 483 195 498 186 q 397 254 442 228 q 304 302 351 279 m 633 288 q 617 294 631 289 q 587 307 604 300 q 557 319 571 313 q 541 326 544 324 q 524 334 538 327 q 505 343 510 340 q 474 359 490 350 q 448 380 458 369 q 435 408 438 392 q 442 442 433 423 q 465 465 450 460 q 498 479 480 469 q 522 490 505 481 q 557 507 538 498 q 591 525 575 517 q 614 537 608 533 q 637 551 625 548 q 661 564 650 555 l 886 705 q 910 725 899 713 q 932 746 921 736 q 956 760 943 755 q 986 755 968 764 q 1021 715 1013 742 q 1017 662 1028 688 q 1013 655 1017 659 q 1005 648 1008 651 l 735 480 q 704 461 723 469 q 666 445 685 453 q 631 427 647 437 q 608 403 614 416 q 761 323 688 363 q 910 236 834 283 q 916 219 910 227 q 928 204 922 212 q 935 187 933 197 q 932 165 937 178 q 901 136 921 142 q 859 141 882 130 q 835 161 842 149 q 812 180 827 172 q 726 239 772 213 q 633 288 681 264 z "},"":{"ha":585,"x_min":20,"x_max":562,"o":"m 144 148 q 150 167 144 157 q 165 184 156 176 q 183 199 174 193 q 201 210 193 206 l 418 514 q 423 529 423 522 l 423 533 l 52 675 q 44 682 49 675 q 35 696 39 688 q 26 711 30 704 q 22 722 22 719 q 29 739 20 731 q 50 751 38 746 q 73 758 61 755 q 90 760 85 760 q 199 707 142 728 q 313 665 255 685 q 429 627 370 646 q 544 582 487 608 q 557 562 553 570 q 562 544 562 555 q 543 498 562 517 q 510 457 525 479 q 450 368 477 411 q 393 284 422 326 q 332 202 365 243 q 256 119 298 161 q 241 107 254 115 q 222 96 228 99 q 198 96 212 94 q 172 106 184 99 q 152 123 160 113 q 144 148 144 134 z "},"":{"ha":894,"x_min":20,"x_max":817,"o":"m 144 148 q 150 167 144 157 q 165 184 156 176 q 183 199 174 193 q 201 210 193 206 l 418 514 q 423 529 423 522 l 423 533 l 52 675 q 44 682 49 675 q 35 696 39 688 q 26 711 30 704 q 22 722 22 719 q 29 739 20 731 q 50 751 38 746 q 73 758 61 755 q 90 760 85 760 q 199 707 142 728 q 313 665 255 685 q 429 627 370 646 q 544 582 487 608 q 557 562 553 570 q 562 544 562 555 q 543 498 562 517 q 510 457 525 479 q 450 368 477 411 q 393 284 422 326 q 332 202 365 243 q 256 119 298 161 q 241 107 254 115 q 222 96 228 99 q 198 96 212 94 q 172 106 184 99 q 152 123 160 113 q 144 148 144 134 m 399 193 q 405 212 399 202 q 420 229 411 221 q 438 244 429 237 q 456 255 448 251 l 673 559 q 678 574 678 567 l 678 578 l 307 720 q 299 726 304 720 q 290 741 294 732 q 281 756 285 749 q 277 766 277 764 q 284 783 275 776 q 304 795 293 791 q 328 802 316 800 q 345 804 340 804 q 454 751 397 773 q 568 710 510 730 q 684 671 625 690 q 799 627 742 652 q 812 607 808 614 q 817 589 817 600 q 798 543 817 562 q 765 502 780 524 q 705 413 732 456 q 648 329 677 370 q 587 247 620 288 q 511 164 553 206 q 496 152 509 160 q 477 141 483 144 q 453 141 467 138 q 427 151 439 144 q 407 168 415 157 q 399 193 399 179 z "},"":{"ha":609,"x_min":19,"x_max":576,"o":"m 175 129 l 140 -98 q 126 -120 136 -114 q 106 -127 117 -126 q 85 -129 95 -129 q 69 -130 75 -129 q 32 -117 45 -130 q 19 -81 19 -103 l 53 627 q 63 642 53 628 q 80 663 73 656 q 100 673 91 673 q 125 674 110 674 q 150 673 138 674 q 168 656 161 671 q 173 454 164 538 q 197 311 182 369 q 233 216 213 252 q 273 161 254 180 q 309 134 293 141 q 334 127 326 127 q 368 162 354 134 q 387 229 381 190 q 391 316 392 269 q 384 410 391 363 q 364 496 377 456 q 334 560 351 536 l 334 575 q 359 627 334 608 q 422 647 385 647 q 461 627 449 647 q 469 589 473 608 l 526 281 q 545 210 534 250 q 564 132 556 171 q 574 58 571 92 q 570 1 576 23 q 546 -26 564 -22 q 495 -12 528 -31 q 481 15 484 -7 q 477 58 479 37 q 475 92 476 79 q 468 94 475 104 q 408 34 445 58 q 316 9 370 9 q 264 22 285 9 q 229 56 243 35 q 203 100 214 76 q 180 145 193 123 l 175 129 z "},"":{"ha":175,"x_min":34,"x_max":146,"o":"m 34 385 q 48 420 34 404 q 81 437 62 437 q 119 425 104 437 q 146 397 133 412 l 146 393 q 131 352 146 370 q 90 334 115 334 q 53 350 72 334 q 34 385 34 366 z "},"":{"ha":359,"x_min":69,"x_max":301,"o":"m 69 399 q 77 437 69 418 q 99 473 85 457 q 130 498 113 488 q 167 507 148 507 q 243 482 213 507 q 301 425 274 457 l 301 416 q 292 370 301 392 q 269 330 283 347 q 231 301 254 312 q 183 290 209 290 q 145 300 165 290 q 108 325 125 309 q 80 360 91 340 q 69 399 69 380 z "},"":{"ha":555,"x_min":73,"x_max":529,"o":"m 73 343 q 90 376 73 366 q 125 391 106 387 l 465 425 q 509 416 488 425 q 529 381 529 408 q 520 366 529 374 q 500 351 511 358 q 477 340 490 345 q 460 338 465 335 l 125 301 q 90 313 107 301 q 73 343 73 324 z "},"":{"ha":842,"x_min":73,"x_max":719,"o":"m 73 343 q 90 376 73 366 q 125 391 106 387 l 655 433 q 699 425 678 433 q 719 389 719 416 q 710 374 719 382 q 690 359 701 366 q 667 348 680 353 q 650 346 655 343 l 125 301 q 90 313 107 301 q 73 343 73 324 z "},"":{"ha":745,"x_min":22,"x_max":716,"o":"m 235 49 q 283 94 256 79 q 337 118 309 109 q 393 136 365 127 q 448 165 420 145 q 490 190 463 174 q 543 226 517 206 q 589 264 570 245 q 609 297 609 283 q 608 298 609 298 q 605 300 605 298 l 602 302 q 581 309 595 305 q 563 315 566 313 q 281 351 388 335 q 117 384 175 366 q 41 425 60 401 q 22 483 22 448 q 27 513 22 496 q 40 545 33 529 q 56 575 47 562 q 71 597 64 589 q 127 646 92 624 q 203 684 163 667 q 286 712 244 700 q 361 734 327 724 q 437 752 399 736 q 514 773 476 768 q 545 758 533 773 q 557 727 557 743 q 549 692 557 704 q 526 675 540 681 q 494 665 511 669 q 458 658 476 662 q 429 650 448 655 q 391 640 410 646 q 357 631 372 635 q 339 625 342 627 q 260 592 297 608 q 195 560 222 576 q 151 526 167 544 q 137 486 136 507 l 137 484 q 198 456 151 465 q 310 439 245 446 q 446 426 374 433 q 576 406 517 419 q 675 369 636 392 q 716 307 715 346 q 710 271 716 292 q 693 240 704 251 q 612 161 659 202 q 511 86 566 121 q 399 28 457 52 q 286 0 342 4 q 251 14 267 0 q 235 49 235 28 m 201 1027 q 202 1038 197 1032 q 218 1046 208 1043 q 239 1052 228 1050 q 259 1054 251 1054 q 273 1052 262 1054 q 286 1047 283 1050 q 331 996 315 1016 q 357 964 347 977 q 370 947 366 952 q 377 937 373 941 l 382 935 l 467 1020 q 515 1036 480 1036 q 545 1034 534 1036 q 556 1020 556 1031 q 555 1014 556 1016 q 551 1006 555 1012 q 539 994 548 1002 q 520 975 530 985 q 501 955 510 964 q 488 943 492 945 q 485 938 488 941 q 480 935 481 935 q 465 920 476 930 q 442 897 454 909 q 419 875 430 886 q 404 860 408 864 q 391 853 397 854 q 373 852 384 852 q 347 853 361 852 q 328 861 334 854 q 317 882 326 867 q 305 901 308 897 l 201 1027 z "},"":{"ha":865,"x_min":28,"x_max":838,"o":"m 30 240 q 30 283 31 248 q 29 371 28 319 q 32 486 30 423 q 41 612 34 548 q 63 734 49 675 q 100 837 77 793 q 140 888 109 873 q 228 905 171 902 q 290 886 264 905 q 334 839 316 867 q 366 779 353 811 q 391 720 380 746 l 391 713 q 405 633 400 686 q 412 520 410 579 q 414 407 414 461 q 414 324 414 353 q 403 227 414 283 q 368 121 392 171 q 307 35 345 71 q 216 0 269 0 q 136 23 171 0 q 78 82 102 46 q 42 160 54 118 q 30 240 30 202 m 161 149 q 177 119 164 134 q 208 103 190 103 l 218 103 q 293 222 275 155 q 311 363 311 289 q 309 418 311 381 q 304 500 308 454 q 296 595 301 545 q 282 690 290 646 q 263 766 274 734 q 237 811 252 799 q 234 806 236 810 q 232 800 232 802 q 180 704 203 765 q 146 559 157 643 q 136 372 134 476 q 161 149 138 269 m 397 34 q 377 136 384 88 q 368 239 370 184 q 368 292 366 270 q 362 342 369 315 q 356 350 361 347 q 347 357 351 353 q 338 367 342 361 q 334 387 334 373 q 338 406 334 397 q 348 421 343 414 q 357 437 353 429 q 362 458 362 446 l 362 479 q 359 525 362 492 q 354 594 357 557 q 349 663 351 631 q 346 708 347 696 q 334 749 345 731 q 323 789 323 766 q 340 850 323 833 q 403 868 358 868 q 418 860 412 868 q 433 852 425 852 l 438 852 q 450 855 442 853 q 461 857 458 857 q 639 933 575 906 q 735 972 703 960 q 779 986 768 985 q 799 983 791 987 q 821 973 815 981 q 827 951 827 966 q 823 924 827 937 q 804 903 819 910 l 627 818 l 621 812 l 472 749 q 463 735 464 746 q 461 718 461 724 q 464 678 461 707 q 469 619 467 650 q 475 565 472 589 q 480 541 479 541 l 481 541 q 483 543 481 541 q 530 580 498 553 q 597 633 563 606 q 656 682 631 661 q 684 703 682 703 q 711 688 699 703 q 723 656 723 673 q 716 620 723 640 q 694 589 709 600 l 483 400 q 483 393 483 400 q 482 378 483 387 q 481 361 481 370 q 481 347 481 353 q 488 250 481 298 q 495 153 495 202 l 500 153 q 513 164 502 153 q 529 182 524 175 q 542 199 532 186 q 576 244 552 213 q 642 327 601 275 q 746 457 682 378 q 762 473 751 463 q 774 484 772 484 q 791 488 779 488 q 810 484 804 487 q 827 469 817 481 q 838 446 838 457 q 821 404 838 430 q 781 349 804 377 q 735 294 758 320 q 700 251 712 267 q 654 178 681 221 q 597 97 628 136 q 528 31 566 58 q 449 3 491 3 q 420 9 429 3 q 397 34 411 16 z "},"":{"ha":1402,"x_min":14,"x_max":1371,"o":"m 655 41 q 648 341 652 191 q 643 642 643 491 q 643 665 643 650 q 643 701 643 681 q 644 742 643 720 q 644 783 644 764 l 397 720 l 397 708 q 405 625 397 666 q 410 544 412 585 l 456 125 l 456 95 q 455 62 456 79 q 450 31 454 45 q 434 9 445 18 q 401 0 423 0 q 367 14 385 0 q 347 46 349 27 l 296 585 l 296 595 q 292 623 294 606 q 288 656 290 640 q 285 682 286 671 q 283 693 283 693 l 273 693 l 118 647 q 96 636 111 636 q 72 636 80 636 q 33 653 53 636 q 14 690 14 670 q 24 720 14 705 q 49 739 34 734 l 267 808 q 283 839 271 823 q 313 854 294 854 q 345 845 332 854 q 374 830 358 836 q 415 838 387 831 q 475 852 444 845 q 536 867 507 860 q 575 876 564 873 q 600 883 591 879 q 625 887 608 887 q 667 876 646 887 q 694 883 678 883 q 735 869 718 883 q 764 836 753 854 l 959 458 q 968 442 960 456 q 981 423 977 429 q 985 420 982 422 q 987 418 987 419 l 993 430 l 1108 836 q 1126 878 1120 854 q 1140 925 1133 902 q 1159 968 1147 948 q 1194 1002 1171 989 l 1204 1002 q 1259 981 1241 1002 q 1283 930 1276 960 q 1289 866 1290 899 q 1290 808 1289 833 q 1292 772 1290 799 q 1297 708 1294 745 q 1302 630 1299 671 q 1307 552 1305 589 q 1311 488 1309 515 q 1313 453 1313 461 l 1313 448 q 1318 407 1314 435 q 1327 347 1322 378 q 1336 286 1332 315 q 1343 247 1340 258 q 1348 227 1344 240 q 1356 197 1351 213 q 1364 168 1360 182 q 1371 149 1369 155 q 1356 101 1366 118 q 1312 84 1345 84 q 1299 85 1308 84 q 1290 85 1291 85 q 1274 99 1286 88 q 1261 114 1263 110 l 1240 189 l 1199 498 l 1199 510 q 1198 562 1198 534 q 1197 618 1198 590 q 1194 675 1196 647 q 1183 728 1191 704 l 1176 720 l 1078 327 q 1076 295 1077 312 q 1069 262 1074 278 q 1053 236 1063 247 q 1021 224 1042 225 q 1004 227 1013 222 q 985 237 994 231 q 968 253 975 244 q 959 270 960 262 l 787 544 l 758 601 l 758 484 q 762 322 758 401 q 765 160 765 243 q 765 136 765 153 q 764 100 765 119 q 764 64 764 81 q 764 41 764 47 q 748 12 758 24 q 719 0 738 0 q 679 9 693 0 q 655 41 665 18 z "},"":{"ha":559,"x_min":19,"x_max":530,"o":"m 236 52 q 237 64 236 58 q 243 75 237 69 q 279 117 259 95 q 319 162 300 140 q 354 209 338 184 q 381 258 370 233 l 381 266 l 203 229 l 183 229 q 136 232 164 229 q 82 243 109 235 q 37 269 56 252 q 19 312 19 285 q 52 381 20 343 q 125 456 83 419 q 210 524 167 492 q 278 572 252 555 q 346 599 307 589 q 418 609 385 609 q 465 599 445 609 q 486 559 486 589 q 484 536 486 547 q 467 521 481 525 q 385 515 423 525 q 313 484 347 505 q 250 436 279 464 q 191 378 220 408 q 171 352 183 369 q 159 332 159 335 l 159 331 q 229 338 194 331 q 298 352 263 345 q 367 366 332 359 q 438 373 401 373 q 468 371 452 373 q 498 362 484 369 q 522 344 513 355 q 530 315 530 332 q 517 265 530 289 q 479 208 505 241 q 416 127 454 175 q 324 5 377 80 q 311 0 321 1 q 294 -1 301 -1 q 256 15 275 -1 q 236 52 236 31 m 107 876 q 109 887 103 882 q 124 896 114 892 q 146 901 134 899 q 165 903 157 903 q 179 901 168 903 q 193 897 190 899 q 237 846 221 865 q 263 814 254 826 q 276 796 273 802 q 283 787 279 791 l 289 784 l 373 869 q 422 886 387 886 q 452 883 441 886 q 463 869 463 880 q 462 863 463 865 q 457 856 461 861 q 446 843 454 852 q 427 824 437 834 q 408 804 416 814 q 395 792 399 795 q 391 787 395 791 q 387 784 388 784 q 372 769 382 780 q 349 747 361 758 q 326 724 336 735 q 311 709 315 713 q 297 703 304 704 q 279 701 290 701 q 254 703 267 701 q 235 711 240 704 q 223 731 232 716 q 212 750 214 746 l 107 876 z "},"":{"ha":921,"x_min":35,"x_max":892,"o":"m 892 370 q 886 332 890 346 q 875 308 883 319 q 852 286 867 297 q 811 253 837 274 q 747 198 785 232 q 655 110 709 164 q 610 68 633 90 q 562 29 587 46 q 510 1 537 12 q 453 -9 483 -9 q 376 19 403 -9 q 342 90 349 47 q 269 24 309 50 q 187 -1 228 -1 q 117 18 146 -1 q 70 66 88 37 q 43 132 52 95 q 35 203 35 168 l 35 208 l 85 556 q 101 582 88 574 q 130 590 114 590 q 178 573 160 590 q 208 532 195 556 l 209 532 q 238 538 225 532 q 270 544 251 544 q 353 508 321 544 q 404 423 385 472 q 417 460 411 444 q 426 483 423 476 q 447 530 435 506 q 474 572 458 553 q 511 604 490 591 q 560 616 532 616 q 600 601 576 616 q 646 565 624 586 q 682 521 667 544 q 697 481 697 498 q 688 444 697 461 q 664 413 678 427 q 633 387 650 399 q 604 363 617 374 q 598 361 602 363 q 591 357 594 358 q 585 351 590 355 q 575 340 581 346 q 565 330 570 335 q 559 323 560 324 q 543 310 555 319 q 518 291 532 301 q 493 272 505 281 q 477 260 481 263 l 472 250 q 467 226 469 244 q 463 184 465 208 q 458 138 460 161 q 456 99 456 114 q 457 96 456 98 q 461 94 460 94 q 481 103 472 94 q 502 117 491 113 l 719 317 l 774 403 q 801 424 781 412 q 841 436 821 435 q 877 423 861 437 q 892 370 892 410 m 149 199 q 155 168 152 186 q 163 136 157 151 q 178 115 168 122 q 208 114 189 107 q 240 144 222 127 q 274 181 258 161 q 303 222 290 201 q 323 266 316 243 q 342 320 339 289 q 338 381 346 351 q 315 433 331 411 q 277 458 298 454 q 229 444 255 463 q 178 372 203 425 q 155 290 160 336 q 149 203 149 243 l 149 199 m 594 476 q 600 492 601 481 q 592 511 598 503 q 576 522 586 519 q 559 511 567 524 q 545 490 555 506 q 524 456 534 473 q 507 427 514 439 q 505 418 500 415 l 594 476 z "},"":{"ha":410,"x_min":54,"x_max":342,"o":"m 54 963 q 68 998 54 982 q 102 1015 83 1015 q 139 1002 125 1015 q 167 975 153 990 l 167 971 q 151 930 167 948 q 110 911 136 911 q 73 928 92 911 q 54 963 54 944 m 229 963 q 243 998 229 982 q 277 1015 258 1015 q 314 1002 300 1015 q 342 975 328 990 l 342 971 q 326 930 342 948 q 285 911 311 911 q 248 928 267 911 q 229 963 229 944 z "},"":{"ha":378,"x_min":58,"x_max":332,"o":"m 186 1013 q 205 1016 197 1013 q 227 1019 214 1019 q 275 1006 255 1019 q 309 977 296 994 q 327 941 321 960 q 332 906 332 921 q 318 866 332 888 q 281 825 304 844 q 230 792 259 806 q 171 779 201 779 q 109 795 140 780 q 68 840 77 811 q 82 913 58 869 q 184 1013 106 956 l 186 1013 m 254 909 q 235 951 252 943 q 198 952 218 960 q 161 924 178 944 q 144 882 145 905 q 169 857 151 861 q 206 858 187 852 q 240 878 225 864 q 254 909 255 892 z "},"":{"ha":445,"x_min":77,"x_max":332,"o":"m 77 -183 q 92 -38 77 -88 q 132 31 107 12 q 186 47 156 50 q 248 33 217 43 q 245 31 247 33 q 241 27 243 28 q 182 -115 197 -54 q 182 -227 168 -176 q 226 -234 201 -245 q 262 -193 251 -222 q 300 -161 283 -163 q 324 -173 316 -159 q 332 -213 332 -187 q 319 -264 331 -239 q 281 -311 307 -290 q 216 -336 256 -332 q 113 -294 149 -336 q 77 -183 77 -252 z "},"":{"ha":235,"x_min":30,"x_max":199,"o":"m 30 783 q 36 813 30 798 q 52 841 42 829 q 75 861 62 853 q 102 869 88 869 q 158 849 136 869 q 199 803 180 829 l 199 796 q 176 727 199 758 q 114 696 153 696 q 85 704 100 696 q 58 724 71 712 q 38 752 46 736 q 30 783 30 768 z "},"":{"ha":675,"x_min":60,"x_max":612,"o":"m 62 95 q 74 119 64 102 q 100 160 84 137 q 136 212 115 183 q 176 270 156 240 q 171 331 171 297 l 171 335 l 210 609 q 188 658 198 635 q 167 701 178 681 q 168 704 167 701 l 168 707 q 193 735 175 727 q 231 738 212 743 q 266 718 252 731 q 296 650 278 667 q 343 659 313 633 l 345 659 q 374 665 361 659 q 406 671 387 671 q 421 670 414 671 q 437 666 429 669 q 471 721 452 690 q 518 791 491 751 q 540 801 525 802 q 566 798 555 800 q 598 775 585 792 q 605 735 612 758 q 604 731 605 734 q 602 728 604 728 l 521 594 q 555 504 544 553 q 566 416 566 454 q 555 355 566 388 q 526 289 545 321 l 590 197 l 590 190 q 591 184 590 187 q 591 180 591 182 l 591 178 q 566 149 585 156 q 528 148 547 142 q 498 168 513 152 q 467 205 483 183 q 398 148 435 170 q 323 126 361 126 q 275 134 296 126 q 239 155 255 141 q 180 71 212 107 q 109 37 148 35 q 91 44 100 38 q 75 58 81 50 q 64 76 68 66 q 62 95 60 85 m 271 324 q 277 293 274 311 q 285 261 279 275 q 300 239 290 247 q 330 239 311 232 q 368 275 347 255 q 406 319 388 296 q 437 368 425 342 q 449 422 449 393 q 442 507 454 468 q 408 562 430 545 q 357 566 385 579 q 300 496 328 553 q 277 414 283 461 q 271 328 271 368 l 271 324 z "},"":{"ha":480,"x_min":20,"x_max":450,"o":"m 186 519 q 190 637 189 595 q 197 700 191 680 q 212 723 202 720 q 241 722 222 726 q 277 713 267 720 q 290 692 288 707 q 290 651 292 677 q 290 586 288 625 q 345 592 319 595 q 391 570 370 589 q 427 515 412 551 q 445 422 441 479 q 448 413 446 419 q 450 404 450 407 q 438 392 448 397 q 415 384 429 387 q 388 380 401 381 q 366 378 374 378 q 363 396 366 385 q 355 419 359 407 q 343 442 350 431 q 328 461 336 453 q 316 465 326 464 q 294 467 307 465 q 288 296 289 372 q 298 159 288 220 q 311 163 305 160 q 324 178 317 167 q 336 202 332 191 q 347 220 340 213 q 362 231 353 227 q 391 235 372 235 q 431 224 412 235 q 450 191 450 214 q 412 111 450 152 q 324 41 374 71 q 329 -7 327 16 q 331 -35 331 -31 q 311 -72 331 -62 q 269 -81 292 -81 q 237 -56 252 -81 q 210 0 221 -31 q 197 -1 206 -1 q 134 12 164 -1 q 81 46 103 24 q 45 98 58 68 q 31 163 31 127 q 29 252 20 203 q 60 348 38 300 q 116 441 83 396 q 186 519 149 486 m 189 98 q 189 121 189 107 q 189 147 189 134 q 190 170 190 160 q 190 183 190 180 q 189 273 190 218 q 187 389 189 327 q 163 314 172 353 q 151 237 153 275 q 155 163 148 199 q 180 98 161 127 l 189 98 z "},"":{"ha":164,"x_min":35,"x_max":148,"o":"m 36 905 q 46 882 36 893 q 66 864 57 871 l 89 864 q 128 873 112 864 q 144 904 144 882 q 139 919 144 911 q 124 933 133 926 q 104 943 115 939 q 83 945 93 947 q 53 931 69 943 q 36 905 36 919 m 36 508 q 37 484 36 495 q 43 461 37 474 l 43 53 q 49 46 43 50 q 63 38 55 42 q 78 32 71 34 q 89 30 86 30 q 124 44 112 30 q 143 74 136 58 q 142 105 143 83 q 141 152 141 127 q 142 199 141 176 q 143 230 143 222 q 144 256 143 236 q 146 298 144 275 q 148 342 147 322 q 148 367 148 362 q 148 392 148 373 q 146 433 147 411 q 144 477 146 455 q 143 508 143 498 q 129 546 140 529 q 89 563 118 563 q 47 548 58 563 q 36 508 36 534 z "},"":{"ha":191,"x_min":31,"x_max":164,"o":"m 42 472 q 52 583 47 528 q 60 693 57 637 q 59 725 60 705 q 62 763 58 745 q 77 793 66 781 q 111 803 88 804 q 145 785 133 800 q 164 750 157 770 q 151 611 157 681 q 138 472 144 541 l 42 472 m 127 425 q 125 364 125 391 q 125 313 125 338 q 127 261 126 288 q 127 201 127 235 q 131 136 127 168 q 134 71 134 103 q 133 47 134 60 q 127 24 132 35 q 115 6 123 14 q 92 -1 106 -1 q 56 15 68 -1 q 37 52 43 31 q 33 110 34 83 q 32 163 33 137 q 31 216 31 190 q 31 274 31 243 q 33 316 31 298 q 39 349 35 334 q 45 382 42 365 q 50 425 47 400 l 127 425 z "},"":{"ha":671,"x_min":16,"x_max":644,"o":"m 56 20 q 56 33 56 27 q 62 43 57 38 q 157 77 100 54 q 265 129 213 99 q 352 192 317 159 q 381 258 387 225 l 381 266 l 203 229 l 183 229 q 136 232 164 229 q 82 243 109 235 q 37 269 56 252 q 19 312 19 285 q 34 377 16 342 q 81 445 52 412 q 148 503 110 477 q 227 537 186 528 q 189 545 208 540 q 156 559 171 551 q 132 583 141 568 q 122 616 122 597 q 155 685 123 647 q 228 760 186 723 q 313 827 270 796 q 381 876 355 859 q 449 903 410 892 q 521 913 488 913 q 568 903 548 913 q 589 863 589 892 q 587 840 589 850 q 570 825 585 829 q 488 819 526 829 q 416 788 450 808 q 353 740 382 768 q 294 682 323 712 q 274 656 286 673 q 262 636 262 639 l 262 635 q 332 642 297 635 q 401 656 366 648 q 470 670 435 663 q 541 677 505 677 q 571 675 555 677 q 602 666 587 673 q 625 648 616 659 q 633 618 633 636 q 633 547 644 581 q 593 483 621 513 q 525 426 566 453 q 437 373 484 399 l 438 373 q 468 371 452 373 q 498 362 484 369 q 522 344 513 355 q 530 315 530 332 q 515 212 547 259 q 426 125 484 165 q 292 47 368 84 q 144 -26 217 11 q 131 -31 141 -30 q 114 -33 121 -33 q 75 -16 95 -33 q 56 20 56 0 m 467 521 q 348 525 400 543 q 258 473 296 507 q 197 402 220 439 q 168 347 175 365 q 237 346 190 334 q 332 386 283 358 q 420 450 381 414 q 467 521 460 486 z "},"":{"ha":971,"x_min":87,"x_max":868,"o":"m 273 298 q 273 395 263 339 q 306 507 283 450 q 361 613 328 563 q 432 693 395 663 q 508 726 469 723 q 582 692 547 730 q 583 685 582 690 q 586 663 585 680 q 588 615 587 646 q 589 532 589 585 q 592 523 590 529 q 594 514 594 517 q 578 486 590 499 q 549 473 567 473 q 512 481 526 473 q 491 517 498 488 q 492 534 494 521 q 488 563 491 547 q 481 595 484 579 q 479 621 479 612 q 475 619 477 621 q 472 616 473 617 q 429 526 449 575 q 399 425 410 476 q 393 324 389 374 q 422 233 396 274 q 457 249 441 233 q 484 278 473 264 q 530 334 507 305 q 571 393 552 362 q 583 418 579 407 q 593 435 587 429 q 609 446 600 442 q 637 450 618 450 q 678 440 659 450 q 697 407 697 430 q 669 329 697 376 q 602 239 642 282 q 517 165 562 195 q 438 134 472 134 q 375 147 406 134 q 322 182 345 160 q 286 233 300 203 q 273 298 273 263 m 90 273 q 87 323 87 285 q 94 414 88 361 q 115 528 100 467 q 154 651 129 590 q 217 767 179 712 q 309 859 255 822 q 435 911 363 897 q 601 907 507 925 q 671 883 639 906 q 731 825 704 860 q 779 750 758 791 q 815 674 800 709 q 834 599 825 647 q 851 498 844 551 q 863 396 859 445 q 868 319 868 347 q 844 223 868 278 q 782 119 821 168 q 692 37 743 71 q 589 3 642 3 q 538 -1 575 3 q 451 -5 500 -5 q 347 7 401 -4 q 241 47 292 18 q 149 132 190 77 q 90 273 109 186 m 221 182 q 266 140 233 156 q 338 116 298 125 q 422 105 378 107 q 500 103 465 103 q 559 104 536 103 q 581 106 582 106 l 591 106 q 650 160 620 132 q 707 220 681 189 q 749 287 732 252 q 765 358 765 321 q 758 413 765 374 q 738 501 750 452 q 709 604 726 551 q 675 701 693 656 q 639 773 656 745 q 605 803 621 802 q 502 807 559 817 q 389 766 445 798 q 284 682 332 735 q 209 556 236 629 q 181 389 182 483 q 221 182 180 296 z "},"":{"ha":878,"x_min":56,"x_max":837,"o":"m 58 312 q 56 362 56 324 q 63 453 57 400 q 83 568 69 506 q 123 690 98 629 q 186 806 148 751 q 278 899 224 861 q 404 950 332 936 q 570 947 476 964 q 640 922 608 945 q 700 865 673 899 q 748 789 727 830 q 784 713 769 749 q 803 638 793 686 q 820 537 812 590 q 832 435 827 484 q 837 358 837 387 q 813 262 837 317 q 751 159 789 208 q 661 76 712 110 q 557 42 610 42 q 506 38 543 42 q 420 35 469 34 q 315 46 370 35 q 210 87 260 57 q 118 171 159 117 q 58 312 77 225 m 259 396 q 252 409 254 404 q 250 420 250 414 q 251 430 250 426 q 252 439 252 434 q 252 464 252 453 q 250 488 251 475 q 235 495 247 492 q 222 513 222 498 q 227 525 222 519 q 235 534 231 530 q 243 544 239 538 q 247 556 247 549 q 245 584 245 563 q 244 612 244 605 l 244 614 q 264 630 250 625 q 290 635 278 635 q 312 630 305 635 q 322 619 319 625 q 326 608 326 613 q 330 601 327 602 q 364 646 342 621 q 412 689 387 670 q 464 720 437 708 q 513 728 491 731 q 551 701 536 724 q 568 629 566 678 q 551 551 568 586 q 503 491 533 517 q 435 449 473 465 q 354 427 396 433 l 694 410 q 711 409 701 408 q 732 407 722 410 q 723 469 731 429 q 702 557 715 509 q 673 655 689 605 q 641 747 658 705 q 606 814 624 788 q 574 842 589 841 q 471 846 528 856 q 357 806 414 837 q 253 722 301 774 q 178 595 205 669 q 150 429 151 522 q 190 221 149 335 q 235 180 202 195 q 307 155 267 164 q 391 144 347 146 q 469 142 434 142 q 528 144 505 142 q 549 145 551 145 l 560 145 q 606 188 582 165 q 653 235 631 210 q 694 285 675 259 q 723 339 712 311 q 672 332 701 334 q 600 334 643 330 q 494 349 556 338 q 345 382 433 361 q 343 380 343 381 q 342 377 342 378 q 343 349 342 366 q 347 313 345 332 q 350 277 349 294 q 351 250 351 260 q 347 231 351 241 q 328 221 342 221 q 315 222 324 221 q 295 224 305 222 q 277 228 285 225 q 269 235 270 231 l 259 396 m 330 530 q 330 502 330 515 q 332 473 331 488 l 334 473 q 338 475 335 473 q 352 482 340 476 q 387 502 363 488 q 453 540 410 515 q 471 554 461 544 q 489 576 480 564 q 503 599 498 587 q 509 617 509 610 q 502 624 509 624 q 491 624 495 624 q 467 621 480 624 q 434 610 453 618 q 389 584 415 601 q 330 540 363 567 l 330 530 z "},"":{"ha":555,"x_min":73,"x_max":529,"o":"m 73 343 q 90 376 73 366 q 125 391 106 387 l 465 425 q 509 416 488 425 q 529 381 529 408 q 520 366 529 374 q 500 351 511 358 q 477 340 490 345 q 460 338 465 335 l 125 301 q 90 313 107 301 q 73 343 73 324 z "},"":{"ha":757,"x_min":81,"x_max":703,"o":"m 81 503 q 98 536 81 526 q 133 551 114 547 l 632 597 q 675 589 655 597 q 696 553 696 581 q 694 545 696 551 q 692 515 693 538 q 694 446 692 492 q 703 316 696 399 q 694 273 703 293 q 659 252 686 252 q 644 261 652 252 q 629 281 636 270 q 618 303 623 292 q 616 321 613 315 l 604 507 l 133 461 q 98 473 115 461 q 81 503 81 484 z "},"":{"ha":378,"x_min":24,"x_max":343,"o":"m 240 580 q 221 554 232 569 q 199 521 211 539 q 173 487 187 504 q 144 455 159 469 q 113 431 129 441 q 80 419 97 421 q 63 420 72 419 q 45 424 54 421 q 30 430 36 426 q 24 442 24 435 q 38 568 25 512 q 78 668 51 625 q 148 740 105 711 q 251 781 190 768 q 258 781 253 781 q 264 781 263 781 q 304 763 292 782 q 322 701 316 743 q 330 594 328 660 q 340 437 332 529 q 343 424 342 429 q 343 411 343 418 q 335 396 343 401 q 314 391 327 391 q 277 401 288 391 q 263 431 266 412 q 261 442 263 431 q 258 465 260 452 q 254 492 255 478 q 251 514 252 505 l 251 517 q 249 534 249 524 q 246 554 248 544 q 244 577 244 565 l 240 580 m 220 715 q 172 678 196 701 q 139 633 148 655 q 129 605 134 623 q 119 570 123 588 q 112 538 115 553 q 110 520 110 524 q 112 521 110 520 q 114 523 113 522 q 193 611 170 564 q 220 715 216 658 z "},"":{"ha":593,"x_min":57,"x_max":530,"o":"m 57 102 q 73 135 57 125 q 109 149 90 145 l 244 163 q 243 232 245 197 q 232 301 240 267 l 227 301 q 193 298 206 301 q 168 292 180 296 q 142 286 156 289 q 107 283 127 283 q 61 331 61 283 q 83 369 61 359 q 134 382 104 378 q 191 387 163 385 q 232 399 220 388 l 254 644 q 264 671 256 667 q 292 675 273 675 q 302 675 294 675 q 312 674 309 674 q 331 651 323 666 l 331 602 q 328 511 331 556 q 326 420 326 467 l 331 420 l 480 441 q 500 437 491 438 q 515 432 509 435 q 526 421 522 429 q 530 399 530 414 l 530 395 q 503 378 518 382 q 466 368 488 373 q 411 355 444 362 q 331 331 378 347 q 324 323 324 328 q 324 313 324 319 q 330 243 324 278 q 336 172 335 208 l 449 183 q 492 175 472 183 q 513 140 513 167 q 504 125 513 133 q 484 110 495 117 q 461 98 473 103 q 444 96 449 94 l 109 60 q 74 71 91 60 q 57 102 57 83 z "},"":{"ha":378,"x_min":38,"x_max":312,"o":"m 165 826 q 185 829 176 826 q 206 831 194 831 q 255 819 235 831 q 288 790 275 807 q 307 753 301 773 q 312 719 312 734 q 298 679 312 701 q 261 637 283 656 q 210 605 239 618 q 151 591 180 591 q 88 608 119 593 q 47 653 57 624 q 62 726 38 682 q 164 826 85 769 l 165 826 m 233 722 q 215 764 232 755 q 178 765 198 773 q 141 737 157 757 q 123 694 125 718 q 149 669 130 674 q 186 671 167 665 q 220 691 205 677 q 233 722 235 705 z "},"":{"ha":613,"x_min":15,"x_max":598,"o":"m 448 72 q 444 130 445 103 q 443 184 444 157 q 442 237 442 210 q 442 294 442 263 q 448 418 442 347 q 460 564 453 490 q 473 710 467 639 q 483 834 480 781 l 483 844 q 426 833 452 840 q 400 819 400 827 q 389 619 400 719 q 372 418 378 519 q 361 227 365 321 q 349 35 358 132 q 328 8 339 16 q 294 0 317 0 q 254 18 271 0 q 240 58 237 37 q 241 70 240 60 q 245 92 243 80 q 249 113 247 103 q 251 125 251 122 q 252 137 251 126 q 254 162 252 148 q 256 191 255 176 q 256 213 256 205 q 272 428 263 320 q 281 644 281 536 l 281 670 q 244 631 260 654 q 210 587 228 609 q 171 550 193 566 q 119 532 149 534 q 71 539 91 529 q 39 567 52 549 q 20 608 26 585 q 15 655 15 631 q 38 782 15 730 q 100 869 61 834 q 189 924 138 905 q 294 950 239 943 q 407 955 350 958 q 515 943 464 952 q 534 944 521 944 q 574 918 559 940 q 586 879 598 901 q 571 724 579 810 q 555 549 563 639 q 543 374 548 460 q 538 221 538 289 q 542 156 538 189 q 545 91 545 123 q 544 68 545 80 q 538 45 543 56 q 526 26 534 34 q 503 19 517 19 q 467 35 479 19 q 448 72 454 52 z "},"":{"ha":304,"x_min":18,"x_max":248,"o":"m 113 375 q 114 386 113 382 q 121 393 115 390 q 124 394 122 394 q 130 395 127 395 q 135 396 133 396 q 138 397 137 397 q 146 401 142 398 q 156 408 151 404 q 165 416 161 412 q 170 421 169 419 q 196 461 189 439 q 202 510 202 483 q 202 520 202 514 q 202 534 202 527 q 200 546 202 541 q 194 554 198 552 q 188 554 193 554 q 182 554 183 554 q 154 547 167 554 q 129 532 141 541 q 103 517 116 524 q 75 510 90 510 q 59 518 64 510 q 53 536 53 525 q 65 568 53 548 q 93 609 77 587 q 123 653 108 631 q 143 689 137 674 l 138 689 q 111 682 123 689 q 88 668 99 676 q 67 653 77 659 q 45 646 56 646 q 27 650 36 646 q 18 668 18 655 q 28 688 18 678 q 53 708 38 699 q 87 725 68 717 q 124 739 106 733 q 158 748 142 745 q 181 751 173 751 q 205 723 205 751 l 205 713 q 179 655 194 681 q 148 600 163 629 l 154 600 q 171 601 163 600 q 187 603 178 603 q 227 584 213 603 q 248 538 242 565 q 249 523 248 535 q 249 509 249 512 q 231 426 249 460 q 178 363 213 391 q 139 347 160 347 q 121 356 129 347 q 113 375 113 364 z "},"":{"ha":414,"x_min":24,"x_max":374,"o":"m 75 353 q 77 362 75 359 q 83 371 78 365 q 126 435 104 403 q 165 500 147 466 q 194 568 183 533 q 205 642 205 604 q 163 628 181 642 q 128 598 145 615 q 96 568 112 582 q 62 555 80 555 q 50 556 57 555 q 38 560 44 557 q 29 567 33 562 q 25 579 25 572 l 25 580 q 38 599 30 590 q 57 617 47 609 q 78 634 68 626 q 96 647 88 641 q 121 666 107 656 q 151 684 135 675 q 183 698 166 693 q 216 704 199 704 q 255 687 244 704 q 266 644 266 670 q 248 547 266 595 q 206 457 231 499 l 206 454 l 185 419 l 192 419 q 263 450 225 437 q 339 470 302 462 l 342 470 q 365 466 356 470 q 375 445 375 461 q 369 425 375 434 q 352 421 362 424 q 336 419 343 418 l 258 393 l 132 330 q 107 324 120 324 q 86 333 96 324 q 75 353 75 341 z "},"":{"ha":575,"x_min":8,"x_max":541,"o":"m 307 -8 q 310 18 308 -1 q 315 58 312 37 q 321 97 319 79 q 326 123 324 115 q 342 245 332 184 q 353 366 353 305 l 353 387 l 331 397 q 304 415 326 400 q 256 449 282 430 q 203 488 229 468 q 164 519 178 507 q 138 541 156 525 q 100 574 119 556 q 62 610 80 593 q 38 633 45 627 q 18 659 27 644 q 8 688 8 673 q 26 721 8 711 q 64 731 43 731 q 92 728 77 731 q 118 713 107 724 q 233 600 170 656 q 363 502 297 543 l 369 519 l 426 886 q 443 905 429 901 q 469 909 457 909 q 523 892 505 909 q 541 836 541 875 l 541 833 q 539 826 541 831 q 535 814 537 821 q 532 801 533 807 q 530 793 530 795 q 519 730 526 777 q 505 619 513 684 q 487 477 496 555 q 468 322 477 400 q 449 172 458 244 q 431 43 439 99 q 433 12 433 30 q 429 -22 434 -5 q 412 -49 423 -38 q 380 -60 400 -60 q 334 -46 354 -60 q 307 -8 315 -33 m 96 963 q 111 998 96 982 q 144 1015 125 1015 q 181 1002 167 1015 q 209 975 195 990 l 209 971 q 193 930 209 948 q 152 911 178 911 q 115 928 134 911 q 96 963 96 944 m 271 963 q 286 998 271 982 q 319 1015 300 1015 q 356 1002 342 1015 q 384 975 370 990 l 384 971 q 368 930 384 948 q 327 911 353 911 q 290 928 309 911 q 271 963 271 944 z "},"":{"ha":562,"x_min":77,"x_max":528,"o":"m 153 -366 q 154 -354 153 -359 q 160 -343 155 -349 q 207 -316 176 -323 q 269 -304 237 -309 q 328 -290 301 -300 q 366 -252 355 -281 q 363 -217 377 -228 q 324 -203 349 -206 q 275 -203 300 -201 q 241 -206 251 -205 q 195 -203 222 -206 q 140 -192 167 -201 q 96 -167 114 -183 q 77 -123 77 -151 q 104 -42 85 -79 q 147 19 123 -5 q 195 54 171 43 q 235 56 218 64 q 258 21 252 49 q 250 -57 263 -7 q 229 -83 241 -66 q 217 -103 217 -100 l 217 -104 q 296 -109 252 -111 q 380 -111 339 -107 q 458 -134 422 -115 q 515 -203 494 -153 q 514 -291 528 -260 q 464 -340 500 -321 q 370 -372 427 -358 q 241 -412 313 -387 q 229 -418 239 -416 q 212 -419 218 -419 q 173 -403 193 -419 q 153 -366 153 -387 z "},"":{"ha":191,"x_min":30,"x_max":132,"o":"m 35 429 q 32 458 33 444 q 31 485 32 472 q 31 512 31 498 q 31 541 31 525 q 39 646 31 594 q 52 751 48 698 q 52 767 52 757 q 55 786 51 777 q 66 801 58 795 q 92 806 74 807 q 118 797 109 805 q 132 780 127 790 q 113 642 122 711 q 104 504 104 574 q 107 471 104 487 q 110 438 110 455 q 109 427 110 433 q 104 415 107 421 q 94 406 101 410 q 77 402 88 402 q 49 410 59 402 q 35 429 40 419 z "},"":{"ha":281,"x_min":34,"x_max":240,"o":"m 35 417 l 61 574 q 69 586 62 582 q 84 589 76 589 q 109 582 100 589 q 125 563 118 574 l 125 563 q 141 566 134 563 q 157 569 147 569 q 196 556 180 569 q 222 527 212 544 q 236 489 232 510 q 241 454 241 469 q 230 413 241 436 q 201 371 219 391 q 160 337 183 350 q 114 324 137 324 q 78 332 93 324 q 53 354 62 341 q 39 383 43 367 q 35 416 35 400 l 35 417 m 94 414 q 97 400 96 408 q 101 385 98 392 q 109 376 104 379 q 125 375 115 372 q 145 392 134 383 q 165 411 155 401 q 181 433 174 422 q 187 458 187 445 q 183 496 190 478 q 165 521 177 513 q 139 523 154 528 q 109 491 124 517 q 97 454 101 475 q 94 416 94 433 l 94 414 z "},"":{"ha":757,"x_min":30,"x_max":723,"o":"m 36 396 q 33 428 34 413 q 32 457 32 442 q 31 486 31 471 q 31 517 31 500 q 42 632 31 575 q 57 746 52 688 q 56 763 57 753 q 59 784 56 774 q 73 800 63 794 q 104 806 83 807 q 135 796 123 805 q 152 777 146 788 q 129 628 139 702 q 118 477 118 553 q 122 442 118 459 q 125 406 125 424 q 123 393 125 400 q 118 381 122 387 q 107 371 115 375 q 86 367 99 367 q 53 376 64 367 q 36 396 42 385 m 78 -99 q 96 3 85 -45 q 119 104 106 50 l 119 113 l 315 945 q 330 971 319 964 q 365 978 341 978 l 367 978 q 401 960 393 967 q 409 930 409 952 q 404 902 409 916 q 398 874 400 887 q 393 858 396 870 q 385 831 389 846 q 378 804 381 816 q 373 788 374 792 l 373 784 l 218 147 q 191 20 205 83 q 166 -108 177 -44 q 148 -128 161 -122 q 120 -134 135 -134 q 91 -125 105 -134 q 78 -102 78 -117 l 78 -99 m 536 235 l 532 235 q 488 231 510 235 q 444 223 466 227 q 401 214 423 218 q 357 210 379 210 l 352 210 q 330 229 341 218 q 321 254 319 240 q 331 267 322 260 q 344 278 341 274 q 350 288 345 280 q 362 305 356 296 q 373 323 367 315 q 380 332 378 330 q 384 336 380 336 l 483 486 q 485 488 483 487 q 487 490 486 489 q 498 502 490 493 q 514 519 505 510 q 530 537 522 529 q 540 549 537 545 q 552 557 546 556 q 567 557 558 557 q 583 556 574 557 q 599 550 591 554 q 612 540 606 546 q 617 525 617 533 l 617 328 q 651 337 636 328 q 687 345 667 345 q 724 311 724 345 q 721 296 724 304 q 710 286 719 289 l 617 254 l 617 251 q 628 148 617 199 q 639 47 639 97 q 631 19 639 32 q 604 7 622 7 q 592 7 598 7 q 581 11 586 8 q 567 22 575 14 q 558 31 558 29 l 558 38 l 536 235 m 446 286 q 460 288 450 286 q 482 291 470 290 q 504 295 494 293 q 519 297 514 296 q 525 299 520 298 q 532 302 530 301 q 535 304 533 302 q 536 306 536 305 l 536 423 l 532 428 l 446 293 l 446 286 z "},"":{"ha":815,"x_min":31,"x_max":795,"o":"m 35 349 q 33 384 33 368 q 32 417 32 401 q 31 449 31 433 q 31 484 31 465 q 40 611 31 548 q 52 739 48 674 q 51 758 52 746 q 53 781 51 770 q 64 799 56 792 q 88 806 72 806 q 112 795 103 804 q 125 773 120 786 q 107 607 115 690 q 99 439 99 524 q 102 400 99 420 q 104 360 104 380 q 103 346 104 354 q 99 332 102 339 q 90 321 96 326 q 74 317 84 317 q 49 326 57 317 q 35 349 40 336 m 115 -46 q 130 43 120 1 q 150 131 139 84 l 150 139 l 319 861 q 332 884 323 878 q 362 891 341 891 l 364 891 q 393 875 386 881 q 399 849 399 868 q 396 824 399 837 q 390 800 392 812 q 386 786 389 797 q 379 763 383 775 q 373 739 376 750 q 369 726 370 728 l 369 722 l 235 168 q 212 57 224 112 q 190 -54 200 2 q 175 -71 187 -66 q 151 -76 164 -76 q 126 -69 138 -76 q 115 -49 115 -62 l 115 -46 m 408 67 q 409 78 408 74 q 417 90 411 82 q 473 170 445 130 q 524 251 501 210 q 561 337 547 293 q 575 429 575 381 q 521 412 545 429 q 476 375 498 396 q 434 337 455 354 q 390 320 414 320 q 375 322 383 320 q 360 327 367 323 q 348 336 353 330 q 343 350 343 342 l 343 352 q 360 376 349 365 q 384 399 371 388 q 411 419 398 410 q 434 436 424 428 q 467 459 449 447 q 505 482 485 472 q 547 500 525 493 q 589 507 568 507 q 640 486 626 507 q 655 432 655 465 q 632 311 655 370 q 576 197 609 251 l 576 194 l 550 150 l 559 150 q 651 188 602 173 q 749 214 701 204 l 753 214 q 783 209 771 214 q 796 182 796 203 q 787 158 796 168 q 766 152 779 156 q 745 150 754 149 l 645 118 l 481 39 q 449 31 465 31 q 421 42 434 31 q 408 67 408 53 z "},"":{"ha":940,"x_min":18,"x_max":884,"o":"m 156 335 q 158 346 156 342 q 168 355 159 351 q 173 356 169 356 q 181 357 177 356 q 189 358 185 358 q 193 359 192 359 q 205 363 198 360 q 219 371 212 367 q 232 380 226 376 q 240 385 237 384 q 277 430 267 406 q 287 484 287 454 q 287 495 287 488 q 286 510 287 503 q 283 524 286 518 q 275 532 280 530 q 266 533 273 533 q 257 533 259 533 q 216 526 236 533 q 179 509 197 518 q 142 492 161 499 q 100 484 123 484 q 77 492 86 484 q 69 513 69 501 q 86 548 69 526 q 127 594 104 570 q 170 642 149 618 q 200 683 192 666 l 193 683 q 154 675 171 683 q 120 658 136 667 q 89 642 104 650 q 57 634 73 634 q 32 639 45 634 q 18 658 18 645 q 32 682 18 670 q 69 703 46 693 q 119 722 91 713 q 173 738 146 731 q 222 748 199 744 q 256 751 244 751 q 291 720 291 751 l 291 709 q 252 644 275 673 q 208 583 230 616 l 217 583 q 241 585 230 583 q 264 587 251 587 q 323 566 302 587 q 354 515 345 545 q 354 499 354 511 q 355 483 355 486 q 329 391 355 429 q 251 322 303 352 q 195 304 225 304 q 168 313 180 304 q 156 335 156 322 m 274 -62 q 290 25 280 -16 q 311 112 300 66 l 311 119 l 485 827 q 499 849 489 843 q 529 855 508 855 l 532 855 q 562 840 555 846 q 568 814 568 833 q 565 790 568 803 q 559 766 561 778 q 554 753 557 763 q 548 730 551 742 q 541 707 544 718 q 537 694 538 696 l 537 690 l 399 148 q 375 39 388 93 q 352 -69 362 -15 q 337 -86 348 -81 q 312 -91 325 -91 q 286 -84 298 -91 q 274 -65 274 -77 l 274 -62 m 710 254 l 706 254 q 665 250 685 254 q 625 242 645 247 q 584 234 604 238 q 543 230 564 230 l 539 230 q 518 249 528 238 q 510 273 508 259 q 519 285 511 279 q 531 297 528 292 q 537 306 532 299 q 548 323 542 314 q 558 340 553 332 q 565 350 563 348 q 569 353 565 353 l 661 500 q 662 501 661 501 q 665 503 664 502 q 674 515 668 507 q 689 532 681 523 q 704 550 697 541 q 714 561 711 558 q 725 569 719 568 q 739 570 731 570 q 753 568 746 570 q 768 562 761 566 q 780 552 775 559 q 785 538 785 546 l 785 345 q 817 354 803 345 q 850 362 831 362 q 885 329 885 362 q 882 314 885 321 q 872 304 880 307 l 785 273 l 785 270 q 795 169 785 219 q 806 70 806 119 q 798 43 806 56 q 773 31 790 31 q 762 32 767 31 q 751 35 756 32 q 739 46 747 38 q 731 55 731 53 l 731 62 l 710 254 m 626 304 q 639 306 630 304 q 660 310 649 308 q 680 313 671 311 q 694 315 689 314 q 700 317 695 316 q 706 320 704 319 q 709 321 707 320 q 710 324 710 323 l 710 438 l 706 443 l 626 311 l 626 304 z "},"":{"ha":496,"x_min":72,"x_max":460,"o":"m 275 842 q 261 804 275 822 q 229 786 248 786 q 186 801 207 786 q 165 847 165 815 q 180 887 165 877 q 215 898 195 898 q 256 884 237 898 q 275 842 275 871 m 353 508 q 331 437 346 470 q 298 375 316 405 q 260 315 280 345 q 224 254 241 286 q 216 236 222 250 q 202 207 209 223 q 189 176 195 191 q 180 153 183 160 q 176 134 175 138 q 177 116 177 129 q 261 137 223 116 q 337 190 299 159 q 368 220 354 204 q 404 237 382 237 q 441 221 421 237 q 461 180 461 205 q 459 169 461 171 q 450 162 457 167 q 384 102 417 129 q 318 55 352 75 q 246 23 283 34 q 164 11 208 11 q 100 32 127 11 q 73 102 73 53 q 82 167 73 134 q 105 233 91 201 q 136 294 119 265 q 167 349 153 324 q 191 386 176 366 q 220 430 206 407 q 244 477 234 454 q 255 518 255 500 q 246 535 255 529 q 238 551 238 540 q 251 587 238 576 q 282 597 264 597 q 333 572 312 597 q 353 511 353 546 l 353 508 z "},"":{"ha":690,"x_min":34,"x_max":677,"o":"m 34 85 q 45 247 34 167 q 64 407 56 327 q 65 425 64 411 q 68 456 66 439 q 73 486 71 472 q 75 505 75 500 l 75 510 l 132 933 q 140 981 129 960 q 183 1002 152 1002 q 239 994 217 1006 q 277 960 262 981 q 301 916 292 940 q 321 871 311 891 q 338 826 328 852 q 363 761 349 800 q 397 665 377 722 q 442 526 416 608 l 448 521 q 484 538 457 526 q 539 564 510 551 q 594 590 568 578 q 631 606 620 602 q 638 611 632 609 q 647 614 644 613 l 650 614 q 670 604 663 614 q 677 585 677 594 q 670 559 677 570 q 654 539 663 548 q 635 522 646 530 q 620 505 625 514 l 486 437 q 480 426 480 430 q 492 392 480 415 q 510 355 503 369 q 524 326 514 347 q 544 281 533 304 q 565 237 555 258 q 579 208 575 216 l 579 203 q 530 155 579 155 q 499 158 515 155 q 475 178 483 161 l 384 372 l 372 372 q 262 294 320 332 q 142 229 203 256 q 131 130 133 180 q 132 30 129 80 q 110 7 121 15 q 80 0 99 0 q 52 9 61 0 q 38 31 42 18 q 34 58 34 43 q 34 85 34 73 m 155 349 q 234 392 195 365 q 308 442 273 419 q 318 448 312 445 q 330 454 324 450 q 343 464 335 458 l 343 475 l 218 830 l 213 836 q 203 789 209 827 q 189 691 197 751 q 173 552 182 631 q 155 384 164 473 l 155 349 m 334 1109 q 295 1089 319 1085 q 247 1110 271 1093 q 200 1149 222 1127 q 167 1184 178 1172 q 152 1199 160 1191 q 139 1217 144 1207 q 134 1236 134 1226 q 141 1256 133 1245 q 175 1282 156 1276 q 216 1272 194 1287 q 258 1227 236 1244 q 298 1196 279 1211 q 327 1161 316 1180 q 334 1109 338 1142 z "},"":{"ha":503,"x_min":39,"x_max":444,"o":"m 273 1 q 180 35 222 11 q 106 92 137 60 q 57 163 75 125 q 39 241 39 202 q 52 290 39 266 q 102 315 64 315 q 244 279 189 317 q 326 180 300 241 l 232 452 l 156 423 q 141 465 145 439 q 130 500 137 490 q 137 506 129 503 q 155 511 145 509 q 174 517 165 514 q 178 524 182 521 q 149 600 149 567 q 166 644 149 633 q 210 634 183 654 q 259 552 236 614 l 342 597 l 387 526 q 375 517 389 522 q 342 508 361 513 q 310 498 324 503 q 298 490 296 494 q 361 389 331 442 q 410 281 391 335 q 437 178 430 228 q 430 90 444 129 q 378 28 416 52 q 273 1 340 4 m 237 175 q 180 223 208 217 q 140 214 153 229 q 132 171 127 199 q 172 118 137 142 q 218 98 193 103 q 258 100 243 94 q 271 125 273 107 q 237 175 270 144 z "},"":{"ha":510,"x_min":19,"x_max":475,"o":"m 153 209 q 165 246 153 228 q 195 264 176 264 q 222 259 208 264 q 248 244 236 254 q 267 222 260 235 q 273 194 274 209 q 252 164 270 175 q 220 153 235 153 q 174 168 195 153 q 153 209 153 182 m 159 486 q 180 525 156 513 q 227 537 205 537 q 239 531 232 537 q 254 516 247 525 q 267 498 262 507 q 273 486 273 490 q 260 454 278 467 q 227 441 243 441 q 184 452 208 441 q 159 486 161 463 m 19 342 q 35 375 19 365 q 71 389 52 385 l 411 423 q 454 415 434 423 q 475 380 475 407 q 466 365 475 373 q 446 350 457 357 q 423 338 435 343 q 406 336 411 334 l 71 300 q 36 311 53 300 q 19 342 19 323 z "},"":{"ha":605,"x_min":92,"x_max":486,"o":"m 138 119 q 154 155 138 137 q 188 192 170 174 q 220 230 206 210 q 229 270 233 250 q 193 298 212 281 q 157 333 175 315 q 123 370 140 351 q 92 403 107 388 l 92 407 q 103 429 92 422 q 129 437 114 437 q 168 435 151 441 q 201 416 186 429 q 231 387 217 403 q 259 357 245 370 q 269 383 262 365 q 285 422 275 401 q 307 462 294 444 q 331 488 319 480 q 355 488 343 495 q 378 448 368 480 l 378 442 l 331 298 l 481 153 q 483 149 481 152 q 484 145 484 146 q 486 142 484 144 l 486 141 q 473 119 486 126 q 448 111 461 111 q 411 123 433 111 q 368 149 389 134 q 327 175 346 163 q 300 187 308 187 l 296 187 q 266 155 275 170 q 248 129 256 141 q 224 107 239 117 q 182 91 210 98 q 153 98 168 91 q 138 119 138 106 z "},"":{"ha":699,"x_min":83,"x_max":675,"o":"m 259 -125 q 231 -123 250 -125 q 194 -117 213 -121 q 161 -106 175 -113 q 145 -88 146 -99 l 119 264 l 119 275 q 113 395 117 332 q 103 515 110 457 q 94 532 98 515 q 87 572 90 549 q 84 616 85 594 q 83 648 83 639 q 105 718 83 686 q 161 773 127 749 q 235 814 195 798 q 307 842 274 831 q 359 856 339 852 q 377 857 380 860 q 405 860 387 864 q 441 845 423 856 q 472 819 458 834 q 486 788 486 804 q 477 733 486 758 q 457 684 469 708 q 431 637 445 661 q 407 590 418 614 q 427 588 412 590 q 458 585 442 586 q 490 581 475 583 q 510 579 505 579 q 561 566 532 575 q 615 540 590 556 q 658 501 640 524 q 675 450 675 479 q 664 388 675 419 q 636 332 652 357 q 620 309 631 324 q 598 279 609 294 q 578 253 587 264 q 568 240 570 241 l 320 26 l 311 146 q 351 181 328 161 q 385 208 374 201 q 440 254 408 227 q 500 311 472 281 q 549 374 529 342 q 568 438 568 407 q 555 470 568 458 q 522 488 541 481 q 481 497 502 495 q 445 499 460 499 q 397 492 416 499 q 363 474 378 486 q 333 447 347 463 q 298 414 319 431 q 292 411 297 414 q 286 408 288 408 l 256 570 q 290 606 274 589 q 321 647 305 624 q 330 669 326 655 q 333 694 334 682 q 324 711 332 705 q 297 712 316 718 q 284 700 297 712 q 257 673 271 688 q 231 645 243 658 q 218 631 218 632 l 224 355 l 252 119 l 254 119 l 259 -125 z "},"":{"ha":534,"x_min":-26,"x_max":513,"o":"m 42 456 q -5 479 16 465 q -26 524 -26 492 q -22 534 -26 532 q -15 543 -18 537 q -4 557 -12 547 q 14 581 4 568 q 31 606 23 594 q 42 621 39 617 q 33 667 38 636 q 23 736 27 699 q 20 812 19 774 q 28 879 20 850 q 54 921 37 907 q 104 924 72 935 q 118 895 113 924 q 128 833 123 867 q 138 770 133 799 q 152 742 144 742 l 157 742 q 272 819 213 785 q 404 852 331 852 q 482 824 452 852 q 513 746 513 796 q 484 617 513 684 q 413 488 456 551 q 321 369 370 425 q 231 273 271 313 q 218 261 227 267 q 203 248 210 255 q 186 232 195 241 l 186 71 q 185 45 186 58 q 180 20 184 31 q 166 1 175 8 q 141 -7 157 -7 q 119 -3 133 -7 q 94 7 106 0 q 73 23 81 14 q 64 45 64 33 l 42 456 m 168 370 l 174 370 q 182 378 175 370 q 200 397 190 387 q 220 420 210 408 q 236 438 231 431 q 311 513 277 468 q 366 603 345 557 q 391 685 387 648 q 379 736 396 722 q 321 732 362 750 q 209 651 279 715 q 179 620 193 637 q 163 581 165 602 l 168 370 z "},"":{"ha":521,"x_min":9,"x_max":491,"o":"m 9 585 l 9 587 q 17 610 9 598 q 33 629 24 621 l 33 699 q 33 783 33 754 q 31 834 33 811 q 27 886 30 857 q 19 971 24 914 q 31 998 19 989 q 57 1006 43 1006 q 115 1002 95 1013 q 142 966 134 990 q 149 912 149 943 q 146 852 148 882 q 143 796 144 822 q 152 757 142 770 q 170 763 170 764 q 170 762 171 762 q 173 764 170 761 q 198 784 176 768 q 268 813 228 807 q 343 819 308 819 q 458 768 426 807 q 487 673 491 730 q 448 549 483 617 q 362 408 414 480 q 248 264 311 335 q 127 130 186 193 q 130 90 129 113 q 130 44 130 66 q 127 3 129 22 q 119 -26 125 -16 q 102 -45 113 -39 q 81 -50 92 -52 q 61 -39 71 -49 q 46 -11 52 -30 q 40 23 42 1 q 37 73 38 45 q 36 132 35 100 q 38 195 37 163 l 38 549 l 9 585 m 152 480 q 153 461 152 476 q 155 429 153 446 q 157 397 156 412 q 157 378 157 382 q 157 364 157 374 q 158 342 157 354 q 159 321 159 331 q 159 307 159 311 q 201 345 174 309 q 256 427 228 380 q 309 521 285 473 q 346 595 334 568 q 357 628 351 609 q 364 667 362 647 q 361 703 366 686 q 342 728 357 719 q 290 716 317 728 q 235 685 262 704 q 188 644 209 666 q 157 601 167 621 q 155 577 156 594 q 154 541 155 560 q 153 505 153 522 q 152 480 152 487 z "},"":{"ha":690,"x_min":34,"x_max":677,"o":"m 34 85 q 45 247 34 167 q 64 407 56 327 q 65 425 64 411 q 68 456 66 439 q 73 486 71 472 q 75 505 75 500 l 75 510 l 132 933 q 140 981 129 960 q 183 1002 152 1002 q 239 994 217 1006 q 277 960 262 981 q 301 916 292 940 q 321 871 311 891 q 338 826 328 852 q 363 761 349 800 q 397 665 377 722 q 442 526 416 608 l 448 521 q 484 538 457 526 q 539 564 510 551 q 594 590 568 578 q 631 606 620 602 q 638 611 632 609 q 647 614 644 613 l 650 614 q 670 604 663 614 q 677 585 677 594 q 670 559 677 570 q 654 539 663 548 q 635 522 646 530 q 620 505 625 514 l 486 437 q 480 426 480 430 q 492 392 480 415 q 510 355 503 369 q 524 326 514 347 q 544 281 533 304 q 565 237 555 258 q 579 208 575 216 l 579 203 q 530 155 579 155 q 499 158 515 155 q 475 178 483 161 l 384 372 l 372 372 q 262 294 320 332 q 142 229 203 256 q 131 130 133 180 q 132 30 129 80 q 110 7 121 15 q 80 0 99 0 q 52 9 61 0 q 38 31 42 18 q 34 58 34 43 q 34 85 34 73 m 155 349 q 234 392 195 365 q 308 442 273 419 q 318 448 312 445 q 330 454 324 450 q 343 464 335 458 l 343 475 l 218 830 l 213 836 q 203 789 209 827 q 189 691 197 751 q 173 552 182 631 q 155 384 164 473 l 155 349 m 60 1053 q 66 1108 56 1088 q 93 1145 76 1128 q 130 1179 110 1161 q 170 1227 151 1196 q 208 1238 190 1244 q 240 1210 225 1233 q 248 1187 248 1198 q 241 1167 247 1177 q 229 1149 236 1157 q 216 1133 221 1141 q 184 1095 205 1119 q 141 1053 164 1072 q 96 1031 118 1035 q 60 1053 73 1027 z "},"":{"ha":690,"x_min":34,"x_max":677,"o":"m 34 85 q 45 247 34 167 q 64 407 56 327 q 65 425 64 411 q 68 456 66 439 q 73 486 71 472 q 75 505 75 500 l 75 510 l 132 933 q 140 981 129 960 q 183 1002 152 1002 q 239 994 217 1006 q 277 960 262 981 q 301 916 292 940 q 321 871 311 891 q 338 826 328 852 q 363 761 349 800 q 397 665 377 722 q 442 526 416 608 l 448 521 q 484 538 457 526 q 539 564 510 551 q 594 590 568 578 q 631 606 620 602 q 638 611 632 609 q 647 614 644 613 l 650 614 q 670 604 663 614 q 677 585 677 594 q 670 559 677 570 q 654 539 663 548 q 635 522 646 530 q 620 505 625 514 l 486 437 q 480 426 480 430 q 492 392 480 415 q 510 355 503 369 q 524 326 514 347 q 544 281 533 304 q 565 237 555 258 q 579 208 575 216 l 579 203 q 530 155 579 155 q 499 158 515 155 q 475 178 483 161 l 384 372 l 372 372 q 262 294 320 332 q 142 229 203 256 q 131 130 133 180 q 132 30 129 80 q 110 7 121 15 q 80 0 99 0 q 52 9 61 0 q 38 31 42 18 q 34 58 34 43 q 34 85 34 73 m 155 349 q 234 392 195 365 q 308 442 273 419 q 318 448 312 445 q 330 454 324 450 q 343 464 335 458 l 343 475 l 218 830 l 213 836 q 203 789 209 827 q 189 691 197 751 q 173 552 182 631 q 155 384 164 473 l 155 349 m 184 1085 q 90 1115 118 1090 q 58 1166 62 1139 q 62 1219 53 1194 q 80 1252 72 1244 q 131 1178 94 1199 q 209 1162 168 1157 q 283 1194 250 1166 q 326 1264 317 1221 q 328 1200 331 1233 q 310 1140 326 1166 q 264 1097 294 1114 q 184 1085 233 1081 z "},"":{"ha":690,"x_min":-22,"x_max":677,"o":"m 34 85 q 45 247 34 167 q 64 407 56 327 q 65 425 64 411 q 68 456 66 439 q 73 486 71 472 q 75 505 75 500 l 75 510 l 132 933 q 140 981 129 960 q 183 1002 152 1002 q 239 994 217 1006 q 277 960 262 981 q 301 916 292 940 q 321 871 311 891 q 338 826 328 852 q 363 761 349 800 q 397 665 377 722 q 442 526 416 608 l 448 521 q 484 538 457 526 q 539 564 510 551 q 594 590 568 578 q 631 606 620 602 q 638 611 632 609 q 647 614 644 613 l 650 614 q 670 604 663 614 q 677 585 677 594 q 670 559 677 570 q 654 539 663 548 q 635 522 646 530 q 620 505 625 514 l 486 437 q 480 426 480 430 q 492 392 480 415 q 510 355 503 369 q 524 326 514 347 q 544 281 533 304 q 565 237 555 258 q 579 208 575 216 l 579 203 q 530 155 579 155 q 499 158 515 155 q 475 178 483 161 l 384 372 l 372 372 q 262 294 320 332 q 142 229 203 256 q 131 130 133 180 q 132 30 129 80 q 110 7 121 15 q 80 0 99 0 q 52 9 61 0 q 38 31 42 18 q 34 58 34 43 q 34 85 34 73 m 155 349 q 234 392 195 365 q 308 442 273 419 q 318 448 312 445 q 330 454 324 450 q 343 464 335 458 l 343 475 l 218 830 l 213 836 q 203 789 209 827 q 189 691 197 751 q 173 552 182 631 q 155 384 164 473 l 155 349 m 96 1274 q 101 1285 98 1276 q 109 1303 104 1294 q 117 1322 113 1313 q 122 1335 121 1331 q 142 1348 127 1345 q 170 1350 156 1350 q 189 1348 180 1350 q 205 1337 197 1345 q 220 1314 209 1331 q 245 1278 232 1297 q 271 1243 259 1260 q 286 1221 282 1226 q 292 1215 288 1219 q 296 1208 296 1210 q 309 1189 300 1203 q 330 1158 319 1175 q 350 1127 340 1142 q 363 1107 359 1112 q 368 1097 368 1100 q 369 1086 369 1093 q 357 1066 369 1072 q 324 1061 345 1061 q 292 1068 307 1061 q 271 1086 278 1076 l 180 1221 l 175 1217 q 167 1202 171 1211 q 153 1173 163 1192 q 125 1124 142 1154 q 76 1044 107 1093 q 62 1038 73 1042 q 46 1034 50 1034 q 25 1037 38 1034 q 1 1046 12 1040 q -16 1059 -9 1051 q -16 1076 -22 1066 l 96 1274 z "},"":{"ha":690,"x_min":34,"x_max":677,"o":"m 34 85 q 45 247 34 167 q 64 407 56 327 q 65 425 64 411 q 68 456 66 439 q 73 486 71 472 q 75 505 75 500 l 75 510 l 132 933 q 140 981 129 960 q 183 1002 152 1002 q 239 994 217 1006 q 277 960 262 981 q 301 916 292 940 q 321 871 311 891 q 338 826 328 852 q 363 761 349 800 q 397 665 377 722 q 442 526 416 608 l 448 521 q 484 538 457 526 q 539 564 510 551 q 594 590 568 578 q 631 606 620 602 q 638 611 632 609 q 647 614 644 613 l 650 614 q 670 604 663 614 q 677 585 677 594 q 670 559 677 570 q 654 539 663 548 q 635 522 646 530 q 620 505 625 514 l 486 437 q 480 426 480 430 q 492 392 480 415 q 510 355 503 369 q 524 326 514 347 q 544 281 533 304 q 565 237 555 258 q 579 208 575 216 l 579 203 q 530 155 579 155 q 499 158 515 155 q 475 178 483 161 l 384 372 l 372 372 q 262 294 320 332 q 142 229 203 256 q 131 130 133 180 q 132 30 129 80 q 110 7 121 15 q 80 0 99 0 q 52 9 61 0 q 38 31 42 18 q 34 58 34 43 q 34 85 34 73 m 155 349 q 234 392 195 365 q 308 442 273 419 q 318 448 312 445 q 330 454 324 450 q 343 464 335 458 l 343 475 l 218 830 l 213 836 q 203 789 209 827 q 189 691 197 751 q 173 552 182 631 q 155 384 164 473 l 155 349 m 46 1138 q 60 1173 46 1157 q 94 1190 75 1190 q 131 1177 117 1190 q 159 1150 145 1165 l 159 1146 q 143 1105 159 1123 q 102 1086 127 1086 q 65 1103 84 1086 q 46 1138 46 1119 m 221 1138 q 235 1173 221 1157 q 269 1190 250 1190 q 306 1177 292 1190 q 334 1150 320 1165 l 334 1146 q 318 1105 334 1123 q 277 1086 302 1086 q 240 1103 259 1086 q 221 1138 221 1119 z "},"":{"ha":551,"x_min":33,"x_max":488,"o":"m 33 968 q 49 1002 33 991 q 84 1016 65 1012 l 425 1050 q 468 1042 448 1050 q 488 1006 488 1034 q 479 991 488 1000 q 460 977 471 983 q 437 965 449 970 q 419 963 425 960 l 84 926 q 50 938 66 926 q 33 968 33 949 z "},"":{"ha":690,"x_min":34,"x_max":677,"o":"m 34 85 q 45 247 34 167 q 64 407 56 327 q 65 425 64 411 q 68 456 66 439 q 73 486 71 472 q 75 505 75 500 l 75 510 l 132 933 q 140 981 129 960 q 183 1002 152 1002 q 239 994 217 1006 q 277 960 262 981 q 301 916 292 940 q 321 871 311 891 q 338 826 328 852 q 363 761 349 800 q 397 665 377 722 q 442 526 416 608 l 448 521 q 484 538 457 526 q 539 564 510 551 q 594 590 568 578 q 631 606 620 602 q 638 611 632 609 q 647 614 644 613 l 650 614 q 670 604 663 614 q 677 585 677 594 q 670 559 677 570 q 654 539 663 548 q 635 522 646 530 q 620 505 625 514 l 486 437 q 480 426 480 430 q 492 392 480 415 q 510 355 503 369 q 524 326 514 347 q 544 281 533 304 q 565 237 555 258 q 579 208 575 216 l 579 203 q 530 155 579 155 q 499 158 515 155 q 475 178 483 161 l 384 372 l 372 372 q 262 294 320 332 q 142 229 203 256 q 131 130 133 180 q 132 30 129 80 q 110 7 121 15 q 80 0 99 0 q 52 9 61 0 q 38 31 42 18 q 34 58 34 43 q 34 85 34 73 m 155 349 q 234 392 195 365 q 308 442 273 419 q 318 448 312 445 q 330 454 324 450 q 343 464 335 458 l 343 475 l 218 830 l 213 836 q 203 789 209 827 q 189 691 197 751 q 173 552 182 631 q 155 384 164 473 l 155 349 m 81 1058 q 98 1091 81 1081 q 133 1105 114 1101 l 473 1139 q 517 1131 496 1139 q 537 1096 537 1123 q 528 1081 537 1089 q 509 1066 519 1073 q 486 1055 498 1059 q 468 1053 473 1050 l 133 1016 q 98 1027 115 1016 q 81 1058 81 1039 z "},"":{"ha":690,"x_min":34,"x_max":677,"o":"m 34 85 q 45 247 34 167 q 64 407 56 327 q 65 425 64 411 q 68 456 66 439 q 73 486 71 472 q 75 505 75 500 l 75 510 l 132 933 q 140 981 129 960 q 183 1002 152 1002 q 239 994 217 1006 q 277 960 262 981 q 301 916 292 940 q 321 871 311 891 q 338 826 328 852 q 363 761 349 800 q 397 665 377 722 q 442 526 416 608 l 448 521 q 484 538 457 526 q 539 564 510 551 q 594 590 568 578 q 631 606 620 602 q 638 611 632 609 q 647 614 644 613 l 650 614 q 670 604 663 614 q 677 585 677 594 q 670 559 677 570 q 654 539 663 548 q 635 522 646 530 q 620 505 625 514 l 486 437 q 480 426 480 430 q 492 392 480 415 q 510 355 503 369 q 524 326 514 347 q 544 281 533 304 q 565 237 555 258 q 579 208 575 216 l 579 203 q 530 155 579 155 q 499 158 515 155 q 475 178 483 161 l 384 372 l 372 372 q 262 294 320 332 q 142 229 203 256 q 131 130 133 180 q 132 30 129 80 q 110 7 121 15 q 80 0 99 0 q 52 9 61 0 q 38 31 42 18 q 34 58 34 43 q 34 85 34 73 m 155 349 q 234 392 195 365 q 308 442 273 419 q 318 448 312 445 q 330 454 324 450 q 343 464 335 458 l 343 475 l 218 830 l 213 836 q 203 789 209 827 q 189 691 197 751 q 173 552 182 631 q 155 384 164 473 l 155 349 m 411 -22 q 426 123 411 73 q 465 193 441 174 q 520 208 490 212 q 582 194 551 205 q 578 192 581 194 q 575 189 576 190 q 516 46 530 107 q 515 -65 502 -15 q 559 -73 534 -84 q 595 -31 585 -61 q 633 1 617 -1 q 658 -12 650 3 q 665 -52 666 -26 q 652 -103 665 -77 q 615 -150 640 -129 q 549 -175 590 -171 q 447 -133 483 -175 q 411 -22 411 -91 z "},"":{"ha":690,"x_min":34,"x_max":677,"o":"m 34 85 q 45 247 34 167 q 64 407 56 327 q 65 425 64 411 q 68 456 66 439 q 73 486 71 472 q 75 505 75 500 l 75 510 l 132 933 q 140 981 129 960 q 183 1002 152 1002 q 239 994 217 1006 q 277 960 262 981 q 301 916 292 940 q 321 871 311 891 q 338 826 328 852 q 363 761 349 800 q 397 665 377 722 q 442 526 416 608 l 448 521 q 484 538 457 526 q 539 564 510 551 q 594 590 568 578 q 631 606 620 602 q 638 611 632 609 q 647 614 644 613 l 650 614 q 670 604 663 614 q 677 585 677 594 q 670 559 677 570 q 654 539 663 548 q 635 522 646 530 q 620 505 625 514 l 486 437 q 480 426 480 430 q 492 392 480 415 q 510 355 503 369 q 524 326 514 347 q 544 281 533 304 q 565 237 555 258 q 579 208 575 216 l 579 203 q 530 155 579 155 q 499 158 515 155 q 475 178 483 161 l 384 372 l 372 372 q 262 294 320 332 q 142 229 203 256 q 131 130 133 180 q 132 30 129 80 q 110 7 121 15 q 80 0 99 0 q 52 9 61 0 q 38 31 42 18 q 34 58 34 43 q 34 85 34 73 m 155 349 q 234 392 195 365 q 308 442 273 419 q 318 448 312 445 q 330 454 324 450 q 343 464 335 458 l 343 475 l 218 830 l 213 836 q 203 789 209 827 q 189 691 197 751 q 173 552 182 631 q 155 384 164 473 l 155 349 m 172 1173 q 192 1176 183 1173 q 213 1179 201 1179 q 262 1166 241 1179 q 295 1137 282 1154 q 313 1101 308 1120 q 319 1066 319 1081 q 304 1026 319 1048 q 268 985 290 1004 q 216 952 245 966 q 157 939 187 939 q 95 956 126 940 q 54 1000 64 971 q 68 1073 45 1029 q 171 1173 92 1116 l 172 1173 m 240 1069 q 222 1112 239 1103 q 184 1112 205 1120 q 148 1084 164 1104 q 130 1042 132 1065 q 155 1017 137 1021 q 193 1018 174 1012 q 227 1038 212 1024 q 240 1069 241 1053 z "},"":{"ha":690,"x_min":34,"x_max":677,"o":"m 34 85 q 45 247 34 167 q 64 407 56 327 q 65 425 64 411 q 68 456 66 439 q 73 486 71 472 q 75 505 75 500 l 75 510 l 132 933 q 140 981 129 960 q 183 1002 152 1002 q 239 994 217 1006 q 277 960 262 981 q 301 916 292 940 q 321 871 311 891 q 338 826 328 852 q 363 761 349 800 q 397 665 377 722 q 442 526 416 608 l 448 521 q 484 538 457 526 q 539 564 510 551 q 594 590 568 578 q 631 606 620 602 q 638 611 632 609 q 647 614 644 613 l 650 614 q 670 604 663 614 q 677 585 677 594 q 670 559 677 570 q 654 539 663 548 q 635 522 646 530 q 620 505 625 514 l 486 437 q 480 426 480 430 q 492 392 480 415 q 510 355 503 369 q 524 326 514 347 q 544 281 533 304 q 565 237 555 258 q 579 208 575 216 l 579 203 q 530 155 579 155 q 499 158 515 155 q 475 178 483 161 l 384 372 l 372 372 q 262 294 320 332 q 142 229 203 256 q 131 130 133 180 q 132 30 129 80 q 110 7 121 15 q 80 0 99 0 q 52 9 61 0 q 38 31 42 18 q 34 58 34 43 q 34 85 34 73 m 155 349 q 234 392 195 365 q 308 442 273 419 q 318 448 312 445 q 330 454 324 450 q 343 464 335 458 l 343 475 l 218 830 l 213 836 q 203 789 209 827 q 189 691 197 751 q 173 552 182 631 q 155 384 164 473 l 155 349 m 52 1063 q 52 1075 52 1070 q 54 1086 53 1080 q 74 1143 64 1115 q 98 1197 84 1172 q 131 1241 113 1222 q 174 1268 149 1260 q 191 1266 183 1268 q 208 1253 199 1264 l 285 1156 q 303 1139 296 1149 q 324 1130 311 1130 q 342 1145 334 1130 q 354 1166 350 1160 q 368 1194 362 1179 q 382 1222 374 1208 q 398 1244 389 1236 q 420 1253 407 1253 q 440 1241 435 1253 q 445 1210 445 1229 q 435 1149 445 1181 q 410 1092 426 1118 q 376 1049 395 1066 q 336 1032 357 1032 q 290 1043 312 1031 q 249 1074 269 1055 q 210 1112 229 1092 q 174 1147 191 1133 q 149 1128 160 1147 q 127 1087 137 1109 q 106 1046 117 1065 q 87 1028 96 1028 q 64 1038 77 1028 q 52 1063 52 1047 z "},"":{"ha":963,"x_min":34,"x_max":929,"o":"m 488 104 q 478 145 483 125 q 471 184 473 165 l 384 372 l 372 372 q 262 294 320 332 q 142 229 203 256 q 131 130 133 180 q 132 30 129 80 q 110 7 121 15 q 80 0 99 0 q 52 9 61 0 q 38 31 42 18 q 34 58 34 43 q 34 85 34 73 q 45 247 34 167 q 64 407 56 327 q 65 425 64 411 q 68 456 66 439 q 73 486 71 472 q 75 505 75 500 l 75 510 l 132 933 q 140 981 129 960 q 183 1002 152 1002 q 239 994 217 1006 q 277 960 262 981 q 301 916 292 940 q 321 871 311 891 q 338 826 328 852 q 363 761 349 800 q 397 665 377 722 q 442 526 416 608 l 448 521 q 453 524 448 521 l 453 529 l 453 549 q 450 595 453 563 q 445 665 448 628 q 440 734 442 701 q 437 779 438 766 q 425 819 435 802 q 414 860 414 837 q 431 921 414 903 q 494 939 449 939 q 509 930 503 939 q 524 922 515 922 l 529 922 q 541 926 533 924 q 552 928 549 928 q 730 1004 666 977 q 826 1043 793 1031 q 870 1057 859 1055 q 890 1054 882 1058 q 912 1044 906 1051 q 918 1021 918 1036 q 914 994 918 1008 q 895 974 910 981 l 718 888 l 712 883 l 563 819 q 553 806 555 817 q 552 788 552 795 q 555 749 552 777 q 560 690 557 720 q 566 635 563 659 q 571 612 570 612 l 572 612 q 574 613 572 612 q 621 650 589 624 q 688 704 654 677 q 747 752 722 731 q 774 773 773 773 q 802 758 789 773 q 814 727 814 743 q 807 690 814 711 q 785 659 800 670 l 666 552 q 640 527 655 538 q 601 495 624 515 l 574 471 q 574 464 574 471 q 573 449 574 457 q 572 432 572 441 q 572 418 572 423 q 579 321 572 369 q 586 224 586 273 l 591 224 q 604 235 593 224 q 620 252 614 245 q 633 270 623 256 q 667 315 643 283 q 732 397 692 346 q 837 528 773 449 q 852 544 842 533 q 865 555 863 555 q 882 558 869 559 q 901 555 895 557 q 918 540 907 552 q 929 517 929 528 q 912 474 929 500 q 872 419 895 448 q 826 364 849 391 q 791 321 803 338 q 745 249 772 292 q 688 168 719 206 q 619 101 656 129 q 540 73 582 73 q 511 80 519 73 q 488 104 502 87 m 155 349 q 234 392 195 365 q 308 442 273 419 q 318 448 312 445 q 330 454 324 450 q 343 464 335 458 l 343 475 l 218 830 l 213 836 q 203 789 209 827 q 189 691 197 751 q 173 552 182 631 q 155 384 164 473 l 155 349 z "},"":{"ha":963,"x_min":34,"x_max":929,"o":"m 488 104 q 478 145 483 125 q 471 184 473 165 l 384 372 l 372 372 q 262 294 320 332 q 142 229 203 256 q 131 130 133 180 q 132 30 129 80 q 110 7 121 15 q 80 0 99 0 q 52 9 61 0 q 38 31 42 18 q 34 58 34 43 q 34 85 34 73 q 45 247 34 167 q 64 407 56 327 q 65 425 64 411 q 68 456 66 439 q 73 486 71 472 q 75 505 75 500 l 75 510 l 132 933 q 140 981 129 960 q 183 1002 152 1002 q 239 994 217 1006 q 277 960 262 981 q 301 916 292 940 q 321 871 311 891 q 338 826 328 852 q 363 761 349 800 q 397 665 377 722 q 442 526 416 608 l 448 521 q 453 524 448 521 l 453 529 l 453 549 q 450 595 453 563 q 445 665 448 628 q 440 734 442 701 q 437 779 438 766 q 425 819 435 802 q 414 860 414 837 q 431 921 414 903 q 494 939 449 939 q 509 930 503 939 q 524 922 515 922 l 529 922 q 541 926 533 924 q 552 928 549 928 q 730 1004 666 977 q 826 1043 793 1031 q 870 1057 859 1055 q 890 1054 882 1058 q 912 1044 906 1051 q 918 1021 918 1036 q 914 994 918 1008 q 895 974 910 981 l 718 888 l 712 883 l 563 819 q 553 806 555 817 q 552 788 552 795 q 555 749 552 777 q 560 690 557 720 q 566 635 563 659 q 571 612 570 612 l 572 612 q 574 613 572 612 q 621 650 589 624 q 688 704 654 677 q 747 752 722 731 q 774 773 773 773 q 802 758 789 773 q 814 727 814 743 q 807 690 814 711 q 785 659 800 670 l 666 552 q 640 527 655 538 q 601 495 624 515 l 574 471 q 574 464 574 471 q 573 449 574 457 q 572 432 572 441 q 572 418 572 423 q 579 321 572 369 q 586 224 586 273 l 591 224 q 604 235 593 224 q 620 252 614 245 q 633 270 623 256 q 667 315 643 283 q 732 397 692 346 q 837 528 773 449 q 852 544 842 533 q 865 555 863 555 q 882 558 869 559 q 901 555 895 557 q 918 540 907 552 q 929 517 929 528 q 912 474 929 500 q 872 419 895 448 q 826 364 849 391 q 791 321 803 338 q 745 249 772 292 q 688 168 719 206 q 619 101 656 129 q 540 73 582 73 q 511 80 519 73 q 488 104 502 87 m 155 349 q 234 392 195 365 q 308 442 273 419 q 318 448 312 445 q 330 454 324 450 q 343 464 335 458 l 343 475 l 218 830 l 213 836 q 203 789 209 827 q 189 691 197 751 q 173 552 182 631 q 155 384 164 473 l 155 349 m 358 1084 q 364 1139 354 1119 q 391 1176 374 1160 q 429 1210 408 1192 q 468 1259 449 1227 q 506 1270 488 1275 q 538 1241 524 1264 q 546 1219 547 1229 q 540 1198 545 1208 q 527 1180 534 1188 q 514 1164 519 1172 q 483 1126 503 1150 q 439 1084 463 1103 q 394 1062 416 1066 q 358 1084 372 1058 z "},"":{"ha":585,"x_min":31,"x_max":559,"o":"m 31 208 q 57 416 47 343 q 71 525 66 490 q 76 572 76 566 q 102 663 88 614 q 138 754 115 712 q 195 825 160 796 q 286 853 231 853 q 330 850 311 853 q 368 838 350 846 q 402 819 385 830 q 438 791 419 807 q 454 776 452 779 q 456 760 456 773 q 444 726 456 742 q 408 709 431 709 q 377 718 389 709 q 353 739 365 727 q 329 759 342 750 q 296 768 316 768 q 258 756 274 768 q 230 727 241 745 q 212 688 218 709 q 203 647 206 666 l 140 213 q 139 200 140 210 q 138 184 138 190 q 138 161 138 175 q 141 132 138 146 q 151 108 144 118 q 171 98 157 98 q 186 103 179 98 q 298 204 251 146 q 387 327 345 262 q 394 340 388 330 q 406 361 400 350 q 418 385 412 373 q 426 401 423 396 q 438 438 434 419 q 448 473 442 457 q 467 500 454 490 q 505 510 479 510 q 541 494 524 510 q 559 456 559 477 l 559 453 q 471 273 525 355 q 353 109 418 190 q 259 30 312 60 q 141 0 206 0 l 134 0 q 52 68 73 23 q 31 175 31 114 l 31 208 m 180 990 q 186 1046 176 1025 q 214 1082 197 1066 q 251 1116 231 1099 q 290 1165 271 1134 q 328 1176 311 1181 q 361 1147 346 1171 q 368 1125 369 1135 q 362 1105 368 1115 q 349 1086 357 1095 q 336 1070 342 1078 q 305 1033 326 1057 q 262 991 285 1009 q 216 968 239 972 q 180 990 194 964 z "},"":{"ha":585,"x_min":31,"x_max":559,"o":"m 31 208 q 57 416 47 343 q 71 525 66 490 q 76 572 76 566 q 102 663 88 614 q 138 754 115 712 q 195 825 160 796 q 286 853 231 853 q 330 850 311 853 q 368 838 350 846 q 402 819 385 830 q 438 791 419 807 q 454 776 452 779 q 456 760 456 773 q 444 726 456 742 q 408 709 431 709 q 377 718 389 709 q 353 739 365 727 q 329 759 342 750 q 296 768 316 768 q 258 756 274 768 q 230 727 241 745 q 212 688 218 709 q 203 647 206 666 l 140 213 q 139 200 140 210 q 138 184 138 190 q 138 161 138 175 q 141 132 138 146 q 151 108 144 118 q 171 98 157 98 q 186 103 179 98 q 298 204 251 146 q 387 327 345 262 q 394 340 388 330 q 406 361 400 350 q 418 385 412 373 q 426 401 423 396 q 438 438 434 419 q 448 473 442 457 q 467 500 454 490 q 505 510 479 510 q 541 494 524 510 q 559 456 559 477 l 559 453 q 471 273 525 355 q 353 109 418 190 q 259 30 312 60 q 141 0 206 0 l 134 0 q 52 68 73 23 q 31 175 31 114 l 31 208 m 90 1128 q 91 1139 85 1134 q 106 1148 96 1145 q 128 1154 117 1152 q 148 1156 140 1156 q 161 1154 151 1156 q 175 1149 172 1152 q 220 1098 203 1118 q 245 1066 236 1078 q 258 1048 255 1054 q 266 1039 262 1043 l 271 1036 l 355 1122 q 404 1138 369 1138 q 434 1135 423 1138 q 445 1122 445 1133 q 444 1116 445 1118 q 439 1108 444 1114 q 428 1095 437 1104 q 409 1076 419 1086 q 390 1057 399 1066 q 377 1044 381 1047 q 374 1040 377 1043 q 369 1036 370 1036 q 354 1021 365 1032 q 331 999 343 1010 q 308 977 319 987 q 293 962 297 966 q 279 955 286 956 q 262 954 273 954 q 236 955 250 954 q 217 963 222 956 q 205 983 214 968 q 194 1002 197 998 l 90 1128 z "},"":{"ha":585,"x_min":31,"x_max":559,"o":"m 31 208 q 57 416 47 343 q 71 525 66 490 q 76 572 76 566 q 102 663 88 614 q 138 754 115 712 q 195 825 160 796 q 286 853 231 853 q 330 850 311 853 q 368 838 350 846 q 402 819 385 830 q 438 791 419 807 q 454 776 452 779 q 456 760 456 773 q 444 726 456 742 q 408 709 431 709 q 377 718 389 709 q 353 739 365 727 q 329 759 342 750 q 296 768 316 768 q 258 756 274 768 q 230 727 241 745 q 212 688 218 709 q 203 647 206 666 l 140 213 q 139 200 140 210 q 138 184 138 190 q 138 161 138 175 q 141 132 138 146 q 151 108 144 118 q 171 98 157 98 q 186 103 179 98 q 298 204 251 146 q 387 327 345 262 q 394 340 388 330 q 406 361 400 350 q 418 385 412 373 q 426 401 423 396 q 438 438 434 419 q 448 473 442 457 q 467 500 454 490 q 505 510 479 510 q 541 494 524 510 q 559 456 559 477 l 559 453 q 471 273 525 355 q 353 109 418 190 q 259 30 312 60 q 141 0 206 0 l 134 0 q 52 68 73 23 q 31 175 31 114 l 31 208 m 134 -366 q 135 -354 134 -359 q 141 -343 136 -349 q 188 -316 157 -323 q 250 -304 218 -309 q 309 -290 282 -300 q 347 -252 336 -281 q 344 -217 358 -228 q 305 -203 330 -206 q 256 -203 281 -201 q 222 -206 232 -205 q 176 -203 203 -206 q 121 -192 148 -201 q 77 -167 95 -183 q 58 -123 58 -151 q 85 -42 66 -79 q 128 19 104 -5 q 176 54 152 43 q 216 56 199 64 q 239 21 233 49 q 231 -57 244 -7 q 210 -83 222 -66 q 198 -103 198 -100 l 198 -104 q 277 -109 233 -111 q 361 -111 320 -107 q 439 -134 403 -115 q 496 -203 475 -153 q 495 -291 509 -260 q 445 -340 481 -321 q 351 -372 408 -358 q 222 -412 294 -387 q 210 -418 220 -416 q 193 -419 199 -419 q 154 -403 174 -419 q 134 -366 134 -387 z "},"":{"ha":585,"x_min":31,"x_max":559,"o":"m 31 208 q 57 416 47 343 q 71 525 66 490 q 76 572 76 566 q 102 663 88 614 q 138 754 115 712 q 195 825 160 796 q 286 853 231 853 q 330 850 311 853 q 368 838 350 846 q 402 819 385 830 q 438 791 419 807 q 454 776 452 779 q 456 760 456 773 q 444 726 456 742 q 408 709 431 709 q 377 718 389 709 q 353 739 365 727 q 329 759 342 750 q 296 768 316 768 q 258 756 274 768 q 230 727 241 745 q 212 688 218 709 q 203 647 206 666 l 140 213 q 139 200 140 210 q 138 184 138 190 q 138 161 138 175 q 141 132 138 146 q 151 108 144 118 q 171 98 157 98 q 186 103 179 98 q 298 204 251 146 q 387 327 345 262 q 394 340 388 330 q 406 361 400 350 q 418 385 412 373 q 426 401 423 396 q 438 438 434 419 q 448 473 442 457 q 467 500 454 490 q 505 510 479 510 q 541 494 524 510 q 559 456 559 477 l 559 453 q 471 273 525 355 q 353 109 418 190 q 259 30 312 60 q 141 0 206 0 l 134 0 q 52 68 73 23 q 31 175 31 114 l 31 208 m 218 1114 q 223 1125 220 1116 q 231 1143 227 1134 q 239 1162 235 1153 q 244 1175 243 1171 q 264 1187 250 1185 q 292 1190 278 1190 q 311 1187 302 1190 q 327 1177 319 1185 q 342 1154 331 1171 q 368 1118 354 1137 q 393 1083 381 1100 q 408 1061 404 1066 q 414 1055 410 1059 q 418 1048 418 1050 q 431 1029 422 1043 q 452 998 441 1015 q 472 967 463 982 q 486 947 481 952 q 490 937 490 940 q 491 926 491 933 q 479 906 491 911 q 446 901 467 901 q 414 908 429 901 q 393 926 400 916 l 302 1061 l 297 1057 q 289 1042 293 1051 q 275 1013 285 1032 q 247 964 264 994 q 198 884 229 933 q 184 878 195 882 q 168 873 172 873 q 147 877 160 873 q 123 886 134 880 q 106 899 113 891 q 106 916 100 906 l 218 1114 z "},"":{"ha":585,"x_min":31,"x_max":559,"o":"m 31 208 q 57 416 47 343 q 71 525 66 490 q 76 572 76 566 q 102 663 88 614 q 138 754 115 712 q 195 825 160 796 q 286 853 231 853 q 330 850 311 853 q 368 838 350 846 q 402 819 385 830 q 438 791 419 807 q 454 776 452 779 q 456 760 456 773 q 444 726 456 742 q 408 709 431 709 q 377 718 389 709 q 353 739 365 727 q 329 759 342 750 q 296 768 316 768 q 258 756 274 768 q 230 727 241 745 q 212 688 218 709 q 203 647 206 666 l 140 213 q 139 200 140 210 q 138 184 138 190 q 138 161 138 175 q 141 132 138 146 q 151 108 144 118 q 171 98 157 98 q 186 103 179 98 q 298 204 251 146 q 387 327 345 262 q 394 340 388 330 q 406 361 400 350 q 418 385 412 373 q 426 401 423 396 q 438 438 434 419 q 448 473 442 457 q 467 500 454 490 q 505 510 479 510 q 541 494 524 510 q 559 456 559 477 l 559 453 q 471 273 525 355 q 353 109 418 190 q 259 30 312 60 q 141 0 206 0 l 134 0 q 52 68 73 23 q 31 175 31 114 l 31 208 m 184 1001 q 191 1031 184 1016 q 207 1059 197 1047 q 230 1080 217 1072 q 256 1088 243 1088 q 313 1067 290 1088 q 354 1021 335 1047 l 354 1015 q 331 945 354 977 q 269 914 308 914 q 240 922 255 914 q 213 943 225 930 q 193 970 201 955 q 184 1001 184 986 z "},"":{"ha":709,"x_min":24,"x_max":680,"o":"m 191 43 q 200 65 191 56 q 209 85 209 75 q 203 92 209 88 q 197 98 198 96 q 182 144 183 118 q 180 193 180 170 q 182 439 180 317 q 183 686 183 562 q 157 680 170 686 q 132 667 145 674 q 103 653 118 659 q 71 647 88 647 l 49 647 q 35 654 46 651 q 24 663 24 658 l 24 704 q 36 715 31 708 q 43 728 41 723 l 180 796 l 186 803 q 190 864 183 841 q 237 887 197 887 q 261 883 248 887 q 286 872 274 879 q 303 854 297 865 q 307 830 309 844 q 441 820 374 827 q 560 787 507 812 q 646 713 613 762 q 680 579 680 665 q 650 425 680 502 q 564 292 620 347 l 307 35 q 275 8 288 16 q 237 0 262 0 q 204 12 217 0 q 191 43 191 23 m 307 165 l 301 165 l 312 172 q 322 181 313 174 q 342 199 331 189 q 363 218 353 209 q 381 235 374 228 q 447 304 412 267 q 510 382 481 340 q 557 469 538 423 q 575 564 575 514 q 557 645 575 612 q 511 699 540 678 q 442 730 481 720 q 358 739 403 739 q 334 737 354 739 q 307 728 315 735 l 307 165 m 227 1147 q 228 1158 222 1153 q 243 1167 233 1164 q 265 1173 254 1171 q 285 1175 277 1175 q 298 1173 288 1175 q 312 1168 309 1171 q 357 1117 340 1137 q 382 1085 373 1097 q 395 1067 392 1073 q 403 1058 399 1062 l 408 1055 l 492 1141 q 541 1157 506 1157 q 571 1154 560 1157 q 582 1141 582 1152 q 581 1135 582 1137 q 576 1127 581 1133 q 565 1114 574 1123 q 546 1095 556 1105 q 527 1076 536 1085 q 514 1063 518 1066 q 511 1059 514 1062 q 506 1055 507 1055 q 491 1040 502 1051 q 468 1018 480 1029 q 445 996 456 1006 q 430 981 434 985 q 416 974 423 975 q 399 972 410 972 q 373 974 387 972 q 354 982 359 975 q 342 1002 351 987 q 331 1021 334 1017 l 227 1147 z "},"":{"ha":572,"x_min":31,"x_max":547,"o":"m 106 30 q 85 132 92 84 q 76 235 79 180 q 76 288 75 266 q 71 338 77 311 q 64 346 69 343 q 55 353 60 349 q 46 363 50 357 q 42 382 42 369 q 47 401 42 393 q 56 417 52 410 q 66 433 61 425 q 71 454 71 442 l 71 475 q 68 521 71 488 q 62 590 65 553 q 58 659 60 627 q 54 704 56 692 q 42 745 53 727 q 31 785 31 762 q 49 846 31 829 q 111 864 66 864 q 127 856 121 864 q 141 848 133 848 l 146 848 q 159 851 151 849 q 170 853 167 853 q 347 929 283 902 q 444 968 411 956 q 488 982 476 981 q 507 979 499 983 q 530 969 524 977 q 536 947 536 962 q 532 920 536 933 q 513 899 528 906 l 335 814 l 330 808 l 180 745 q 171 731 172 742 q 170 713 170 720 q 172 674 170 703 q 178 615 175 646 q 184 561 180 585 q 189 537 187 537 l 190 537 q 191 538 190 537 q 239 576 206 549 q 305 629 271 602 q 365 677 339 656 q 392 699 391 699 q 419 684 407 699 q 431 652 431 669 q 425 616 431 636 q 403 585 418 595 l 191 396 q 191 389 191 396 q 191 374 191 382 q 190 357 190 366 q 190 343 190 349 q 197 246 190 294 q 203 149 203 198 l 209 149 q 221 160 210 149 q 237 178 232 171 q 250 195 240 182 q 285 240 260 209 q 350 323 309 271 q 454 453 391 374 q 470 469 460 458 q 483 480 480 480 q 500 484 487 484 q 518 480 513 483 q 536 465 525 477 q 547 442 547 453 q 530 399 547 426 q 490 345 513 373 q 444 290 467 316 q 408 247 420 263 q 363 174 389 217 q 305 93 336 132 q 237 26 274 54 q 157 -1 199 -1 q 128 5 137 -1 q 106 30 119 12 m 155 978 q 161 1034 151 1013 q 188 1070 171 1054 q 225 1104 205 1086 q 264 1153 245 1122 q 302 1164 285 1169 q 335 1135 320 1158 q 342 1113 343 1123 q 336 1093 342 1103 q 323 1074 331 1082 q 311 1058 316 1066 q 279 1021 300 1044 q 236 979 259 997 q 191 956 213 960 q 155 978 168 952 z "},"":{"ha":572,"x_min":31,"x_max":547,"o":"m 106 30 q 85 132 92 84 q 76 235 79 180 q 76 288 75 266 q 71 338 77 311 q 64 346 69 343 q 55 353 60 349 q 46 363 50 357 q 42 382 42 369 q 47 401 42 393 q 56 417 52 410 q 66 433 61 425 q 71 454 71 442 l 71 475 q 68 521 71 488 q 62 590 65 553 q 58 659 60 627 q 54 704 56 692 q 42 745 53 727 q 31 785 31 762 q 49 846 31 829 q 111 864 66 864 q 127 856 121 864 q 141 848 133 848 l 146 848 q 159 851 151 849 q 170 853 167 853 q 347 929 283 902 q 444 968 411 956 q 488 982 476 981 q 507 979 499 983 q 530 969 524 977 q 536 947 536 962 q 532 920 536 933 q 513 899 528 906 l 335 814 l 330 808 l 180 745 q 171 731 172 742 q 170 713 170 720 q 172 674 170 703 q 178 615 175 646 q 184 561 180 585 q 189 537 187 537 l 190 537 q 191 538 190 537 q 239 576 206 549 q 305 629 271 602 q 365 677 339 656 q 392 699 391 699 q 419 684 407 699 q 431 652 431 669 q 425 616 431 636 q 403 585 418 595 l 191 396 q 191 389 191 396 q 191 374 191 382 q 190 357 190 366 q 190 343 190 349 q 197 246 190 294 q 203 149 203 198 l 209 149 q 221 160 210 149 q 237 178 232 171 q 250 195 240 182 q 285 240 260 209 q 350 323 309 271 q 454 453 391 374 q 470 469 460 458 q 483 480 480 480 q 500 484 487 484 q 518 480 513 483 q 536 465 525 477 q 547 442 547 453 q 530 399 547 426 q 490 345 513 373 q 444 290 467 316 q 408 247 420 263 q 363 174 389 217 q 305 93 336 132 q 237 26 274 54 q 157 -1 199 -1 q 128 5 137 -1 q 106 30 119 12 m 281 1004 q 186 1034 214 1009 q 154 1085 159 1058 q 159 1137 149 1112 q 176 1171 168 1162 q 227 1097 190 1118 q 305 1080 264 1076 q 380 1112 346 1085 q 422 1183 414 1139 q 425 1118 427 1152 q 406 1059 422 1085 q 360 1016 391 1032 q 281 1004 330 1000 z "},"":{"ha":572,"x_min":31,"x_max":547,"o":"m 106 30 q 85 132 92 84 q 76 235 79 180 q 76 288 75 266 q 71 338 77 311 q 64 346 69 343 q 55 353 60 349 q 46 363 50 357 q 42 382 42 369 q 47 401 42 393 q 56 417 52 410 q 66 433 61 425 q 71 454 71 442 l 71 475 q 68 521 71 488 q 62 590 65 553 q 58 659 60 627 q 54 704 56 692 q 42 745 53 727 q 31 785 31 762 q 49 846 31 829 q 111 864 66 864 q 127 856 121 864 q 141 848 133 848 l 146 848 q 159 851 151 849 q 170 853 167 853 q 347 929 283 902 q 444 968 411 956 q 488 982 476 981 q 507 979 499 983 q 530 969 524 977 q 536 947 536 962 q 532 920 536 933 q 513 899 528 906 l 335 814 l 330 808 l 180 745 q 171 731 172 742 q 170 713 170 720 q 172 674 170 703 q 178 615 175 646 q 184 561 180 585 q 189 537 187 537 l 190 537 q 191 538 190 537 q 239 576 206 549 q 305 629 271 602 q 365 677 339 656 q 392 699 391 699 q 419 684 407 699 q 431 652 431 669 q 425 616 431 636 q 403 585 418 595 l 191 396 q 191 389 191 396 q 191 374 191 382 q 190 357 190 366 q 190 343 190 349 q 197 246 190 294 q 203 149 203 198 l 209 149 q 221 160 210 149 q 237 178 232 171 q 250 195 240 182 q 285 240 260 209 q 350 323 309 271 q 454 453 391 374 q 470 469 460 458 q 483 480 480 480 q 500 484 487 484 q 518 480 513 483 q 536 465 525 477 q 547 442 547 453 q 530 399 547 426 q 490 345 513 373 q 444 290 467 316 q 408 247 420 263 q 363 174 389 217 q 305 93 336 132 q 237 26 274 54 q 157 -1 199 -1 q 128 5 137 -1 q 106 30 119 12 m 49 1179 q 50 1190 45 1184 q 66 1198 56 1195 q 87 1204 76 1202 q 107 1206 99 1206 q 121 1204 110 1206 q 134 1199 132 1202 q 179 1148 163 1168 q 205 1116 195 1128 q 218 1099 214 1104 q 225 1089 221 1093 l 231 1086 l 315 1172 q 363 1188 328 1188 q 393 1185 382 1188 q 404 1172 404 1183 q 404 1166 404 1168 q 399 1158 403 1164 q 387 1145 396 1154 q 368 1126 378 1137 q 349 1107 358 1116 q 336 1095 340 1097 q 333 1090 336 1093 q 328 1086 330 1086 q 313 1072 324 1082 q 290 1049 302 1061 q 267 1027 278 1038 q 252 1012 256 1016 q 239 1005 245 1006 q 221 1004 232 1004 q 195 1005 209 1004 q 176 1013 182 1006 q 165 1034 174 1019 q 153 1053 156 1048 l 49 1179 z "},"":{"ha":572,"x_min":31,"x_max":547,"o":"m 106 30 q 85 132 92 84 q 76 235 79 180 q 76 288 75 266 q 71 338 77 311 q 64 346 69 343 q 55 353 60 349 q 46 363 50 357 q 42 382 42 369 q 47 401 42 393 q 56 417 52 410 q 66 433 61 425 q 71 454 71 442 l 71 475 q 68 521 71 488 q 62 590 65 553 q 58 659 60 627 q 54 704 56 692 q 42 745 53 727 q 31 785 31 762 q 49 846 31 829 q 111 864 66 864 q 127 856 121 864 q 141 848 133 848 l 146 848 q 159 851 151 849 q 170 853 167 853 q 347 929 283 902 q 444 968 411 956 q 488 982 476 981 q 507 979 499 983 q 530 969 524 977 q 536 947 536 962 q 532 920 536 933 q 513 899 528 906 l 335 814 l 330 808 l 180 745 q 171 731 172 742 q 170 713 170 720 q 172 674 170 703 q 178 615 175 646 q 184 561 180 585 q 189 537 187 537 l 190 537 q 191 538 190 537 q 239 576 206 549 q 305 629 271 602 q 365 677 339 656 q 392 699 391 699 q 419 684 407 699 q 431 652 431 669 q 425 616 431 636 q 403 585 418 595 l 191 396 q 191 389 191 396 q 191 374 191 382 q 190 357 190 366 q 190 343 190 349 q 197 246 190 294 q 203 149 203 198 l 209 149 q 221 160 210 149 q 237 178 232 171 q 250 195 240 182 q 285 240 260 209 q 350 323 309 271 q 454 453 391 374 q 470 469 460 458 q 483 480 480 480 q 500 484 487 484 q 518 480 513 483 q 536 465 525 477 q 547 442 547 453 q 530 399 547 426 q 490 345 513 373 q 444 290 467 316 q 408 247 420 263 q 363 174 389 217 q 305 93 336 132 q 237 26 274 54 q 157 -1 199 -1 q 128 5 137 -1 q 106 30 119 12 m 198 1238 q 203 1250 199 1241 q 210 1268 206 1259 q 218 1286 214 1278 q 224 1299 222 1295 q 243 1312 229 1310 q 271 1314 258 1314 q 290 1312 282 1314 q 307 1302 298 1310 q 322 1278 311 1295 q 347 1243 334 1261 q 372 1208 361 1225 q 388 1185 384 1191 q 393 1179 389 1184 q 397 1173 397 1175 q 411 1154 401 1168 q 431 1123 420 1139 q 452 1092 442 1107 q 465 1072 461 1077 q 470 1061 469 1065 q 471 1051 471 1058 q 458 1031 471 1036 q 426 1025 446 1025 q 394 1033 408 1025 q 373 1051 380 1040 l 282 1185 l 277 1181 q 269 1166 273 1176 q 254 1138 264 1157 q 227 1088 244 1119 q 178 1009 209 1058 q 163 1002 175 1006 q 148 998 152 998 q 127 1002 140 998 q 103 1010 114 1005 q 86 1023 92 1016 q 85 1040 80 1031 l 198 1238 z "},"":{"ha":572,"x_min":31,"x_max":547,"o":"m 106 30 q 85 132 92 84 q 76 235 79 180 q 76 288 75 266 q 71 338 77 311 q 64 346 69 343 q 55 353 60 349 q 46 363 50 357 q 42 382 42 369 q 47 401 42 393 q 56 417 52 410 q 66 433 61 425 q 71 454 71 442 l 71 475 q 68 521 71 488 q 62 590 65 553 q 58 659 60 627 q 54 704 56 692 q 42 745 53 727 q 31 785 31 762 q 49 846 31 829 q 111 864 66 864 q 127 856 121 864 q 141 848 133 848 l 146 848 q 159 851 151 849 q 170 853 167 853 q 347 929 283 902 q 444 968 411 956 q 488 982 476 981 q 507 979 499 983 q 530 969 524 977 q 536 947 536 962 q 532 920 536 933 q 513 899 528 906 l 335 814 l 330 808 l 180 745 q 171 731 172 742 q 170 713 170 720 q 172 674 170 703 q 178 615 175 646 q 184 561 180 585 q 189 537 187 537 l 190 537 q 191 538 190 537 q 239 576 206 549 q 305 629 271 602 q 365 677 339 656 q 392 699 391 699 q 419 684 407 699 q 431 652 431 669 q 425 616 431 636 q 403 585 418 595 l 191 396 q 191 389 191 396 q 191 374 191 382 q 190 357 190 366 q 190 343 190 349 q 197 246 190 294 q 203 149 203 198 l 209 149 q 221 160 210 149 q 237 178 232 171 q 250 195 240 182 q 285 240 260 209 q 350 323 309 271 q 454 453 391 374 q 470 469 460 458 q 483 480 480 480 q 500 484 487 484 q 518 480 513 483 q 536 465 525 477 q 547 442 547 453 q 530 399 547 426 q 490 345 513 373 q 444 290 467 316 q 408 247 420 263 q 363 174 389 217 q 305 93 336 132 q 237 26 274 54 q 157 -1 199 -1 q 128 5 137 -1 q 106 30 119 12 m 111 1053 q 125 1088 111 1072 q 159 1104 140 1104 q 196 1092 182 1104 q 224 1065 210 1080 l 224 1061 q 208 1019 224 1038 q 167 1001 193 1001 q 130 1017 149 1001 q 111 1053 111 1034 m 286 1053 q 300 1088 286 1072 q 334 1104 315 1104 q 371 1092 357 1104 q 399 1065 385 1080 l 399 1061 q 383 1019 399 1038 q 342 1001 368 1001 q 305 1017 324 1001 q 286 1053 286 1034 z "},"":{"ha":572,"x_min":31,"x_max":547,"o":"m 106 30 q 85 132 92 84 q 76 235 79 180 q 76 288 75 266 q 71 338 77 311 q 64 346 69 343 q 55 353 60 349 q 46 363 50 357 q 42 382 42 369 q 47 401 42 393 q 56 417 52 410 q 66 433 61 425 q 71 454 71 442 l 71 475 q 68 521 71 488 q 62 590 65 553 q 58 659 60 627 q 54 704 56 692 q 42 745 53 727 q 31 785 31 762 q 49 846 31 829 q 111 864 66 864 q 127 856 121 864 q 141 848 133 848 l 146 848 q 159 851 151 849 q 170 853 167 853 q 347 929 283 902 q 444 968 411 956 q 488 982 476 981 q 507 979 499 983 q 530 969 524 977 q 536 947 536 962 q 532 920 536 933 q 513 899 528 906 l 335 814 l 330 808 l 180 745 q 171 731 172 742 q 170 713 170 720 q 172 674 170 703 q 178 615 175 646 q 184 561 180 585 q 189 537 187 537 l 190 537 q 191 538 190 537 q 239 576 206 549 q 305 629 271 602 q 365 677 339 656 q 392 699 391 699 q 419 684 407 699 q 431 652 431 669 q 425 616 431 636 q 403 585 418 595 l 191 396 q 191 389 191 396 q 191 374 191 382 q 190 357 190 366 q 190 343 190 349 q 197 246 190 294 q 203 149 203 198 l 209 149 q 221 160 210 149 q 237 178 232 171 q 250 195 240 182 q 285 240 260 209 q 350 323 309 271 q 454 453 391 374 q 470 469 460 458 q 483 480 480 480 q 500 484 487 484 q 518 480 513 483 q 536 465 525 477 q 547 442 547 453 q 530 399 547 426 q 490 345 513 373 q 444 290 467 316 q 408 247 420 263 q 363 174 389 217 q 305 93 336 132 q 237 26 274 54 q 157 -1 199 -1 q 128 5 137 -1 q 106 30 119 12 m 165 1063 q 172 1094 165 1078 q 188 1122 178 1109 q 211 1142 198 1134 q 237 1150 224 1150 q 294 1130 271 1150 q 335 1084 316 1109 l 335 1077 q 312 1008 335 1039 q 250 977 289 977 q 221 985 236 977 q 194 1005 206 993 q 174 1033 182 1017 q 165 1063 165 1048 z "},"":{"ha":572,"x_min":31,"x_max":547,"o":"m 106 30 q 85 132 92 84 q 76 235 79 180 q 76 288 75 266 q 71 338 77 311 q 64 346 69 343 q 55 353 60 349 q 46 363 50 357 q 42 382 42 369 q 47 401 42 393 q 56 417 52 410 q 66 433 61 425 q 71 454 71 442 l 71 475 q 68 521 71 488 q 62 590 65 553 q 58 659 60 627 q 54 704 56 692 q 42 745 53 727 q 31 785 31 762 q 49 846 31 829 q 111 864 66 864 q 127 856 121 864 q 141 848 133 848 l 146 848 q 159 851 151 849 q 170 853 167 853 q 347 929 283 902 q 444 968 411 956 q 488 982 476 981 q 507 979 499 983 q 530 969 524 977 q 536 947 536 962 q 532 920 536 933 q 513 899 528 906 l 335 814 l 330 808 l 180 745 q 171 731 172 742 q 170 713 170 720 q 172 674 170 703 q 178 615 175 646 q 184 561 180 585 q 189 537 187 537 l 190 537 q 191 538 190 537 q 239 576 206 549 q 305 629 271 602 q 365 677 339 656 q 392 699 391 699 q 419 684 407 699 q 431 652 431 669 q 425 616 431 636 q 403 585 418 595 l 191 396 q 191 389 191 396 q 191 374 191 382 q 190 357 190 366 q 190 343 190 349 q 197 246 190 294 q 203 149 203 198 l 209 149 q 221 160 210 149 q 237 178 232 171 q 250 195 240 182 q 285 240 260 209 q 350 323 309 271 q 454 453 391 374 q 470 469 460 458 q 483 480 480 480 q 500 484 487 484 q 518 480 513 483 q 536 465 525 477 q 547 442 547 453 q 530 399 547 426 q 490 345 513 373 q 444 290 467 316 q 408 247 420 263 q 363 174 389 217 q 305 93 336 132 q 237 26 274 54 q 157 -1 199 -1 q 128 5 137 -1 q 106 30 119 12 m 304 1043 q 265 1023 289 1019 q 217 1044 241 1027 q 170 1083 193 1061 q 137 1118 148 1105 q 122 1133 130 1124 q 109 1150 114 1141 q 104 1169 104 1160 q 111 1190 103 1179 q 145 1215 126 1210 q 186 1206 164 1221 q 228 1161 206 1177 q 268 1129 250 1145 q 297 1095 286 1114 q 304 1043 308 1076 z "},"":{"ha":572,"x_min":31,"x_max":547,"o":"m 106 30 q 85 132 92 84 q 76 235 79 180 q 76 288 75 266 q 71 338 77 311 q 64 346 69 343 q 55 353 60 349 q 46 363 50 357 q 42 382 42 369 q 47 401 42 393 q 56 417 52 410 q 66 433 61 425 q 71 454 71 442 l 71 475 q 68 521 71 488 q 62 590 65 553 q 58 659 60 627 q 54 704 56 692 q 42 745 53 727 q 31 785 31 762 q 49 846 31 829 q 111 864 66 864 q 127 856 121 864 q 141 848 133 848 l 146 848 q 159 851 151 849 q 170 853 167 853 q 347 929 283 902 q 444 968 411 956 q 488 982 476 981 q 507 979 499 983 q 530 969 524 977 q 536 947 536 962 q 532 920 536 933 q 513 899 528 906 l 335 814 l 330 808 l 180 745 q 171 731 172 742 q 170 713 170 720 q 172 674 170 703 q 178 615 175 646 q 184 561 180 585 q 189 537 187 537 l 190 537 q 191 538 190 537 q 239 576 206 549 q 305 629 271 602 q 365 677 339 656 q 392 699 391 699 q 419 684 407 699 q 431 652 431 669 q 425 616 431 636 q 403 585 418 595 l 191 396 q 191 389 191 396 q 191 374 191 382 q 190 357 190 366 q 190 343 190 349 q 197 246 190 294 q 203 149 203 198 l 209 149 q 221 160 210 149 q 237 178 232 171 q 250 195 240 182 q 285 240 260 209 q 350 323 309 271 q 454 453 391 374 q 470 469 460 458 q 483 480 480 480 q 500 484 487 484 q 518 480 513 483 q 536 465 525 477 q 547 442 547 453 q 530 399 547 426 q 490 345 513 373 q 444 290 467 316 q 408 247 420 263 q 363 174 389 217 q 305 93 336 132 q 237 26 274 54 q 157 -1 199 -1 q 128 5 137 -1 q 106 30 119 12 m 54 1050 q 71 1083 54 1073 q 106 1097 87 1093 l 446 1131 q 490 1123 469 1131 q 510 1088 510 1115 q 501 1073 510 1081 q 481 1058 492 1065 q 458 1046 471 1051 q 441 1044 446 1042 l 106 1008 q 71 1019 88 1008 q 54 1050 54 1031 z "},"":{"ha":572,"x_min":31,"x_max":570,"o":"m 106 30 q 85 132 92 84 q 76 235 79 180 q 76 288 75 266 q 71 338 77 311 q 64 346 69 343 q 55 353 60 349 q 46 363 50 357 q 42 382 42 369 q 47 401 42 393 q 56 417 52 410 q 66 433 61 425 q 71 454 71 442 l 71 475 q 68 521 71 488 q 62 590 65 553 q 58 659 60 627 q 54 704 56 692 q 42 745 53 727 q 31 785 31 762 q 49 846 31 829 q 111 864 66 864 q 127 856 121 864 q 141 848 133 848 l 146 848 q 159 851 151 849 q 170 853 167 853 q 347 929 283 902 q 444 968 411 956 q 488 982 476 981 q 507 979 499 983 q 530 969 524 977 q 536 947 536 962 q 532 920 536 933 q 513 899 528 906 l 335 814 l 330 808 l 180 745 q 171 731 172 742 q 170 713 170 720 q 172 674 170 703 q 178 615 175 646 q 184 561 180 585 q 189 537 187 537 l 190 537 q 191 538 190 537 q 239 576 206 549 q 305 629 271 602 q 365 677 339 656 q 392 699 391 699 q 419 684 407 699 q 431 652 431 669 q 425 616 431 636 q 403 585 418 595 l 191 396 q 191 389 191 396 q 191 374 191 382 q 190 357 190 366 q 190 343 190 349 q 197 246 190 294 q 203 149 203 198 l 209 149 q 221 160 210 149 q 237 178 232 171 q 250 195 240 182 q 285 240 260 209 q 350 323 309 271 q 454 453 391 374 q 470 469 460 458 q 483 480 480 480 q 500 484 487 484 q 518 480 513 483 q 536 465 525 477 q 547 442 547 453 q 530 399 547 426 q 490 345 513 373 q 444 290 467 316 q 408 247 420 263 q 363 174 389 217 q 305 93 336 132 q 237 26 274 54 q 157 -1 199 -1 q 128 5 137 -1 q 106 30 119 12 m 315 122 q 330 267 315 217 q 369 336 345 317 q 424 352 393 355 q 486 338 454 349 q 482 336 484 338 q 479 332 480 334 q 420 190 434 251 q 419 79 406 129 q 463 71 438 60 q 499 113 488 83 q 537 144 521 142 q 562 132 553 146 q 569 92 570 118 q 556 41 568 66 q 519 -6 544 15 q 453 -31 494 -27 q 351 11 387 -31 q 315 122 315 53 z "},"":{"ha":680,"x_min":24,"x_max":650,"o":"m 507 -118 q 478 55 487 -37 q 467 227 469 146 q 446 205 454 220 q 432 176 438 191 q 419 144 426 160 q 403 118 412 129 q 335 54 372 83 q 248 24 298 24 q 168 42 208 24 q 96 89 127 60 q 44 156 64 118 q 24 236 24 194 q 43 355 24 294 q 90 467 62 415 q 106 494 95 476 q 131 532 118 513 q 155 566 144 551 q 170 586 165 582 l 317 742 q 393 787 347 773 q 477 804 438 802 q 511 798 498 807 q 525 769 525 789 q 512 744 525 753 q 481 730 499 735 q 445 720 464 724 q 415 708 426 715 q 285 577 343 650 q 180 426 227 505 q 149 335 165 378 q 133 240 133 292 q 134 222 133 236 q 134 203 134 208 q 176 144 148 171 q 241 117 203 117 q 281 129 260 117 q 312 159 301 141 q 331 186 317 165 q 359 229 345 206 q 386 273 373 252 q 403 301 399 293 q 414 322 407 309 q 428 347 422 335 q 439 370 434 359 q 444 381 444 380 l 444 387 q 406 378 425 381 q 366 374 387 374 q 340 376 354 374 q 313 384 326 378 q 291 399 300 389 q 282 425 282 408 q 283 441 282 431 q 289 456 285 450 q 318 470 300 465 q 357 477 336 475 q 399 481 378 479 q 438 490 420 483 q 473 504 453 495 q 516 522 494 513 q 562 537 538 530 q 604 547 585 544 q 615 544 608 547 q 631 537 623 541 q 644 528 639 533 q 650 519 650 524 q 633 478 650 490 q 591 450 617 467 q 588 342 595 396 q 581 233 581 288 q 583 100 581 168 q 597 -31 586 33 q 601 -45 598 -34 q 607 -69 604 -57 q 613 -92 610 -81 q 616 -106 616 -103 l 616 -109 q 602 -146 616 -127 q 568 -164 587 -164 q 530 -151 548 -164 q 507 -118 511 -137 m 350 827 q 256 857 283 833 q 223 909 228 882 q 228 961 218 936 q 245 994 237 986 q 296 920 259 941 q 374 904 334 899 q 449 936 415 909 q 491 1006 483 963 q 494 942 496 975 q 475 882 491 909 q 429 840 460 856 q 350 827 399 823 z "},"":{"ha":680,"x_min":24,"x_max":650,"o":"m 507 -118 q 478 55 487 -37 q 467 227 469 146 q 446 205 454 220 q 432 176 438 191 q 419 144 426 160 q 403 118 412 129 q 335 54 372 83 q 248 24 298 24 q 168 42 208 24 q 96 89 127 60 q 44 156 64 118 q 24 236 24 194 q 43 355 24 294 q 90 467 62 415 q 106 494 95 476 q 131 532 118 513 q 155 566 144 551 q 170 586 165 582 l 317 742 q 393 787 347 773 q 477 804 438 802 q 511 798 498 807 q 525 769 525 789 q 512 744 525 753 q 481 730 499 735 q 445 720 464 724 q 415 708 426 715 q 285 577 343 650 q 180 426 227 505 q 149 335 165 378 q 133 240 133 292 q 134 222 133 236 q 134 203 134 208 q 176 144 148 171 q 241 117 203 117 q 281 129 260 117 q 312 159 301 141 q 331 186 317 165 q 359 229 345 206 q 386 273 373 252 q 403 301 399 293 q 414 322 407 309 q 428 347 422 335 q 439 370 434 359 q 444 381 444 380 l 444 387 q 406 378 425 381 q 366 374 387 374 q 340 376 354 374 q 313 384 326 378 q 291 399 300 389 q 282 425 282 408 q 283 441 282 431 q 289 456 285 450 q 318 470 300 465 q 357 477 336 475 q 399 481 378 479 q 438 490 420 483 q 473 504 453 495 q 516 522 494 513 q 562 537 538 530 q 604 547 585 544 q 615 544 608 547 q 631 537 623 541 q 644 528 639 533 q 650 519 650 524 q 633 478 650 490 q 591 450 617 467 q 588 342 595 396 q 581 233 581 288 q 583 100 581 168 q 597 -31 586 33 q 601 -45 598 -34 q 607 -69 604 -57 q 613 -92 610 -81 q 616 -106 616 -103 l 616 -109 q 602 -146 616 -127 q 568 -164 587 -164 q 530 -151 548 -164 q 507 -118 511 -137 m 266 1114 q 271 1125 267 1116 q 278 1143 274 1134 q 286 1162 282 1153 q 292 1175 290 1171 q 311 1187 297 1185 q 339 1190 326 1190 q 358 1187 350 1190 q 374 1177 366 1185 q 390 1154 378 1171 q 415 1118 401 1137 q 440 1083 429 1100 q 456 1061 452 1066 q 461 1055 457 1059 q 465 1048 465 1050 q 479 1029 469 1043 q 499 998 488 1015 q 519 967 510 982 q 533 947 529 952 q 538 937 537 940 q 538 926 538 933 q 526 906 538 911 q 494 901 514 901 q 462 908 476 901 q 441 926 448 916 l 350 1061 l 345 1057 q 336 1042 340 1051 q 322 1013 332 1032 q 294 964 312 994 q 245 884 277 933 q 231 878 243 882 q 216 873 220 873 q 195 877 208 873 q 171 886 182 880 q 154 899 160 891 q 153 916 148 906 l 266 1114 z "}}}
